<svg xmlns="http://www.w3.org/2000/svg" width="24" height="24" viewBox="0 0 24 24">
  <path d="M18.7105,5.63636 C19.6992,5.63636 20.5,6.45 20.5,7.45455 L20.5,20.1818 C20.5,21.1864 19.6992,22 18.7105,22 L8.86842,22 C7.87974,22 7.07895,21.1864 7.07895,20.1818 L7.07895,7.45455 C7.07895,6.45 7.87974,5.63636 8.86842,5.63636 L18.7105,5.63636 Z M17.0298,16 L10.6132,16 C10.5358,16 10.46156,16.0527 10.40686,16.1464 C10.35216,16.2402 10.32146,16.3674 10.32146,16.5 C10.32146,16.6326 10.35216,16.7598 10.40686,16.8536 C10.46156,16.9473 10.5358,17 10.6132,17 L17.0298,17 C17.1072,17 17.1814,16.9473 17.2361,16.8536 C17.2908,16.7598 17.3215,16.6326 17.3215,16.5 C17.3215,16.3674 17.2908,16.2402 17.2361,16.1464 C17.1814,16.0527 17.1072,16 17.0298,16 Z M16.0263,2 L16.0263,3.81818 L5.28947,3.81818 L5.28947,16.5455 L3.5,16.5455 L3.5,3.81818 C3.5,2.81364 4.30079,2 5.28947,2 L16.0263,2 Z M17.0298,14 L10.6132,14 C10.5358,14 10.46156,14.0527 10.40686,14.1464 C10.35216,14.2402 10.32146,14.3674 10.32146,14.5 C10.32146,14.6326 10.35216,14.7598 10.40686,14.8536 C10.46156,14.9473 10.5358,15 10.6132,15 L17.0298,15 C17.1072,15 17.1814,14.9473 17.2361,14.8536 C17.2908,14.7598 17.3215,14.6326 17.3215,14.5 C17.3215,14.3674 17.2908,14.2402 17.2361,14.1464 C17.1814,14.0527 17.1072,14 17.0298,14 Z M17.0298,12 L10.6132,12 C10.5358,12 10.46156,12.0527 10.40686,12.1464 C10.35216,12.2402 10.32146,12.3674 10.32146,12.5 C10.32146,12.6326 10.35216,12.7598 10.40686,12.8536 C10.46156,12.9473 10.5358,13 10.6132,13 L17.0298,13 C17.1072,13 17.1814,12.9473 17.2361,12.8536 C17.2908,12.7598 17.3215,12.6326 17.3215,12.5 C17.3215,12.3674 17.2908,12.2402 17.2361,12.1464 C17.1814,12.0527 17.1072,12 17.0298,12 Z M17.0298,10 L10.6132,10 C10.5358,10 10.46156,10.0527 10.40686,10.1464 C10.35216,10.2402 10.32146,10.3674 10.32146,10.5 C10.32146,10.6326 10.35216,10.7598 10.40686,10.8536 C10.46156,10.9473 10.5358,11 10.6132,11 L17.0298,11 C17.1072,11 17.1814,10.9473 17.2361,10.8536 C17.2908,10.7598 17.3215,10.6326 17.3215,10.5 C17.3215,10.3674 17.2908,10.2402 17.2361,10.1464 C17.1814,10.0527 17.1072,10 17.0298,10 Z"/>
</svg>
