<svg width="24" height="24" viewBox="0 0 24 24" xmlns="http://www.w3.org/2000/svg"><path d="M19.286,15.8255 C19.286,13.5955 18.392,12.2755 16.521,11.5185 C17.539,10.7885 18.144,9.6055 18.144,7.8025 C18.144,3.7155 15.034,2.9315 11.237,2.9315 L7.48,2.9315 C6.324,2.9315 5.03,3.0005 4.92,3.0555 C4.797,3.1375 4.714,3.6475 4.714,4.2935 C4.714,4.7065 4.755,5.3255 4.838,5.4775 C5.292,5.6285 5.87,5.7525 6.503,5.8485 L6.503,18.1515 C5.87,18.2475 5.292,18.3715 4.838,18.5235 C4.755,18.6745 4.714,19.2935 4.714,19.7065 C4.714,20.3535 4.797,20.8625 4.92,20.9445 C5.026,20.9975 6.23,21.0645 7.35,21.0685 L10.204,21.0685 C15.062,21.0685 19.286,20.6695 19.286,15.8265 L19.286,15.8255 Z M10.11,10.1555 L9.723,10.1555 L9.723,5.6835 L10.364,5.6835 C13.193,5.6935 14.773,5.8475 14.773,7.9265 C14.773,10.0065 13.21,10.1505 10.11,10.1565 L10.11,10.1555 Z M10.837,18.3295 L9.723,18.3295 L9.723,13.2515 L11.168,13.2515 C14.208,13.2515 15.915,13.7055 15.915,15.8525 C15.915,17.9605 14.257,18.3165 10.837,18.3295 L10.837,18.3295 Z"/></svg>