<svg xmlns="http://www.w3.org/2000/svg" fill="currentColor" viewBox="0 0 24 24">
  <g class="bold">
    <path d="M19.572 15.894c0-2.23-.894-3.55-2.765-4.307 1.018-.73 1.623-1.913 1.623-3.716C18.43 3.784 15.32 3 11.523 3H7.766c-1.156 0-2.45.069-2.56.124C5.083 3.206 5 3.716 5 4.362c0 .413.041 1.032.124 1.184.454.151 1.032.275 1.665.371V18.22c-.633.096-1.211.22-1.665.372-.083.151-.124.77-.124 1.183 0 .647.083 1.156.206 1.238.106.053 1.31.12 2.43.124h2.854c4.858 0 9.082-.399 9.082-5.242zm-9.176-5.67h-.387V5.752h.641c2.829.01 4.409.164 4.409 2.243 0 2.08-1.563 2.224-4.663 2.23zm.727 8.174h-1.114V13.32h1.445c3.04 0 4.747.454 4.747 2.601 0 2.108-1.658 2.464-5.078 2.477z" class="Vector"/>
  </g>
</svg>
