<svg width="24" height="24" viewBox="0 0 24 24" xmlns="http://www.w3.org/2000/svg"><path d="M5,21 C3.89543,21 3,20.1046 3,19 L3,6 C3,4.89543 3.89543,4 5,4 L8,4 L8,3 C8,2.44772 8.44772,2 9,2 C9.55228,2 10,2.44772 10,3 L10,4 L14,4 L14,3 C14,2.44772 14.4477,2 15,2 C15.5523,2 16,2.44772 16,3 L16,4 L19,4 C20.1046,4 21,4.89543 21,6 L21,16 C21,16.4784 20.664,16.8784 20.2151,16.9768 C20.1458,16.992 20.0739,17 20,17 C19.5078,17 19.0987,16.6445 19.0155,16.1762 C19.0053,16.119 19,16.0601 19,16 L19,11 L5,11 L5,19 L11,19 C11.5523,19 12,19.4477 12,20 C12,20.3272 11.8428,20.6177 11.5999,20.8001 C11.4328,20.9256 11.2251,21 11,21 L5,21 Z M18,20 C18.5523,20 19,19.5523 19,19 C19,18.9399 18.9947,18.881 18.9845,18.8238 C18.9013,18.3555 18.4922,18 18,18 L17,18 L17,17 C17,16.4477 16.5523,16 16,16 C15.4477,16 15,16.4477 15,17 L15,18 L14,18 C13.7749,18 13.5672,18.0744 13.4001,18.1999 C13.1572,18.3823 13,18.6728 13,19 C13,19.5523 13.4477,20 14,20 L15,20 L15,21 C15,21.5523 15.4477,22 16,22 C16.5523,22 17,21.5523 17,21 L17,20 L18,20 Z M5,9 L19,9 L19,6 L16,6 L16,7 C16,7.55228 15.5523,8 15,8 C14.4477,8 14,7.55228 14,7 L14,6 L10,6 L10,7 C10,7.55228 9.55228,8 9,8 C8.44772,8 8,7.55228 8,7 L8,6 L5,6 L5,9 Z" fill-rule="evenodd"/></svg>