<svg xmlns="http://www.w3.org/2000/svg" width="24" height="24" viewBox="0 0 24 24">
  <path d="M16.0263,2 L10.6579,2 L5.28947,2 C4.30079,2 3.5,2.81364 3.5,3.81818 L3.5,16.5455 L5.28947,16.5455 L5.28947,3.81818 L16.0263,3.81818 L16.0263,2 Z M18.7105,5.63636 L8.86842,5.63636 C7.87974,5.63636 7.07895,6.45 7.07895,7.45455 L7.07895,20.1818 C7.07895,21.1864 7.87974,22 8.86842,22 L18.7105,22 C19.6992,22 20.5,21.1864 20.5,20.1818 L20.5,7.45455 C20.5,6.45 19.6992,5.63636 18.7105,5.63636 Z M18.7105,20.1818 L8.86842,20.1818 L8.86842,7.45455 L18.7105,7.45455 L18.7105,20.1818 Z"/>
</svg>
