<svg xmlns="http://www.w3.org/2000/svg" width="24" height="24" viewBox="0 0 24 24">
  <path d="M15.625,5 L20.5,10.1 L20.5,20.3 C20.5,21.2393 19.7728,22 18.875,22 L18.875,22 L8.49188,22 C7.59406,22 6.875,21.2393 6.875,20.3 L6.875,20.3 L6.88313,6.7 C6.88313,5.76075 7.60219,5 8.5,5 L8.5,5 L15.625,5 Z M15.5,2 L15.5,3.81818 L5.28947,3.81818 L5.28947,16.5455 L3.5,16.5455 L3.5,3.81818 C3.5,2.81364 4.30079,2 5.28947,2 L5.28947,2 L15.5,2 Z M14.8125,6.275 L14.8125,10.95 L19.2813,10.95 L14.8125,6.275 Z"/>
</svg>
