<svg xmlns="http://www.w3.org/2000/svg" width="24" height="24" viewBox="0 0 24 24">
  <path d="M18.7105,5.63636 C19.6992,5.63636 20.5,6.45 20.5,7.45455 L20.5,7.45455 L20.5,20.1818 C20.5,21.1864 19.6992,22 18.7105,22 L18.7105,22 L8.86842,22 C7.87974,22 7.07895,21.1864 7.07895,20.1818 L7.07895,20.1818 L7.07895,7.45455 C7.07895,6.45 7.87974,5.63636 8.86842,5.63636 L8.86842,5.63636 Z M18.7105,7.45455 L8.86842,7.45455 L8.86842,20.1818 L18.7105,20.1818 L18.7105,7.45455 Z M17.0297582,16 C17.1071582,16 17.1813582,16.0527 17.2360582,16.1464 C17.2907582,16.2402 17.3214582,16.3674 17.3214582,16.5 C17.3214582,16.6326 17.2907582,16.7598 17.2360582,16.8536 C17.1950332,16.923875 17.1430394,16.9710875 17.0869535,16.9903016 L17.0297582,17 L10.6131582,17 C10.5357582,17 10.4615582,16.9473 10.4068582,16.8536 C10.3521582,16.7598 10.3214582,16.6326 10.3214582,16.5 C10.3214582,16.3674 10.3521582,16.2402 10.4068582,16.1464 C10.4478832,16.076125 10.4998769,16.0289125 10.5559629,16.0096984 L10.6131582,16 L17.0297582,16 Z M16.0263,2 L16.0263,3.81818 L5.28947,3.81818 L5.28947,16.5455 L3.5,16.5455 L3.5,3.81818 C3.5,2.81364 4.30079,2 5.28947,2 L5.28947,2 L16.0263,2 Z M17.0297582,14 C17.1071582,14 17.1813582,14.0527 17.2360582,14.1464 C17.2907582,14.2402 17.3214582,14.3674 17.3214582,14.5 C17.3214582,14.6326 17.2907582,14.7598 17.2360582,14.8536 C17.1950332,14.923875 17.1430394,14.9710875 17.0869535,14.9903016 L17.0297582,15 L10.6131582,15 C10.5357582,15 10.4615582,14.9473 10.4068582,14.8536 C10.3521582,14.7598 10.3214582,14.6326 10.3214582,14.5 C10.3214582,14.3674 10.3521582,14.2402 10.4068582,14.1464 C10.4478832,14.076125 10.4998769,14.0289125 10.5559629,14.0096984 L10.6131582,14 L17.0297582,14 Z M17.0297582,12 C17.1071582,12 17.1813582,12.0527 17.2360582,12.1464 C17.2907582,12.2402 17.3214582,12.3674 17.3214582,12.5 C17.3214582,12.6326 17.2907582,12.7598 17.2360582,12.8536 C17.1950332,12.923875 17.1430394,12.9710875 17.0869535,12.9903016 L17.0297582,13 L10.6131582,13 C10.5357582,13 10.4615582,12.9473 10.4068582,12.8536 C10.3521582,12.7598 10.3214582,12.6326 10.3214582,12.5 C10.3214582,12.3674 10.3521582,12.2402 10.4068582,12.1464 C10.4478832,12.076125 10.4998769,12.0289125 10.5559629,12.0096984 L10.6131582,12 L17.0297582,12 Z M17.0297582,10 C17.1071582,10 17.1813582,10.0527 17.2360582,10.1464 C17.2907582,10.2402 17.3214582,10.3674 17.3214582,10.5 C17.3214582,10.6326 17.2907582,10.7598 17.2360582,10.8536 C17.1950332,10.923875 17.1430394,10.9710875 17.0869535,10.9903016 L17.0297582,11 L10.6131582,11 C10.5357582,11 10.4615582,10.9473 10.4068582,10.8536 C10.3521582,10.7598 10.3214582,10.6326 10.3214582,10.5 C10.3214582,10.3674 10.3521582,10.2402 10.4068582,10.1464 C10.4478832,10.076125 10.4998769,10.0289125 10.5559629,10.0096984 L10.6131582,10 L17.0297582,10 Z"/>
</svg>
