<svg xmlns="http://www.w3.org/2000/svg" width="24" height="24" viewBox="0 0 24 24">
  <path d="M18.7105,5.63636 C19.6992,5.63636 20.5,6.45 20.5,7.45455 L20.5,20.1818 C20.5,21.1864 19.6992,22 18.7105,22 L8.86842,22 C7.87974,22 7.07895,21.1864 7.07895,20.1818 L7.07895,7.45455 C7.07895,6.45 7.87974,5.63636 8.86842,5.63636 L18.7105,5.63636 Z M18.7105,7.45455 L8.86842,7.45455 L8.86842,20.1818 L18.7105,20.1818 L18.7105,7.45455 Z M17.0298,16 C17.1072,16 17.1814,16.0527 17.2361,16.1464 C17.2908,16.2402 17.3215,16.3674 17.3215,16.5 C17.3215,16.6326 17.2908,16.7598 17.2361,16.8536 C17.195,16.9239 17.143,16.9711 17.087,16.9903 L17.0298,17 L10.6132,17 C10.5358,17 10.46156,16.9473 10.40686,16.8536 C10.35216,16.7598 10.32146,16.6326 10.32146,16.5 C10.32146,16.3674 10.35216,16.2402 10.40686,16.1464 C10.44788,16.0761 10.49988,16.0289 10.556,16.0097 L10.6132,16 L17.0298,16 Z M16.0263,2 L16.0263,3.81818 L5.28947,3.81818 L5.28947,16.5455 L3.5,16.5455 L3.5,3.81818 C3.5,2.81364 4.30079,2 5.28947,2 L16.0263,2 Z M17.0298,14 C17.1072,14 17.1814,14.0527 17.2361,14.1464 C17.2908,14.2402 17.3215,14.3674 17.3215,14.5 C17.3215,14.6326 17.2908,14.7598 17.2361,14.8536 C17.195,14.9239 17.143,14.9711 17.087,14.9903 L17.0298,15 L10.6132,15 C10.5358,15 10.46156,14.9473 10.40686,14.8536 C10.35216,14.7598 10.32146,14.6326 10.32146,14.5 C10.32146,14.3674 10.35216,14.2402 10.40686,14.1464 C10.44788,14.0761 10.49988,14.0289 10.556,14.0097 L10.6132,14 L17.0298,14 Z M17.0298,12 C17.1072,12 17.1814,12.0527 17.2361,12.1464 C17.2908,12.2402 17.3215,12.3674 17.3215,12.5 C17.3215,12.6326 17.2908,12.7598 17.2361,12.8536 C17.195,12.9239 17.143,12.9711 17.087,12.9903 L17.0298,13 L10.6132,13 C10.5358,13 10.46156,12.9473 10.40686,12.8536 C10.35216,12.7598 10.32146,12.6326 10.32146,12.5 C10.32146,12.3674 10.35216,12.2402 10.40686,12.1464 C10.44788,12.0761 10.49988,12.0289 10.556,12.0097 L10.6132,12 L17.0298,12 Z M17.0298,10 C17.1072,10 17.1814,10.0527 17.2361,10.1464 C17.2908,10.2402 17.3215,10.3674 17.3215,10.5 C17.3215,10.6326 17.2908,10.7598 17.2361,10.8536 C17.195,10.9239 17.143,10.9711 17.087,10.9903 L17.0298,11 L10.6132,11 C10.5358,11 10.46156,10.9473 10.40686,10.8536 C10.35216,10.7598 10.32146,10.6326 10.32146,10.5 C10.32146,10.3674 10.35216,10.2402 10.40686,10.1464 C10.44788,10.0761 10.49988,10.0289 10.556,10.0097 L10.6132,10 L17.0298,10 Z"/>
</svg>
