<svg width="24" height="24" viewBox="0 0 24 24" xmlns="http://www.w3.org/2000/svg"><path d="M8.52195116,2.28463 C8.62274116,1.52477 9.27821116,1 10.0027212,1 L14.0027212,1 C14.7273212,1 15.3827212,1.52478 15.4835212,2.28465 L15.7849212,4.38618 C16.1027212,4.54438 16.4072212,4.72207 16.6993212,4.91751 L18.6954212,4.11587 L18.7110212,4.11021 C19.3363212,3.88282 20.1462212,4.08487 20.5331212,4.77755 L22.5347212,8.24028 L22.5406212,8.25114 C22.8797212,8.87291 22.7578212,9.68479 22.1623212,10.1549 L22.1587212,10.1577 L20.4829212,11.4682 C20.4952212,11.6389 20.5027212,11.8159 20.5027212,12 C20.5027212,12.1841 20.4952212,12.3611 20.4829212,12.5318 L22.1623212,13.8451 C22.7578212,14.3152 22.8797212,15.1271 22.5406212,15.7489 L22.5347212,15.7597 L20.5331212,19.2225 C20.1628212,19.8853 19.3711212,20.1484 18.6883212,19.8812 L18.6800212,19.878 L16.6953212,19.0809 C16.4069212,19.2729 16.1039212,19.452 15.7851212,19.6122 L15.4835212,21.7154 C15.3827212,22.4752 14.7273212,23 14.0027212,23 L10.0027212,23 C9.27821116,23 8.62275116,22.4752 8.52195116,21.7154 L8.22059116,19.6138 C7.90275116,19.4556 7.59829116,19.2779 7.30615116,19.0825 L5.31007116,19.8841 L5.29451116,19.8898 C4.66917116,20.1172 3.85919116,19.9151 3.47235116,19.2224 L1.47080116,15.7597 L1.46487116,15.7489 C1.12573116,15.1271 1.24766116,14.3152 1.84312116,13.8451 L1.84675116,13.8423 L3.52283116,12.5316 C3.51038116,12.3586 3.50276116,12.1807 3.50276116,12 C3.50276116,11.8193 3.51038116,11.6414 3.52283116,11.4684 L1.84676116,10.1577 L1.84312116,10.1549 C1.27703116,9.70797 1.08849116,8.89283 1.47878116,8.22646 L3.47238116,4.77753 C3.84268116,4.11469 4.63440116,3.85159 5.31716116,4.11876 L5.32545116,4.122 L7.31017116,4.91912 C7.59855116,4.72714 7.90159116,4.54798 8.22036116,4.38779 L8.52195116,2.28463 Z M10.4398212,3 L10.0414212,5.77832 L9.51199116,5.99531 C8.99743116,6.20619 8.51106116,6.49877 8.04276116,6.85 L7.59244116,7.18774 L4.99278116,6.1437 L3.42617116,8.85393 L5.63536116,10.5815 L5.56504116,11.144 C5.52760116,11.4436 5.50276116,11.7281 5.50276116,12 C5.50276116,12.2719 5.52760116,12.5564 5.56504116,12.856 L5.63536116,13.4185 L3.42617116,15.1461 L4.99278116,17.8563 L7.59992116,16.8093 L8.05247116,17.1574 C8.50724116,17.5072 8.99039116,17.7909 9.51199116,18.0047 L10.0414212,18.2217 L10.4398212,21 L13.5656212,21 L13.9640212,18.2217 L14.4935212,18.0047 C15.0080212,17.7938 15.4944212,17.5012 15.9627212,17.15 L16.4130212,16.8123 L19.0127212,17.8563 L20.5793212,15.1461 L18.3701212,13.4185 L18.4404212,12.856 C18.4780212,12.5555 18.5027212,12.2813 18.5027212,12 C18.5027212,11.7187 18.4780212,11.4445 18.4404212,11.144 L18.3701212,10.5815 L20.5793212,8.85392 L19.0127212,6.1437 L16.4055212,7.19074 L15.9530212,6.84262 C15.4982212,6.49281 15.0151212,6.20907 14.4935212,5.99531 L13.9640212,5.77832 L13.5656212,3 L10.4398212,3 Z M12.0027212,9.5 C10.6250212,9.5 9.50276116,10.6223 9.50276116,12 C9.50276116,13.3777 10.6250212,14.5 12.0027212,14.5 C13.3804212,14.5 14.5027212,13.3777 14.5027212,12 C14.5027212,10.6223 13.3804212,9.5 12.0027212,9.5 Z M7.50276116,12 C7.50276116,9.51772 9.52048116,7.5 12.0027212,7.5 C14.4850212,7.5 16.5027212,9.51772 16.5027212,12 C16.5027212,14.4823 14.4850212,16.5 12.0027212,16.5 C9.52048116,16.5 7.50276116,14.4823 7.50276116,12 Z"/></svg>