<svg width="24" height="24" viewBox="0 0 24 24" xmlns="http://www.w3.org/2000/svg"><path d="M12.4235,21.7995 C12.5325,21.6755 12.6105,21.2565 12.6105,20.8525 C12.6105,20.5255 12.5635,20.1835 12.4705,20.0435 C12.3671679,20.0442174 12.2638321,20.0442174 12.1605,20.0435 L17.3745,3.9565 C17.4675,3.8165 17.5145,3.4745 17.5145,3.1475 C17.5145,2.7435 17.4365,2.3245 17.3285,2.1995 C17.2245,2.1405 16.3355,2.0815 15.4885,2.0755 L13.5515,2.0755 C12.6655,2.0755 11.6865,2.1375 11.5775,2.1995 C11.4685,2.3245 11.3905,2.7435 11.3905,3.1475 C11.3905,3.4745 11.4375,3.8165 11.5305,3.9565 C11.9965,4.0645 12.6035,4.1895 13.2565,4.2825 L8.3505,19.7335 C7.6975,19.8265 7.0915,19.9345 6.6255,20.0435 C6.5325,20.1835 6.4855,20.5255 6.4855,20.8525 C6.4855,21.2565 6.5635,21.6755 6.6725,21.8005 C6.7755,21.8595 7.6645,21.9185 8.5125,21.9235 L10.4485,21.9245 C11.3345,21.9245 12.3135,21.8625 12.4225,21.8005 L12.4235,21.7995 Z"/></svg>