<svg xmlns="http://www.w3.org/2000/svg" fill="currentColor" viewBox="0 0 24 24">
  <g class="italic">
    <path d="M11.937 22.36c.109-.124.187-.543.187-.947 0-.327-.047-.669-.14-.809a22.327 22.327 0 00-1.725-.31l5.214-16.087a21.742 21.742 0 001.725-.326c.093-.14.14-.482.14-.809 0-.404-.078-.823-.186-.948-.104-.059-.993-.118-1.84-.124h-1.937c-.886 0-1.865.062-1.974.124-.109.125-.187.544-.187.948 0 .327.047.669.14.809.466.108 1.073.233 1.726.326L7.864 20.294c-.653.093-1.259.201-1.725.31-.093.14-.14.482-.14.809 0 .404.078.823.187.948.103.059.992.118 1.84.123l1.936.001c.886 0 1.865-.062 1.974-.124z" class="Vector"/>
  </g>
</svg>
