<svg xmlns="http://www.w3.org/2000/svg" fill="currentColor" viewBox="0 0 24 24">
  <g class="login">
    <path d="M12.193 17.106c.99 0 1.799-.85 1.799-1.888 0-1.039-.81-1.889-1.799-1.889-.989 0-1.798.85-1.798 1.889 0 1.038.81 1.888 1.798 1.888zm5.395-8.497h-.899V6.72C16.689 4.115 14.675 2 12.193 2 9.712 2 7.697 4.115 7.697 6.72V8.61h-.899C5.81 8.609 5 9.459 5 10.497v9.441c0 1.039.81 1.888 1.798 1.888h10.79c.99 0 1.799-.85 1.799-1.888v-9.441c0-1.038-.81-1.888-1.799-1.888zM9.406 6.72c0-1.615 1.25-2.927 2.787-2.927 1.538 0 2.788 1.312 2.788 2.927v1.888H9.406V6.72zm8.182 13.217H6.798v-9.441h10.79v9.441z" class="Vector"/>
  </g>
</svg>
