<svg width="24" height="24" viewBox="0 0 24 24" xmlns="http://www.w3.org/2000/svg"><path d="M18.3722703,14.9998427 C18.5810143,15.5302582 18.6853864,16.12899 18.6853864,16.796038 C18.6853864,17.668045 18.5255184,18.4528512 18.2057826,19.1504567 C17.8860467,19.8480623 17.4306653,20.4487781 16.8396384,20.9526043 C16.2486115,21.4564306 15.521939,21.8439892 14.6596211,22.1152802 C13.7973031,22.3865713 12.8235621,22.5222168 11.7383979,22.5222168 C11.0020365,22.5222168 10.304431,22.464083 9.64558132,22.3478154 C8.98673165,22.2315478 8.38117129,22.0862133 7.82890025,21.911812 C7.2766292,21.7374106 6.78249195,21.5533202 6.34648849,21.3595409 C5.91048503,21.1657616 5.56652675,21.0010492 5.31461364,20.8654037 L5.34368053,20.778203 L5.34368053,16.0693656 L7.49463093,16.0693656 L7.49463093,19.2957912 C8.07596887,19.6058381 8.72997406,19.8625957 9.45664649,20.066064 C10.1833189,20.2695323 10.9148358,20.3712664 11.6511972,20.3712664 C12.290669,20.3712664 12.8913848,20.3082881 13.4533449,20.1823316 C14.0153049,20.056375 14.5045976,19.8529067 14.9212232,19.5719267 C15.3378487,19.2909467 15.6672735,18.9372995 15.9094977,18.510985 C16.1517218,18.0846705 16.2728339,17.5808443 16.2728339,16.9995063 C16.2728339,16.2050111 16.0063873,15.5558504 15.4734942,15.0520242 L15.4146136,14.9997832 L18.3722703,14.9998427 Z M1.953125,13 L1.953125,11 L13.4826136,10.9997832 L13.3080104,10.9245248 L13.483125,10.9997832 L22.046875,11 L22.046875,13 L1.953125,13 Z M12.2034683,1.4777832 C13.3661442,1.4777832 14.4222414,1.56013941 15.3717601,1.72485183 C16.3212787,1.88956425 17.077018,2.10756598 17.6389781,2.37885702 L17.6971119,2.34979012 L17.6971119,2.40792391 L17.7261788,2.40792391 L17.6971119,2.49512461 L17.6971119,7.14582816 L15.5461615,7.14582816 L15.5461615,4.03567016 C15.0617132,3.91940257 14.5288201,3.82251291 13.9474821,3.74500119 C13.3661442,3.66748946 12.7460504,3.6287336 12.0872007,3.6287336 C11.447729,3.6287336 10.8712355,3.70624532 10.3577203,3.86126878 C9.84420512,4.01629223 9.40820166,4.22460499 9.04970993,4.48620707 C8.6912182,4.74780914 8.41508268,5.05301156 8.22130336,5.40181433 C8.02752405,5.7506171 7.93063439,6.11879779 7.93063439,6.50635642 C7.93063439,7.26209575 8.19708095,7.89187852 8.72997406,8.39570474 C8.95295972,8.60652755 9.19884798,8.80801966 9.46763885,9.00018109 L6.04764818,9.00134686 C5.69460401,8.3497174 5.51808192,7.56649875 5.51808192,6.65169091 C5.51808192,5.85719572 5.67794985,5.14021225 5.99768572,4.50074051 C6.31742159,3.86126878 6.7679585,3.31868669 7.34929644,2.87299427 C7.93063439,2.42730185 8.6330844,2.08334356 9.45664649,1.84111942 C10.2802086,1.59889527 11.1958158,1.4777832 12.2034683,1.4777832 Z"/></svg>
