<svg xmlns="http://www.w3.org/2000/svg" fill="currentColor" viewBox="0 0 24 24">
  <g class="strikethrough">
    <path fill-rule="evenodd" d="M16.785 14.275c.214.507.335 1.108.335 1.848 0 3.96-3.461 5.793-6.893 5.793-1.311 0-2.61-.26-3.736-.755l-.209-.096v-2.171c.006-.79.06-1.646.103-1.73.117-.117.513-.176.894-.176.323 0 .646.044.778.117.146.66.307 1.584.395 2.508.675.117 1.408.19 2.127.19 2.273 0 4.429-.777 4.429-3.182 0-1.05-.408-1.75-1.144-2.346h2.921zm2.617-3.456v1.789H4v-1.789h15.402zM12.368 2c1.097 0 2.18.175 3.16.444l.242.07v2.038c-.004.795-.06 1.66-.102 1.745-.117.117-.513.176-.895.176-.322 0-.645-.044-.777-.117-.147-.572-.279-1.379-.381-2.2-.41-.044-.836-.074-1.247-.074-1.994 0-3.916.602-3.916 2.948 0 .953.308 1.555.836 2.024.042.036.086.072.133.109H6.693c-.2-.559-.308-1.21-.308-1.957C6.385 3.32 9.332 2 12.368 2z" class="Vector" clip-rule="evenodd"/>
  </g>
</svg>
