<svg width="24" height="24" viewBox="0 0 24 24" xmlns="http://www.w3.org/2000/svg"><path d="M17.084,14.317 C17.298,14.824 17.419,15.425 17.419,16.165 C17.419,20.125 13.958,21.958 10.526,21.958 C9.215,21.958 7.916,21.698 6.79,21.203 L6.581,21.107 L6.581,18.936 C6.587,18.146 6.641,17.29 6.684,17.206 C6.801,17.089 7.197,17.03 7.578,17.03 C7.901,17.03 8.224,17.074 8.356,17.147 C8.502,17.807 8.663,18.731 8.751,19.655 C9.426,19.772 10.159,19.845 10.878,19.845 C13.151,19.845 15.307,19.068 15.307,16.663 C15.307,15.613 14.899,14.913 14.163,14.317 L17.084,14.317 L17.084,14.317 Z M19.701,10.861 L19.701,12.65 L4.299,12.65 L4.299,10.861 L19.701,10.861 Z M12.667,2.042 C13.764,2.042 14.847,2.217 15.827,2.486 L16.069,2.556 L16.069,4.594 C16.065,5.389 16.009,6.254 15.967,6.339 C15.85,6.456 15.454,6.515 15.072,6.515 C14.75,6.515 14.427,6.471 14.295,6.398 C14.148,5.826 14.016,5.019 13.914,4.198 C13.504,4.154 13.078,4.124 12.667,4.124 C10.673,4.124 8.751,4.726 8.751,7.072 C8.751,8.025 9.059,8.627 9.587,9.096 C9.629,9.132 9.673,9.168 9.72,9.205 L6.992,9.205 C6.792,8.646 6.684,7.995 6.684,7.248 C6.684,3.362 9.631,2.042 12.667,2.042 Z"/></svg>