<svg width="24" height="24" viewBox="0 0 24 24" xmlns="http://www.w3.org/2000/svg"><path d="M22.0028023,19.0028023 C22.0028023,20.6596566 20.6596566,22.0028023 19.0028023,22.0028023 L19.0028023,22.0028023 L4.99719768,22.0028023 C3.34034343,22.0028023 1.99719768,20.6596566 1.99719768,19.0028023 L1.99719768,19.0028023 L1.99719768,4.99719768 C1.99719768,3.34034343 3.34034343,1.99719768 4.99719768,1.99719768 L4.99719768,1.99719768 L19.0028023,1.99719768 C20.6596566,1.99719768 22.0028023,3.34034343 22.0028023,4.99719768 L22.0028023,4.99719768 Z M7.99819768,16.0001977 L3.99619768,16.0001977 L3.99719768,19.0028023 C3.99719768,19.4761892 4.32613134,19.8727496 4.76790686,19.9763916 L4.88057656,19.9960746 L4.99719768,20.0028023 L7.999,20.002 L7.99819768,16.0001977 Z M20.0011977,16.0001977 L16.0001977,16.0001977 L16.0001977,20.0011977 L19.0028023,20.0028023 C19.4761892,20.0028023 19.8727496,19.6738687 19.9763916,19.2320931 L19.9960746,19.1194234 L20.0028023,19.0028023 L20.0011977,16.0001977 Z M13.9991977,16.0001977 L9.99819768,16.0001977 L9.999,20.002 L14,20.002 L13.9991977,16.0001977 Z M7.999,9.999 L3.997,9.999 L3.997,14 L7.999,14 L7.999,9.999 Z M14,9.999 L9.999,9.999 L9.999,14 L14,14 L14,9.999 Z M20.002,9.999 L16.0001977,9.99819768 L16.0001977,13.9991977 L20.002,14 L20.002,9.999 Z M7.999,3.997 L4.99719768,3.99719768 C4.44491293,3.99719768 3.99719768,4.44491293 3.99719768,4.99719768 L3.99719768,4.99719768 L3.997,7.999 L7.999,7.999 L7.999,3.997 Z M14,3.997 L9.999,3.997 L9.999,7.999 L14,7.999 L14,3.997 Z M19.0028023,3.99719768 L16.0001977,3.99619768 L16.0001977,7.99819768 L20.002,7.999 L20.0028023,4.99719768 C20.0028023,4.48436184 19.6167621,4.06169052 19.1194234,4.00392541 L19.1194234,4.00392541 L19.0028023,3.99719768 Z" fill="#333332"/></svg>