<svg width="24" height="24" viewBox="0 0 24 24" xmlns="http://www.w3.org/2000/svg"><path d="M18.785,20.53 L18.785,22.35 L5.215,22.35 L5.215,20.53 L18.785,20.53 Z M7.4588908,1.65079078 C8.16583503,1.65756059 8.89070675,1.70670444 8.97670847,1.75584828 C9.06932572,1.86169656 9.13548089,2.21893451 9.13548089,2.56294142 C9.13548089,2.84079316 9.09578779,3.13187593 9.01640158,3.25095525 C8.61947053,3.3435725 8.09022912,3.44942078 7.54775668,3.52880699 L7.54775668,3.52880699 L7.54775668,11.9437453 C7.54775668,17.1435421 9.83672576,17.474318 11.9536914,17.474318 L11.9536914,17.474318 L12.2282347,17.4721664 C14.4614176,17.4349047 16.4522433,16.8633555 16.4522433,11.9437453 L16.4522433,11.9437453 L16.4522433,3.52880699 C15.8965398,3.44942078 15.3805295,3.3435725 14.9835984,3.25095525 C14.9042122,3.13187593 14.8645191,2.84079316 14.8645191,2.56294142 C14.8645191,2.21893451 14.9306743,1.86169656 15.0232915,1.75584828 C15.1159088,1.70292414 15.949464,1.65 16.703633,1.65 L18.4009568,1.65079078 C19.1079011,1.65756059 19.8327728,1.70670444 19.9187745,1.75584828 C20.0113918,1.86169656 20.0775469,2.21893451 20.0775469,2.56294142 C20.0775469,2.84079316 20.0378538,3.13187593 19.9584676,3.25095525 C19.5615366,3.3435725 19.0322952,3.44942078 18.4898227,3.52880699 L18.4898227,3.52880699 L18.4898227,12.6052971 C18.4898227,18.5592629 14.9571364,19.353125 11.9669224,19.353125 C9.01640158,19.353125 5.51017727,18.585725 5.51017727,12.6052971 L5.51017727,12.6052971 L5.51017727,3.52880699 C4.95447379,3.44942078 4.43846342,3.3435725 4.04153237,3.25095525 C3.96214616,3.13187593 3.92245305,2.84079316 3.92245305,2.56294142 C3.92245305,2.21893451 3.98860823,1.86169656 4.08122548,1.75584828 C4.17384272,1.70292414 5.00739794,1.65 5.76156694,1.65 Z"/></svg>