<svg xmlns="http://www.w3.org/2000/svg" fill="currentColor" viewBox="0 0 24 24">
  <g class="unordered-list">
    <path d="M3.622 10.4C2.724 10.4 2 11.115 2 12c0 .885.724 1.6 1.622 1.6.897 0 1.621-.715 1.621-1.6 0-.885-.724-1.6-1.621-1.6zm0-6.4C2.724 4 2 4.715 2 5.6c0 .885.724 1.6 1.622 1.6.897 0 1.621-.715 1.621-1.6 0-.885-.724-1.6-1.621-1.6zm0 12.8C2.719 16.8 2 17.52 2 18.4c0 .88.73 1.6 1.622 1.6.892 0 1.621-.72 1.621-1.6 0-.88-.719-1.6-1.621-1.6zm3.243 2.667H22v-2.134H6.865v2.134zm0-6.4H22v-2.134H6.865v2.134zm0-8.534v2.134H22V4.533H6.865z" class="Vector"/>
  </g>
</svg>
