<svg width="24" height="24" viewBox="0 0 24 24" xmlns="http://www.w3.org/2000/svg"><g fill="none" fill-rule="evenodd"><path d="M6.000005,13 C7.930005,13 9.500005,14.57 9.500005,16.5 C9.500005,17.513 9.061005,18.418 8.371005,19.059 C9.849005,19.593 11.000005,20.62 11.000005,22 L11.000005,22 L9.000005,22 C9.000005,21.403 7.587005,20.643 6.000005,20.643 C4.413005,20.643 3.000005,21.402 3.000005,22 L3.000005,22 L1.000005,22 C1.000005,20.62 2.151005,19.593 3.629005,19.059 C2.939005,18.418 2.500005,17.513 2.500005,16.5 C2.500005,14.57 4.070005,13 6.000005,13 Z M6.000005,15 C5.173005,15 4.500005,15.673 4.500005,16.5 C4.500005,17.327 5.173005,18 6.000005,18 C6.827005,18 7.500005,17.327 7.500005,16.5 C7.500005,15.673 6.827005,15 6.000005,15 Z" /><polygon points="6.96306667 0 4 2.96306667 1.03693333 0 0 1.03693333 2.96306667 4 0 6.96306667 1.03693333 8 4 5.03693333 6.96306667 8 8 6.96306667 5.03693333 4 8 1.03693333" transform="translate(14 2.5)" /><polygon points="6.96306667 0 4 2.96306667 1.03693333 0 0 1.03693333 2.96306667 4 0 6.96306667 1.03693333 8 4 5.03693333 6.96306667 8 8 6.96306667 5.03693333 4 8 1.03693333" transform="translate(14 13.5)" /><path d="M6.000005,2 C7.929995,2 9.500005,3.57 9.500005,5.5 C9.500005,6.513 9.060995,7.418 8.370995,8.059 C9.848995,8.593 11.000005,9.62 11.000005,11 L11.000005,11 L9.000005,11 C9.000005,10.402 7.586995,9.643 6.000005,9.643 C4.412995,9.643 3.000005,10.402 3.000005,11 L3.000005,11 L1.000005,11 C1.000005,9.62 2.151005,8.593 3.629005,8.059 C2.939005,7.418 2.500005,6.513 2.500005,5.5 C2.500005,3.57 4.069995,2 6.000005,2 Z M5.999995,4 C5.172995,4 4.499995,4.673 4.499995,5.5 C4.499995,6.327 5.172995,7 5.999995,7 C6.826995,7 7.499995,6.327 7.499995,5.5 C7.499995,4.673 6.826995,4 5.999995,4 Z" /></g></svg>
