<svg width="24" height="24" viewBox="0 0 24 24" xmlns="http://www.w3.org/2000/svg"><path d="M6.000005 2C7.929995 2 9.500005 3.57 9.500005 5.5 9.500005 6.513 9.060995 7.418 8.370995 8.059 9.848995 8.593 11.000005 9.62 11.000005 11L11.000005 11 9.000005 11C9.000005 10.402 7.586995 9.643 6.000005 9.643 4.412995 9.643 3.000005 10.402 3.000005 11L3.000005 11 1.000005 11C1.000005 9.62 2.151005 8.593 3.629005 8.059 2.939005 7.418 2.500005 6.513 2.500005 5.5 2.500005 3.57 4.069995 2 6.000005 2ZM5.999995 4C5.172995 4 4.499995 4.673 4.499995 5.5 4.499995 6.327 5.172995 7 5.999995 7 6.826995 7 7.499995 6.327 7.499995 5.5 7.499995 4.673 6.826995 4 5.999995 4ZM17.999995 2C19.929985 2 21.499995 3.57 21.499995 5.5 21.499995 6.513 21.060985 7.418 20.370985 8.059 21.848985 8.593 22.999995 9.62 22.999995 11L22.999995 11 20.999995 11C20.999995 10.402 19.586985 9.643 17.999995 9.643 16.412985 9.643 14.999995 10.402 14.999995 11L14.999995 11 12.999995 11C12.999995 9.62 14.150995 8.593 15.628995 8.059 14.938995 7.418 14.499995 6.513 14.499995 5.5 14.499995 3.57 16.069985 2 17.999995 2ZM17.999985 4C17.172985 4 16.499985 4.673 16.499985 5.5 16.499985 6.327 17.172985 7 17.999985 7 18.826985 7 19.499985 6.327 19.499985 5.5 19.499985 4.673 18.826985 4 17.999985 4ZM6.000005 13C7.930005 13 9.500005 14.57 9.500005 16.5 9.500005 17.513 9.061005 18.418 8.371005 19.059 9.849005 19.593 11.000005 20.62 11.000005 22L11.000005 22 9.000005 22C9.000005 21.403 7.587005 20.643 6.000005 20.643 4.413005 20.643 3.000005 21.402 3.000005 22L3.000005 22 1.000005 22C1.000005 20.62 2.151005 19.593 3.629005 19.059 2.939005 18.418 2.500005 17.513 2.500005 16.5 2.500005 14.57 4.070005 13 6.000005 13ZM6.000005 15C5.173005 15 4.500005 15.673 4.500005 16.5 4.500005 17.327 5.173005 18 6.000005 18 6.827005 18 7.500005 17.327 7.500005 16.5 7.500005 15.673 6.827005 15 6.000005 15ZM17.999995 13C19.929995 13 21.499995 14.57 21.499995 16.5 21.499995 17.513 21.060995 18.418 20.370995 19.059 21.848995 19.593 22.999995 20.62 22.999995 22L20.999995 22C20.999995 21.403 19.586995 20.643 17.999995 20.643 16.412995 20.643 14.999995 21.402 14.999995 22L12.999995 22C12.999995 20.621 14.150995 19.593 15.628995 19.059 14.938995 18.418 14.499995 17.513 14.499995 16.5 14.499995 14.57 16.069995 13 17.999995 13ZM17.999995 15C17.172995 15 16.499995 15.673 16.499995 16.5 16.499995 17.327 17.172995 18 17.999995 18 18.826995 18 19.499995 17.327 19.499995 16.5 19.499995 15.673 18.826995 15 17.999995 15Z" fill-rule="evenodd"/></svg>
