<svg width="24" height="24" viewBox="0 0 24 24" xmlns="http://www.w3.org/2000/svg">
<path fill-rule="evenodd" clip-rule="evenodd" d="M20 5H23V7H20V10H18V7H15V5H18V2H20V5ZM5 10C5 12.205 6.795 14 9 14C11.206 14 13 12.205 13 10C13 7.795 11.205 6 9 6C6.795 6 5 7.795 5 10ZM7 10C7 8.896 7.896 8 9 8C10.104 8 11 8.896 11 10C11 11.103 10.104 12 9 12C7.896 12 7 11.103 7 10ZM1 21V22H17V21C17 17.467 13.711 15 9 15C4.289 15 1 17.467 1 21ZM9.001 17C12.009 17 14.244 18.192 14.843 20H3.159C3.757 18.192 5.993 17 9.001 17Z"/>
<mask id="mask0_103_2169" style="mask-type:luminance" maskUnits="userSpaceOnUse" x="1" y="2" width="22" height="20">
<path fill-rule="evenodd" clip-rule="evenodd" d="M20 5H23V7H20V10H18V7H15V5H18V2H20V5ZM5 10C5 12.205 6.795 14 9 14C11.206 14 13 12.205 13 10C13 7.795 11.205 6 9 6C6.795 6 5 7.795 5 10ZM7 10C7 8.896 7.896 8 9 8C10.104 8 11 8.896 11 10C11 11.103 10.104 12 9 12C7.896 12 7 11.103 7 10ZM1 21V22H17V21C17 17.467 13.711 15 9 15C4.289 15 1 17.467 1 21ZM9.001 17C12.009 17 14.244 18.192 14.843 20H3.159C3.757 18.192 5.993 17 9.001 17Z"/>
</mask>
<g mask="url(#mask0_103_2169)">
</g>
</svg>
