<svg width="24" height="24" viewBox="0 0 24 24" xmlns="http://www.w3.org/2000/svg">
<path fill-rule="evenodd" clip-rule="evenodd" d="M2 12C2 17.515 6.486 22 12 22C17.514 22 22 17.515 22 12C22 6.486 17.514 2 12 2C6.486 2 2 6.486 2 12ZM4 12C4 7.589 7.589 4 12 4C16.411 4 20 7.589 20 12C20 16.411 16.411 20 12 20C7.589 20 4 16.411 4 12ZM13 6V13H11V6H13ZM12 17.25C12.6904 17.25 13.25 16.6904 13.25 16C13.25 15.3096 12.6904 14.75 12 14.75C11.3096 14.75 10.75 15.3096 10.75 16C10.75 16.6904 11.3096 17.25 12 17.25Z"/>
</svg>
