<svg width="24" height="24" viewBox="0 0 24 24" xmlns="http://www.w3.org/2000/svg">
<path fill-rule="evenodd" clip-rule="evenodd" d="M4 4H20C21.103 4 22 4.896 22 6V18C22 19.103 21.103 20 20 20H4C2.897 20 2 19.103 2 18V6C2 4.896 2.897 4 4 4ZM4 6V18H20.001L20 6H4ZM13 8H16.0347C16.9442 8 17.6844 8.44917 18.2005 9.17147C18.7166 9.89378 19 10.8953 19 11.9879C19 12.9833 18.7673 13.9848 18.2851 14.7375C17.8029 15.4901 17.0753 16 16.0812 16H13V8ZM15.0467 14H15V10C15.4482 10 16.3744 10.0334 16.6203 10.4522C16.8662 10.871 17 11.4355 17 11.9939C17 12.4795 16.9035 13.0501 16.6825 13.4871C16.4585 13.9302 15.5447 14 15.0467 14ZM7.06801 14.6457L6.65338 16.0352H5L7.31883 8.24215H9.60183L11.9258 16.0352H10.2417L9.82706 14.6457H7.06801ZM8.44497 10.016L9.31518 12.9487H7.57477L8.44497 10.016Z"/>
</svg>
