<svg width="24" height="24" viewBox="0 0 24 24" fill="none" xmlns="http://www.w3.org/2000/svg">
<path d="M18.498 10.498C18.498 9.43999 17.834 8.53799 16.901 8.17399C16.604 6.80099 15.63 5.89699 14.998 5.44599V4.99799C14.998 3.79199 14.199 1.99799 11.998 1.99799C9.79705 1.99799 8.99805 3.79199 8.99805 4.99799V5.44699C8.36505 5.89699 7.39205 6.80099 7.09505 8.17499C6.16205 8.53699 5.49805 9.43999 5.49805 10.498C5.49805 11.063 5.69305 11.58 6.01105 11.998H5.99805V18.998C5.99805 20.653 7.34405 21.998 8.99805 21.998H14.998C16.652 21.998 17.998 20.653 17.998 18.998V11.998H17.985C18.303 11.579 18.498 11.063 18.498 10.498ZM7.99805 9.99799H15.998C16.273 9.99799 16.498 10.224 16.498 10.498C16.498 10.774 16.273 10.998 15.998 10.998H7.99805C7.72305 10.998 7.49805 10.774 7.49805 10.498C7.49805 10.223 7.72305 9.99799 7.99805 9.99799ZM10.445 6.89399C10.784 6.72399 10.998 6.37699 10.998 5.99799V5.00999C11.01 4.54899 11.193 3.99799 11.998 3.99799C12.803 3.99799 12.986 4.54899 12.998 4.99799V5.99799C12.998 6.37299 13.213 6.71799 13.545 6.88999C13.556 6.89499 14.295 7.28599 14.715 7.99799H9.28105C9.70105 7.28499 10.439 6.89599 10.445 6.89399ZM14.998 19.998H8.99805C8.44705 19.998 7.99805 19.549 7.99805 18.998V12.998H15.998V13.998H12.998V15.998H15.998V16.998H12.998V18.998H15.998C15.998 19.549 15.549 19.998 14.998 19.998Z" fill="#333332"/>
</svg>
