<svg width="24" height="24" viewBox="0 0 24 24" xmlns="http://www.w3.org/2000/svg">
<path fill-rule="evenodd" clip-rule="evenodd" d="M5 6C3.40235 5.15457 2.99105 4.00895 4 3C5 2 5.09576 2 6 2H8L9 3V4H15V2H19V4H16.7997L18.0659 7.08711C18.3685 7.02992 18.6808 7 19 7C21.7614 7 24 9.23858 24 12C24 14.7614 21.7614 17 19 17C16.2808 17 14.0686 14.8294 14.0016 12.1264L7 6V5V4H6C5.5403 4 5 6 5 6ZM16.2156 7.8464C15.4981 8.32833 14.9124 8.99125 14.5237 9.76977L10 6H15.4583L16.2156 7.8464ZM0 12C0 14.7614 2.23858 17 5 17C7.76142 17 10 14.7614 10 12C10 9.23858 7.76142 7 5 7C2.23858 7 0 9.23858 0 12ZM5 15C6.65685 15 8 13.6569 8 12C8 10.3431 6.65685 9 5 9C3.34315 9 2 10.3431 2 12C2 13.6569 3.34315 15 5 15ZM19 15C20.6569 15 22 13.6569 22 12C22 10.3431 20.6569 9 19 9C17.3431 9 16 10.3431 16 12C16 13.6569 17.3431 15 19 15ZM23.0152 16.7118C23.6488 17.2599 24 17.8646 24 18.5C24 20.9853 18.6274 23 12 23C5.37258 23 0 20.9853 0 18.5C0 17.8593 0.357094 17.2498 1.00072 16.6981L2.30235 18.2166C2.15239 18.3451 2.07345 18.4304 2.03434 18.4726C2.03434 18.4726 2.03434 18.4726 2.03433 18.4726C2.00842 18.5006 2 18.5097 2 18.5C2 18.6305 2.67915 19.2326 4.21697 19.8093C6.21279 20.5578 9.001 21 12 21C14.999 21 17.7872 20.5578 19.783 19.8093C21.3209 19.2326 22 18.6305 22 18.5C22 18.5103 21.9915 18.5011 21.9647 18.4722C21.9261 18.4306 21.8498 18.3482 21.7067 18.2244L23.0152 16.7118Z"/>
</svg>
