<svg width="24" height="24" viewBox="0 0 24 24" xmlns="http://www.w3.org/2000/svg">
<path fill-rule="evenodd" clip-rule="evenodd" d="M5 7C3.40235 6.15457 2.99105 5.00895 4 4C5 3 5.09576 3 6 3H8L9 4V5H15V3H19V5H16.7997L18.0659 8.08711C18.3685 8.02992 18.6808 8 19 8C21.7614 8 24 10.2386 24 13C24 15.7614 21.7614 18 19 18C16.2808 18 14.0686 15.8294 14.0016 13.1264L7 7V6V5H6C5.5403 5 5 7 5 7ZM16.2156 8.8464C15.4981 9.32833 14.9124 9.99125 14.5237 10.7698L10 7H15.4583L16.2156 8.8464ZM0 13C0 15.7614 2.23858 18 5 18C7.76142 18 10 15.7614 10 13C10 10.2386 7.76142 8 5 8C2.23858 8 0 10.2386 0 13ZM5 16C6.65685 16 8 14.6569 8 13C8 11.3431 6.65685 10 5 10C3.34315 10 2 11.3431 2 13C2 14.6569 3.34315 16 5 16ZM19 16C20.6569 16 22 14.6569 22 13C22 11.3431 20.6569 10 19 10C17.3431 10 16 11.3431 16 13C16 14.6569 17.3431 16 19 16ZM1 19C0.447715 19 0 19.4477 0 20C0 20.5523 0.447716 21 1 21H23C23.5523 21 24 20.5523 24 20C24 19.4477 23.5523 19 23 19H1Z"/>
</svg>
