<svg width="24" height="24" viewBox="0 0 24 24" xmlns="http://www.w3.org/2000/svg">
<path fill-rule="evenodd" clip-rule="evenodd" d="M4 1.99902H20C20.552 1.99902 21 2.44702 21 2.99902V20.999C21 21.552 20.552 21.999 20 21.999H15C14.448 21.999 14 21.552 14 20.999V18.999C14 17.897 13.103 16.999 12 16.999C10.897 16.999 10 17.897 10 18.999L9.999 21C9.999 21.553 9.551 21.999 8.999 21.999H4C3.448 21.999 3 21.552 3 20.999V2.99902C3 2.44802 3.448 1.99902 4 1.99902ZM16 19.999H19V3.99902H5V19.999H8V18.999C8 16.794 9.794 14.999 12 14.999C14.206 14.999 16 16.794 16 18.999V19.999ZM8 8.99902H10C10.552 8.99902 11 8.55202 11 7.99902V6.99902C11 6.44802 10.552 5.99902 10 5.99902H8C7.448 5.99902 7 6.44802 7 6.99902V7.99902C7 8.55102 7.447 8.99902 8 8.99902ZM16 8.99902H14C13.447 8.99902 13 8.55102 13 7.99902V6.99902C13 6.44802 13.448 5.99902 14 5.99902H16C16.552 5.99902 17 6.44802 17 6.99902V7.99902C17 8.55202 16.552 8.99902 16 8.99902ZM8 13.999H10C10.552 13.999 11 13.552 11 12.999V11.999C11 11.448 10.552 10.999 10 10.999H8C7.448 10.999 7 11.448 7 11.999V12.999C7 13.551 7.447 13.999 8 13.999ZM16 13.999H14C13.447 13.999 13 13.551 13 12.999V11.999C13 11.448 13.448 10.999 14 10.999H16C16.552 10.999 17 11.448 17 11.999V12.999C17 13.552 16.552 13.999 16 13.999Z"/>
</svg>
