<svg width="24" height="24" viewBox="0 0 24 24" xmlns="http://www.w3.org/2000/svg">
<path fill-rule="evenodd" clip-rule="evenodd" d="M14.553 15.895C14.694 15.965 14.848 16 15 16C15.212 16 15.423 15.932 15.6 15.8L19.35 12.988C21.944 12.809 24 10.64 24 8V6C24 3.243 21.757 1 19 1H13C10.771 1 8.792 2.497 8.188 4.641L10.113 5.184C10.475 3.898 11.663 3 13 3H19C20.654 3 22 4.346 22 6V8C22 9.654 20.654 11 19 11C18.784 11 18.573 11.07 18.4 11.2L16 13V12C16 11.448 15.552 11 15 11H13V13H14V15C14 15.379 14.214 15.726 14.553 15.895ZM8 15C5.794 15 4 13.206 4 11C4 8.795 5.794 7 8 7C10.206 7 12 8.795 12 11C12 13.206 10.206 15 8 15ZM8 9C6.897 9 6 9.896 6 11C6 12.103 6.897 13 8 13C9.103 13 10 12.103 10 11C10 9.896 9.103 9 8 9ZM0 23V22C0 18.467 3.29 16 8 16C12.71 16 16 18.467 16 22V23H0ZM13.842 21H2.159C2.757 19.192 4.993 18 8.001 18C11.009 18 13.244 19.192 13.842 21Z"/>
</svg>
