<svg width="24" height="24" viewBox="0 0 24 24" xmlns="http://www.w3.org/2000/svg"><path d="M11.994,22 C11.8326511,22 11.6662623,21.9958892 11.5009292,21.9877631 C11.3975737,21.9826902 11.2939486,21.9759935 11.1907653,21.9677305 C11.180697,21.9669235 11.1713864,21.9661641 11.1620795,21.965392 C11.1099483,21.9610713 11.0571598,21.9562746 11.0044915,21.9510692 C10.9562031,21.9462938 10.9086106,21.9412425 10.861119,21.9358584 C10.8226269,21.931496 10.7838744,21.9268741 10.7451906,21.9220312 C10.6933799,21.9155444 10.6417995,21.9086763 10.5903449,21.9014166 C10.5438606,21.8948579 10.4975263,21.887987 10.4512968,21.8807995 C10.4058818,21.873737 10.3608789,21.8664218 10.3159779,21.8588072 C10.2637082,21.8499468 10.2108915,21.8405533 10.15822,21.830747 C10.1245504,21.8244772 10.0912798,21.8181055 10.0580682,21.8115695 C10.0038705,21.800903 9.94988884,21.7898112 9.89606779,21.7782864 C9.85052035,21.768534 9.80492271,21.7584337 9.75944329,21.7480232 C9.72091823,21.7392056 9.6822409,21.7301083 9.64365089,21.7207871 C9.60272223,21.7109001 9.56210356,21.7008153 9.52158381,21.6904831 C9.46163575,21.6751967 9.40191015,21.6593704 9.34240654,21.643008 C9.30864127,21.6337233 9.27492018,21.6242582 9.2412717,21.6146212 C9.20233045,21.6034691 9.16332729,21.5920391 9.12442377,21.5803786 C9.07220944,21.5647261 9.02055702,21.54878 8.9690852,21.5324285 C8.93197161,21.5206396 8.89465692,21.5085424 8.85743907,21.4962325 C8.80646554,21.4793722 8.75578078,21.4621504 8.70528058,21.4445349 C8.66775973,21.4314481 8.63008592,21.4180516 8.59251692,21.4044365 C8.54331924,21.3866049 8.49466274,21.3685357 8.44618672,21.3501003 C8.41653161,21.3388227 8.38687982,21.327383 8.35729663,21.3158065 C8.21075814,21.2584659 8.06572832,21.1976895 7.92248094,21.1336421 C7.89759464,21.1225135 7.87328564,21.1115254 7.84902866,21.1004431 C7.79632387,21.0763686 7.74320189,21.0515328 7.69033671,21.0262462 C7.66008074,21.011773 7.63017911,20.9972847 7.600361,20.9826524 C7.47339923,20.9203504 7.34791224,20.8554144 7.22401063,20.7879345 C7.11217648,20.7270317 7.0013482,20.6638862 6.89187017,20.5987094 C6.58589721,20.4165359 6.29076554,20.2187151 6.0072916,20.0061909 C5.89774298,19.924061 5.7899293,19.8397303 5.68392215,19.7532689 C5.65063141,19.7261173 5.61738316,19.698642 5.58431658,19.6709568 C5.54142587,19.6350457 5.49890713,19.5988391 5.45669755,19.5622849 C5.42632701,19.5359866 5.39567795,19.5091194 5.36519535,19.4820687 C5.33285028,19.4533646 5.30077208,19.4245263 5.26888244,19.3954845 C5.24181861,19.3708377 5.21487497,19.3460298 5.18806854,19.3210765 C5.15551416,19.2907757 5.12278303,19.259898 5.09026139,19.228803 C5.05576565,19.1958173 5.02185881,19.1629346 4.98818551,19.1298151 C4.95745483,19.0995918 4.92669054,19.0689411 4.89612577,19.0380925 C4.86834705,19.0100547 4.84085522,18.9819796 4.81352829,18.9537438 C4.77455398,18.9134736 4.73590086,18.8728614 4.69758793,18.831927 C4.66885777,18.801232 4.64020804,18.7702342 4.61175302,18.7390558 C4.59547738,18.7212213 4.57947622,18.7035619 4.56353747,18.6858453 C4.51588148,18.632877 4.4685746,18.5791548 4.42183991,18.5249254 C4.40740058,18.5081714 4.39285701,18.4911821 4.37836956,18.4741436 C4.33548944,18.4237106 4.293245,18.3730228 4.25149617,18.3219144 C4.23719146,18.3044018 4.22309364,18.2870245 4.20905309,18.2695991 C4.17006996,18.221221 4.13134314,18.1722336 4.09306821,18.1228782 C4.06987287,18.0929651 4.04712273,18.0632853 4.02453587,18.033475 C4.00252794,18.0044322 3.98033687,17.9748089 3.95830696,17.9450591 C3.92439748,17.8992617 3.89117503,17.8535916 3.85833206,17.8076317 C3.83618916,17.7766491 3.81389139,17.7450654 3.79177275,17.7133476 C3.759619,17.6672344 3.72813439,17.6212694 3.69702583,17.5750304 C3.62091482,17.4619023 3.54702064,17.3470784 3.47544381,17.2306768 C3.45892426,17.2038126 3.44246463,17.176759 3.4261302,17.1496214 C3.4049331,17.1144037 3.38403581,17.0791968 3.36334929,17.0438515 C3.29480237,16.9267404 3.22840896,16.8078087 3.1644043,16.6874136 C2.95499631,16.293524 2.77110352,15.8838267 2.61501247,15.4606705 C2.6123941,15.4535713 2.60992572,15.4468564 2.60746434,15.4401382 L2.5488253,15.2756172 C2.19319466,14.2493704 2,13.1472447 2,12 C2,6.57075763 6.32666837,2.1520682 11.720095,2.0038418 L12,2 L12,2 C17.5228,2 22,6.47715 22,12 C22,17.5228 17.5228,22 12,22 L11.994,22 Z M11.999,4 C7.58172,4 4,7.58172 4,12 C4,13.0593718 4.2059103,14.0706482 4.57989124,14.9959902 L12,13 L11.999,4 Z"/></svg>