<svg width="24" height="24" viewBox="0 0 24 24" xmlns="http://www.w3.org/2000/svg"><path d="M12,2 C12.1084222,2 12.2164415,2.00172552 12.3240318,2.00515059 L12,2 C12.1194064,2 12.238324,2.00209285 12.3567181,2.00624387 C12.4437067,2.00929703 12.530036,2.0134383 12.6160715,2.01866741 C12.6531573,2.02092015 12.6905299,2.02339959 12.7278459,2.02608378 C12.7909563,2.03062528 12.8536077,2.03572547 12.9160932,2.04140048 C12.955982,2.04502247 12.995992,2.04889815 13.0359324,2.0530089 C13.0924753,2.05882899 13.1487801,2.06510838 13.2049419,2.07185328 C13.255872,2.07797075 13.3065191,2.0844486 13.3570463,2.09130384 C13.4024777,2.09746561 13.4482576,2.10399921 13.4939364,2.11084177 C13.5438741,2.11832361 13.5934378,2.12613282 13.6428791,2.1343047 C13.6710066,2.13895377 13.6990838,2.14371836 13.7271209,2.14859972 C13.8369681,2.16772371 13.9462685,2.18865453 14.0549215,2.21134878 C14.1126219,2.2234005 14.1701589,2.2359539 14.2275084,2.24900026 C14.2524212,2.2546681 14.2771209,2.2603871 14.3017853,2.26619741 C14.3627661,2.28056178 14.4237072,2.29552928 14.4844258,2.31105252 C14.5377748,2.32469235 14.590835,2.33872917 14.6437204,2.35318926 C14.6998859,2.36854534 14.7559892,2.38441827 14.8118896,2.40076623 C14.8336329,2.40712514 14.8552871,2.41353843 14.8769106,2.42002293 C14.9620116,2.44554355 15.0466041,2.47215675 15.1307036,2.49985553 C15.1426732,2.5037978 15.1546293,2.50776088 15.1665753,2.51174588 C15.2292415,2.53264999 15.2916846,2.55417639 15.3538444,2.57630037 C15.4220511,2.60057548 15.4900503,2.62562101 15.5576978,2.6513797 C15.7108379,2.7096938 15.8620866,2.77162374 16.0114284,2.83709772 C16.0307316,2.84556025 16.0501142,2.85413166 16.0694643,2.86276273 C16.1382591,2.89344872 16.2066056,2.92487093 16.2745319,2.95703593 C16.3020243,2.97005455 16.3294008,2.983172 16.3567079,2.99641003 C16.4234771,3.02877826 16.4898692,3.06188643 16.5558364,3.09570614 C16.571555,3.10376485 16.5871771,3.11182637 16.6027752,3.11992779 C16.6662161,3.15287763 16.729305,3.18651234 16.7919864,3.22079878 C16.8260784,3.2394457 16.8603005,3.25842626 16.8943987,3.27760097 C17.1412268,3.41641243 17.3812968,3.56521393 17.6143274,3.72359934 C17.6389181,3.74031216 17.663624,3.75726586 17.6882495,3.7743273 C17.7498853,3.81703257 17.8108466,3.86028833 17.871297,3.90420461 C17.8881179,3.91642401 17.905107,3.92884757 17.9220554,3.94132332 C18.055667,4.03967855 18.1866164,4.14117292 18.3149204,4.24578826 C18.3377593,4.26441064 18.360475,4.28309917 18.3831064,4.3018856 L18.3985007,4.31469034 C18.5385899,4.43145074 18.675437,4.55196932 18.8088871,4.67609121 C18.839493,4.70456063 18.8695488,4.73286541 18.8994284,4.7613533 C18.9437885,4.80364359 18.9880622,4.84663602 19.0319364,4.89003163 C19.0545788,4.91242643 19.0772186,4.93503315 19.09975,4.95774742 C19.1425713,5.00091909 19.1847602,5.04422688 19.2265569,5.087913 C19.2566797,5.11939431 19.2869446,5.15144301 19.3169988,5.18369062 C19.3426223,5.21118677 19.3677734,5.23847712 19.3927738,5.26590713 C19.4332537,5.31031619 19.4736843,5.35548431 19.5137075,5.40101924 C19.628255,5.53136153 19.7389873,5.66410518 19.8462797,5.79969548 C19.8786769,5.84063315 19.911061,5.88222248 19.9431218,5.92407254 C19.9760231,5.96701855 20.008656,6.01033647 20.0409429,6.05392613 C20.0588687,6.07812956 20.0764259,6.10205641 20.093879,6.12606391 C20.1343051,6.18166646 20.1744428,6.23809055 20.2140054,6.29494484 C20.2229793,6.30784038 20.2320485,6.32093934 20.2410872,6.33406095 C21.350492,7.94460563 22,9.8964529 22,12 C22,17.5228 17.5228,22 12,22 C6.47715,22 2,17.5228 2,12 C2,6.47715 6.47715,2 12,2 Z M12,4 C7.58172,4 4,7.58172 4,12 C4,16.4183 7.58172,20 12,20 C16.4183,20 20,16.4183 20,12 C20,10.3731173 19.5143815,8.85965809 18.6801908,7.59667167 L12,13 L12,4 L12,4 Z"/></svg>