<svg width="24" height="24" viewBox="0 0 24 24" xmlns="http://www.w3.org/2000/svg">
<path fill-rule="evenodd" clip-rule="evenodd" d="M7.00101 2H19.001C20.104 2 21.001 2.896 21.001 4V20C21.001 21.103 20.104 22 19.001 22H7.00101C5.89801 22 5.00101 21.103 5.00101 20V18H3.00101V16H5.00101V13H3.00101V11H5.00101V8H3.00101V6H5.00101V4C5.00101 2.896 5.89801 2 7.00101 2ZM7.00101 18V20H19.002L19.001 4H7.00101V6H8.00101V8H7.00101V11H8.00101V13H7.00101V16H8.00101V18H7.00101ZM10.001 16C10.001 14.159 11.16 13 13.001 13C14.842 13 16.001 14.159 16.001 16H10.001ZM13.001 12C14.1056 12 15.001 11.1046 15.001 10C15.001 8.89543 14.1056 8 13.001 8C11.8964 8 11.001 8.89543 11.001 10C11.001 11.1046 11.8964 12 13.001 12Z"/>
</svg>
