<svg width="24" height="24" viewBox="0 0 24 24" xmlns="http://www.w3.org/2000/svg">
<path fill-rule="evenodd" clip-rule="evenodd" d="M2 6V18H12V20H2C0.897 20 0 19.103 0 18V2C0 0.897 0.897 0 2 0H20C21.103 0 22 0.897 22 2V9H19.999V6H2ZM2 2H5V4H2V2ZM7 4H10V2H7V4ZM20 4V2H12V4H20ZM24 15.994C24 15.442 23.552 14.994 23 14.994C23 12.789 21.206 10.994 19 10.994C16.794 10.994 15 12.789 15 14.994C14.448 14.994 14 15.442 14 15.994V22.994C14 23.546 14.448 23.994 15 23.994H23C23.552 23.994 24 23.546 24 22.994V15.994ZM19 12.994C17.897 12.994 17 13.891 17 14.994H21C21 13.891 20.103 12.994 19 12.994ZM22 21.994V16.994H16V21.994H22ZM19.7071 18.2929C20.0976 18.6834 20.0976 19.3166 19.7071 19.7071C19.3166 20.0976 18.6834 20.0976 18.2929 19.7071C17.9024 19.3166 17.9024 18.6834 18.2929 18.2929C18.6834 17.9024 19.3166 17.9024 19.7071 18.2929Z"/>
</svg>
