<svg width="24" height="24" viewBox="0 0 24 24" xmlns="http://www.w3.org/2000/svg"><path d="M15,6 C14.4477,6 14,5.55229 14,5 C14,4.44772 14.4477,4 15,4 L19,4 C19.5523,4 20,4.44772 20,5 L20,9 C20,9.55229 19.5523,10 19,10 C18.4477,10 18,9.55229 18,9 L18,7.41421 L15.7071,9.70711 C15.3166,10.0976 14.6834,10.0976 14.2929,9.70711 C13.9024,9.31658 13.9024,8.68342 14.2929,8.29289 L16.5858,6 L15,6 Z M5,14 C5.55228,14 6,14.4477 6,15 L6,16.5858 L8.29289,14.2929 C8.68342,13.9024 9.31658,13.9024 9.70711,14.2929 C10.0976,14.6834 10.0976,15.3166 9.70711,15.7071 L7.41421,18 L9,18 C9.55228,18 10,18.4477 10,19 C10,19.5523 9.55228,20 9,20 L5,20 C4.73478,20 4.48043,19.8946 4.29289,19.7071 C4.10536,19.5196 4,19.2652 4,19 L4,15 C4,14.4477 4.44772,14 5,14 Z"/></svg>