<svg width="24" height="24" viewBox="0 0 24 24" xmlns="http://www.w3.org/2000/svg">
<path d="M9.64026 10.599C9.01296 9.93648 8.2056 9.4443 7.298 9.19798C8.301 8.71298 9 7.69298 9 6.50598C9 4.85198 7.654 3.50598 6 3.50598C4.346 3.50598 3 4.85198 3 6.50598C3 7.69398 3.699 8.71298 4.702 9.19798C2.576 9.77398 1 11.701 1 14.006V16.006C1 16.559 1.447 17.006 2 17.006H3V20.006C3 20.559 3.447 21.006 4 21.006H6.00195C6.00195 20.6222 5.97307 20.2476 5.94513 19.8853C5.92183 19.5831 5.89918 19.2895 5.89449 19.006H5V16.006C5 15.454 4.553 15.006 4 15.006H3V14.006C3 12.352 4.346 11.006 6 11.006C6.82036 11.006 7.56495 11.3371 8.10713 11.8727C8.52638 11.3524 9.04761 10.9177 9.64026 10.599ZM7 6.50598C7 7.05698 6.551 7.50598 6 7.50598C5.449 7.50598 5 7.05698 5 6.50598C5 5.95498 5.45 5.50598 6 5.50598C6.551 5.50598 7 5.95498 7 6.50598Z"/>
<path d="M19.3 9.19798C21.426 9.77498 23.002 11.701 23.002 14.006V16.006C23.002 16.559 22.555 17.006 22.002 17.006H21.002V20.006C21.002 20.559 20.555 21.006 20.002 21.006H18.0019C18.0019 20.6221 18.0309 20.2475 18.0588 19.885C18.0822 19.583 18.1049 19.2893 18.1096 19.006H19.002V16.006C19.002 15.454 19.449 15.006 20.002 15.006H21.002V14.006C21.002 12.352 19.656 11.006 18.002 11.006C17.1821 11.006 16.438 11.3367 15.8959 11.8716C15.4764 11.3514 14.955 10.9167 14.3621 10.5982C14.9893 9.93579 15.7965 9.44383 16.704 9.19798C15.701 8.71298 15.002 7.69398 15.002 6.50598C15.002 4.85198 16.348 3.50598 18.002 3.50598C19.656 3.50598 21.002 4.85198 21.002 6.50598C21.002 7.69298 20.303 8.71298 19.3 9.19798ZM19.002 6.50598C19.002 5.95498 18.553 5.50598 18.002 5.50598C17.452 5.50598 17.002 5.95498 17.002 6.50598C17.002 7.05698 17.451 7.50598 18.002 7.50598C18.553 7.50598 19.002 7.05698 19.002 6.50598Z"/>
<path d="M15.002 15.006C15.002 16.004 14.508 16.883 13.756 17.429C15.081 18.081 16.002 19.433 16.002 21.006V22.006C16.002 22.559 15.555 23.006 15.002 23.006H9.00195C8.44895 23.006 8.00195 22.559 8.00195 22.006V21.006C8.00195 19.433 8.92395 18.081 10.248 17.429C9.51519 16.897 9.0274 16.0487 9.00292 15.0824C9.00228 15.057 9.00195 15.0315 9.00195 15.006C9.00195 13.352 10.348 12.006 12.002 12.006C13.656 12.006 15.002 13.352 15.002 15.006ZM13.002 15.006C13.002 14.455 12.553 14.006 12.002 14.006C11.452 14.006 11.002 14.455 11.002 15.006C11.002 15.557 11.451 16.006 12.002 16.006C12.553 16.006 13.002 15.557 13.002 15.006ZM12.002 19.006C10.898 19.006 10.002 19.902 10.002 21.006H14.002C14.002 19.902 13.106 19.006 12.002 19.006Z"/>
</svg>
