<svg width="24" height="24" viewBox="0 0 24 24" xmlns="http://www.w3.org/2000/svg">
<path fill-rule="evenodd" clip-rule="evenodd" d="M5.133 3H15.133V7H19.133V8H21.133V5.586L16.547 1H5.133C4.03 1 3.133 1.898 3.133 3V8H5.133V3ZM19.133 21H5.133V20H3.133V21C3.133 22.103 4.03 23 5.133 23H19.133C20.236 23 21.133 22.103 21.133 21V20H19.133V21ZM10.133 18V10H12.133V16H15.133V18H10.133ZM18.633 12H22.133V10H18.633C17.255 10 16.133 11.122 16.133 12.5C16.133 13.878 17.255 15 18.633 15H19.633C19.909 15 20.133 15.225 20.133 15.5C20.133 15.775 19.909 16 19.633 16H16.133V18H19.633C21.011 18 22.133 16.878 22.133 15.5C22.133 14.122 21.011 13 19.633 13H18.633C18.357 13 18.133 12.775 18.133 12.5C18.133 12.225 18.357 12 18.633 12ZM5.566 15.944L4.333 18H2L4.4 14L2 10H4.333L5.566 12.056L6.8 10H9.133L6.732 14L9.133 18H6.8L5.566 15.944Z"/>
</svg>
