<svg width="24" height="24" viewBox="0 0 24 24" xmlns="http://www.w3.org/2000/svg">
<path fill-rule="evenodd" clip-rule="evenodd" d="M15.001 4V2H22.001V9H20.001V5.414L17.168 8.247C17.692 9.037 18.001 9.982 18.001 11C18.001 13.757 15.758 16 13.001 16V14C14.655 14 16.001 12.654 16.001 11C16.001 9.346 14.655 8 13.001 8V6C14.019 6 14.963 6.31 15.754 6.833L18.587 4H15.001ZM13.001 11C13.001 8.243 10.758 6 8.00101 6C5.24401 6 3.00101 8.243 3.00101 11C3.00101 13.414 4.72201 15.435 7.00101 15.898V19H5.00101V21H7.00101V23H9.00101V21H11.001V19H9.00101V15.898C11.28 15.435 13.001 13.414 13.001 11ZM5.00101 11C5.00101 9.346 6.34701 8 8.00101 8C9.65501 8 11.001 9.346 11.001 11C11.001 12.654 9.65501 14 8.00101 14C6.34701 14 5.00101 12.654 5.00101 11Z"/>
</svg>
