<svg width="24" height="24" viewBox="0 0 24 24" xmlns="http://www.w3.org/2000/svg">
<path fill-rule="evenodd" clip-rule="evenodd" d="M4.104 9C4.043 8.662 4 8.327 4 8C4 5.57 5.57 4 8 4C9.289 4 10.352 4.938 10.787 6H13.213C13.648 4.938 14.711 4 16 4C18.43 4 20 5.57 20 8C20 8.653 19.867 9.324 19.65 10H21.712C21.885 9.332 22 8.663 22 8C22 4.467 19.533 2 16 2C14.406 2 12.93 2.837 12 4.08C11.07 2.837 9.594 2 8 2C4.467 2 2 4.467 2 8C2 8.332 2.038 8.666 2.084 9H4.104ZM11.995 19.71C10.957 18.843 9.537 17.527 8.18 16H5.559C8.122 19.22 11.166 21.619 11.387 21.79C11.566 21.93 11.783 22 12 22C12.217 22 12.434 21.93 12.613 21.79C12.81 21.637 15.261 19.706 17.609 17H14.896C13.729 18.202 12.641 19.165 11.995 19.71ZM17.208 13.659L19.697 12H23V14H20.303L16.792 16.341L12.917 11.498L9 15.415L6 12.415L4.414 14H1V12H3.586L6 9.586L9 12.586L13.083 8.503L17.208 13.659Z"/>
</svg>
