<svg width="24" height="24" viewBox="0 0 24 24" xmlns="http://www.w3.org/2000/svg">
<path fill-rule="evenodd" clip-rule="evenodd" d="M22 11H15V7C15 6.448 14.553 6 14 6H13.899C13.965 5.677 14 5.343 14 5C14 2.237 11.762 0 9 0C6.238 0 4 2.237 4 5C4 5.343 4.035 5.677 4.101 6H4C3.447 6 3 6.448 3 7V22C3 22.552 3.447 23 4 23H22C22.553 23 23 22.552 23 22V12C23 11.448 22.553 11 22 11ZM6 12V14H12V12H6ZM6 15V17H12V15H6ZM8 4H6V6H6.083H8V8H10V6H12V4H10V2H8V4ZM5 8H5.023C5.936 9.208 7.369 10 9 10C10.631 10 12.064 9.208 12.977 8H13V21H10V19H8V21H5V8ZM15 21H21V13H15V21ZM16 17H20V19H16V17ZM20 14H16V16H20V14Z"/>
</svg>
