<svg width="24" height="24" viewBox="0 0 24 24" xmlns="http://www.w3.org/2000/svg">
<path fill-rule="evenodd" clip-rule="evenodd" d="M18 1H8.99999C7.89599 1 6.99999 1.896 6.99999 3V5H8.99999V3H18C18.551 3 19 3.449 19 4V18H18V17H16V21H18V20H19V23H21V4C21 2.346 19.654 1 18 1ZM8.7071 7.29289C9.09763 7.68341 9.09763 8.31658 8.7071 8.7071C8.31658 9.09762 7.68341 9.09762 7.29289 8.7071C6.90237 8.31658 6.90237 7.68341 7.29289 7.29289C7.68342 6.90237 8.31658 6.90237 8.7071 7.29289ZM6.7071 11.2071C7.09763 10.8166 7.09763 10.1834 6.7071 9.79289C6.31658 9.40237 5.68342 9.40237 5.29289 9.79289C4.90237 10.1834 4.90237 10.8166 5.29289 11.2071C5.68341 11.5976 6.31658 11.5976 6.7071 11.2071ZM10.7071 9.79289C11.0976 10.1834 11.0976 10.8166 10.7071 11.2071C10.3166 11.5976 9.6834 11.5976 9.29288 11.2071C8.90236 10.8166 8.90236 10.1834 9.29288 9.79289C9.68341 9.40237 10.3166 9.40237 10.7071 9.79289ZM8.7071 13.7071C9.09763 13.3166 9.09763 12.6834 8.7071 12.2929C8.31658 11.9024 7.68342 11.9024 7.29289 12.2929C6.90237 12.6834 6.90237 13.3166 7.29289 13.7071C7.68341 14.0976 8.31658 14.0976 8.7071 13.7071ZM4.7071 12.2929C5.09763 12.6834 5.09763 13.3166 4.7071 13.7071C4.31658 14.0976 3.68341 14.0976 3.29289 13.7071C2.90237 13.3166 2.90237 12.6834 3.29289 12.2929C3.68342 11.9024 4.31658 11.9024 4.7071 12.2929ZM12.7071 13.7071C13.0976 13.3166 13.0976 12.6834 12.7071 12.2929C12.3166 11.9024 11.6834 11.9024 11.2929 12.2929C10.9024 12.6834 10.9024 13.3166 11.2929 13.7071C11.6834 14.0976 12.3166 14.0976 12.7071 13.7071Z"/>
</svg>
