<svg width="24" height="24" viewBox="0 0 24 24" xmlns="http://www.w3.org/2000/svg">
<path fill-rule="evenodd" clip-rule="evenodd" d="M15.7 2H8.2C4.7 2 2 4.8 2 8.2V15.7C2 19.2 4.8 21.9 8.2 21.9H15.7C19.2 21.9 21.9 19.1 21.9 15.7V8.2C21.9 4.8 19.1 2 15.7 2ZM20 15.7C20 18.1 18 20.1 15.6 20.1H8.1C5.7 20.1 3.7 18.1 3.7 15.7V8.2C3.7 5.8 5.7 3.8 8.1 3.8H15.6C18 3.8 20 5.8 20 8.2V15.7ZM7 12C7 9.2 9.2 7 12 7C14.8 7 17 9.2 17 12C17 14.8 14.8 17 12 17C9.2 17 7 14.8 7 12ZM12 15.1C10.3 15.1 8.9 13.7 8.9 12C8.9 10.3 10.3 8.9 12 8.9C13.7 8.9 15.1 10.3 15.1 12C15.1 13.7 13.7 15.1 12 15.1ZM16.7 7.4C17.0866 7.4 17.4 7.0866 17.4 6.7C17.4 6.3134 17.0866 6 16.7 6C16.3134 6 16 6.3134 16 6.7C16 7.0866 16.3134 7.4 16.7 7.4Z"/>
</svg>
