<svg width="24" height="24" viewBox="0 0 24 24" xmlns="http://www.w3.org/2000/svg">
<path fill-rule="evenodd" clip-rule="evenodd" d="M10 0H24V8H23.5492L24 8.73205L19.1334 11.366L24 14L24.0051 15V20C24.0051 21.104 23.1081 22 22.0051 22H21.8211C21.4061 23.162 20.3061 24 19.0051 24C17.7041 24 16.6041 23.162 16.1901 22H8.8211C8.4061 23.162 7.3071 24 6.0051 24C4.7031 24 3.6041 23.162 3.1901 22H1.0051C0.453102 22 0.0051018 21.553 0.0051018 21V18C0.0051018 17.8171 0.00368508 17.644 0.00234476 17.4802L0.00234464 17.4801L0.00234457 17.4801C-0.0124772 15.6686 -0.0179477 15 2.0051 15H1.3281L2.8261 11.258C3.1301 10.494 3.8591 10 4.6821 10H9.0051C9.5571 10 10.0051 10.447 10.0051 11V13.9972L14.8666 11.366L10 8.73205L10.4508 8H10V0ZM17 10.2113L12.9143 8H21.0857L17 10.2113ZM21.5807 15L17 12.5207L12.4193 15H21.5807ZM8.0051 15V12H4.6821L3.4821 15H8.0051ZM6.0051 22C5.4541 22 5.0051 21.551 5.0051 21C5.0051 20.449 5.4541 20 6.0051 20C6.5561 20 7.0051 20.449 7.0051 21C7.0051 21.551 6.5561 22 6.0051 22ZM18.0051 21C18.0051 21.551 18.4541 22 19.0051 22C19.5561 22 20.0051 21.551 20.0051 21C20.0051 20.449 19.5561 20 19.0051 20C18.4541 20 18.0051 20.449 18.0051 21ZM22.0051 20H21.8211C21.4061 18.838 20.3071 18 19.0051 18C17.7031 18 16.6041 18.838 16.1901 20H8.8211C8.4061 18.838 7.3071 18 6.0051 18C4.7031 18 3.6041 18.838 3.1901 20H2.0051V18V17H22.0051V20ZM22 2H12V6H22V2Z"/>
</svg>
