<svg width="24" height="24" viewBox="0 0 24 24" xmlns="http://www.w3.org/2000/svg">
<path d="M19 6C20.1046 6 21 5.10457 21 4C21 2.89543 20.1046 2 19 2C17.8954 2 17 2.89543 17 4C17 5.10457 17.8954 6 19 6Z"/>
<path d="M12.9939 10.5C12.9939 11.3284 12.3223 12 11.4939 12C10.6655 12 9.9939 11.3284 9.9939 10.5C9.9939 9.67157 10.6655 9 11.4939 9C12.3223 9 12.9939 9.67157 12.9939 10.5Z"/>
<path d="M12 17C12.5523 17 13 16.5523 13 16C13 15.4477 12.5523 15 12 15C11.4477 15 11 15.4477 11 16C11 16.5523 11.4477 17 12 17Z"/>
<path d="M8.9939 14C8.9939 14.5523 8.54618 15 7.9939 15C7.44161 15 6.9939 14.5523 6.9939 14C6.9939 13.4477 7.44161 13 7.9939 13C8.54618 13 8.9939 13.4477 8.9939 14Z"/>
<path d="M19.5779 10.119L17.6969 10.992C17.8819 11.607 17.9839 12.259 17.9889 12.933L20.0449 13.209L19.7779 15.191L17.7189 14.914C17.5359 15.553 17.2649 16.153 16.9199 16.704L18.5089 18.048L17.2179 19.575L15.6279 18.23C15.1409 18.664 14.5919 19.028 13.9969 19.312L14.6129 21.3L12.7019 21.893L12.0869 19.906C11.3529 20.021 10.8259 20.027 10.1269 19.94L9.57888 21.944L7.64988 21.414L8.19888 19.414C7.59188 19.15 7.02988 18.803 6.52788 18.386L4.98688 19.779L3.64588 18.295L5.18488 16.903C4.82188 16.364 4.53288 15.769 4.32988 15.137L2.28488 15.482L1.95288 13.51L4.00188 13.164C4.00142 13.1392 3.9997 13.1143 3.99797 13.0892C3.99593 13.0595 3.99388 13.0298 3.99388 13C3.99388 12.383 4.08188 11.787 4.23388 11.218L2.31888 10.405L3.09888 8.564L5.01588 9.379C5.35788 8.816 5.77488 8.307 6.25588 7.863L5.07688 6.146L6.72688 5.013L7.90288 6.729C8.55288 6.407 9.25688 6.186 9.99988 6.079V4H11.9999V6.08C12.6589 6.177 13.2889 6.361 13.8739 6.628L14.9929 4.876L16.6789 5.952L15.5599 7.706C16.0559 8.134 16.4919 8.629 16.8519 9.18L18.7359 8.305L19.5779 10.119ZM5.99388 13C5.99388 15.757 8.23688 18 10.9939 18C13.7509 18 15.9939 15.757 15.9939 13C15.9939 10.243 13.7509 8 10.9939 8C8.23688 8 5.99388 10.243 5.99388 13Z"/>
<path d="M23 8C23 8.55228 22.5523 9 22 9C21.4477 9 21 8.55228 21 8C21 7.44772 21.4477 7 22 7C22.5523 7 23 7.44772 23 8Z"/>
</svg>
