<svg width="24" height="24" viewBox="0 0 24 24" xmlns="http://www.w3.org/2000/svg">
<path fill-rule="evenodd" clip-rule="evenodd" d="M18 12C14.691 12 12 9.309 12 6C12 2.691 14.691 0 18 0C21.309 0 24 2.691 24 6C24 9.309 21.309 12 18 12ZM18 2C15.795 2 14 3.795 14 6C14 8.205 15.795 10 18 10C20.205 10 22 8.205 22 6C22 3.795 20.206 2 18 2ZM19.4142 7.41422C20.1952 6.63317 20.1952 5.36684 19.4142 4.58579C18.6332 3.80474 17.3668 3.80474 16.5858 4.58579C15.8047 5.36684 15.8047 6.63317 16.5858 7.41422C17.3668 8.19527 18.6332 8.19527 19.4142 7.41422ZM18 23H13C6.383 23 1 17.617 1 11V6C1 4.896 1.896 4 3 4H7C8.104 4 9 4.896 9 6V10C9 11.072 8.152 11.949 7.092 11.998C7.53 14.582 9.459 16.518 12.002 16.922C12.043 15.855 12.924 15 14 15H18C19.104 15 20 15.896 20 17V21C20 22.104 19.104 23 18 23ZM3 11V6H7V10H6C5.733 10 5.474 10.107 5.287 10.299C5.1 10.491 4.996 10.748 5 11.016C5.072 15.567 8.512 19 13 19C13.553 19 14 18.553 14 18V17H18L18.002 21H13C7.486 21 3 16.514 3 11Z"/>
</svg>
