<svg width="24" height="24" viewBox="0 0 24 24" xmlns="http://www.w3.org/2000/svg">
<path fill-rule="evenodd" clip-rule="evenodd" d="M21 13H19C19 8.589 15.411 5 11 5V3C16.515 3 21 7.486 21 13ZM17 13H15C15 10.795 13.206 9 11 9V7C14.309 7 17 9.691 17 13ZM11 13V11C12.105 11 13 11.896 13 13H11ZM18 23H13C6.384 23 1 17.617 1 11V6C1 4.896 1.897 4 3 4H7C8.103 4 9 4.896 9 6V10C9 11.072 8.152 11.949 7.092 11.998C7.529 14.582 9.459 16.518 12.001 16.922C12.043 15.855 12.924 15 14 15H18C19.103 15 20 15.896 20 17V21C20 22.104 19.104 23 18 23ZM3 11V6H7V10H6C5.732 10 5.476 10.108 5.288 10.299C5.1 10.49 4.997 10.748 5 11.016C5.072 15.567 8.512 19 13 19C13.552 19 14 18.553 14 18V17H18L18.001 21H13C7.486 21 3 16.514 3 11Z"/>
</svg>
