<svg width="24" height="24" viewBox="0 0 24 24" xmlns="http://www.w3.org/2000/svg">
<path fill-rule="evenodd" clip-rule="evenodd" d="M5.00001 9C5.00001 10.774 5.47601 12.436 6.29201 13.88L4.83201 15.339C3.67601 13.498 3.00001 11.329 3.00001 9V4C3.00001 2.896 3.89701 2 5.00001 2H9.00001C10.103 2 11 2.896 11 4V8C11 9.072 10.153 9.949 9.09201 9.998C9.14201 10.297 9.21901 10.582 9.30901 10.861L7.75401 12.417C7.28701 11.396 7.02001 10.247 7.00001 9.016C6.99701 8.748 7.10001 8.491 7.28801 8.299C7.47601 8.107 7.73201 8 8.00001 8H9.00001V4H5.00001V9ZM20 13H16C14.923 13 14.042 13.855 14.001 14.922C13.178 14.791 12.429 14.485 11.764 14.064L20.091 5.737L18.677 4.323L2.70801 20.293L4.12201 21.707L7.48701 18.342C9.54501 20.001 12.157 21 15 21H20C21.103 21 22 20.104 22 19V15C22 13.896 21.104 13 20 13ZM15 19C12.708 19 10.601 18.217 8.91301 16.916L10.308 15.52C11.613 16.454 13.222 17 15 17C15.552 17 16 16.553 16 16V15H20L20.001 19H15Z"/>
</svg>
