<svg width="24" height="24" viewBox="0 0 24 24" xmlns="http://www.w3.org/2000/svg">
<path fill-rule="evenodd" clip-rule="evenodd" d="M2 1C2 0.447716 2.44772 0 3 0C3.55228 0 4 0.447715 4 1V3H20V1C20 0.447716 20.4477 0 21 0C21.5523 0 22 0.447715 22 1V3C22.5523 3 23 3.44772 23 4C23 4.55228 22.5523 5 22 5V16C22.5523 16 23 16.4477 23 17C23 17.5523 22.5523 18 22 18V22H23C23.5523 22 24 22.4477 24 23C24 23.5523 23.5523 24 23 24H21H20C19.4477 24 19 23.5523 19 23C19 22.4477 19.4477 22 20 22V18H18V23C18 23.5523 17.5523 24 17 24C16.4477 24 16 23.5523 16 23V21H13V23C13 23.5523 12.5523 24 12 24C11.4477 24 11 23.5523 11 23V18H4V22C4.55228 22 5 22.4477 5 23C5 23.5523 4.55228 24 4 24H3H1C0.447715 24 0 23.5523 0 23C0 22.4477 0.447715 22 1 22H2L2 18C1.44771 18 1 17.5523 1 17C1 16.4477 1.44772 16 2 16L2 5C1.44772 5 1 4.55228 1 4C1 3.44772 1.44772 3 2 3V1ZM16 19V17H13V19H16ZM18 16H20V5H18V16ZM16 5H13V7H16V5ZM16 9H13V11H16V9ZM16 13H13V15H16V13ZM4 5H11V16H4V5Z"/>
</svg>
