<svg width="24" height="24" viewBox="0 0 24 24" xmlns="http://www.w3.org/2000/svg">
<path fill-rule="evenodd" clip-rule="evenodd" d="M12 2C7.527 2 3 3.374 3 6V18C3 20.626 7.527 22 12 22C16.473 22 21 20.626 21 18V6C21 3.374 16.473 2 12 2ZM12 4C16.547 4 19 5.42 19 6C19 6.58 16.547 8 12 8C7.453 8 5 6.58 5 6C5 5.42 7.453 4 12 4ZM5 18C5 18.58 7.453 20 12 20C16.547 20 19 18.58 19 18V16.6C17.264 17.522 14.626 18 12 18C9.374 18 6.736 17.523 5 16.6V18ZM12 16C7.453 16 5 14.58 5 14V12.6C6.736 13.523 9.374 14 12 14C14.626 14 17.264 13.522 19 12.6V14C19 14.58 16.547 16 12 16ZM5 10C5 10.58 7.453 12 12 12C16.547 12 19 10.58 19 10V8.6C17.264 9.522 14.626 10 12 10C9.374 10 6.736 9.522 5 8.6V10Z"/>
</svg>
