<svg width="24" height="24" viewBox="0 0 24 24" xmlns="http://www.w3.org/2000/svg">
<path fill-rule="evenodd" clip-rule="evenodd" d="M21 3.00098H17.722C17.375 2.40598 16.738 2.00098 16 2.00098H8C7.263 2.00098 6.625 2.40598 6.278 3.00098H3C2.447 3.00098 2 3.44798 2 4.00098V7.03998C2 7.95598 2.41 8.80998 3.126 9.38298L7.305 12.726C8.207 13.86 9.51 14.659 11 14.911V17.001H9C8.447 17.001 8 17.448 8 18.001V20.001H7V22.001H9H15H17V20.001H16V18.001C16 17.448 15.553 17.001 15 17.001H13V14.911C14.49 14.659 15.793 13.86 16.695 12.725L20.875 9.38098C21.59 8.80998 22 7.95598 22 7.03998V4.00098C22 3.44798 21.553 3.00098 21 3.00098ZM10 20.001V19.001H14V20.001H10ZM4 7.03998C4 7.34498 4.137 7.63098 4.376 7.82098L6.006 9.12598C6.006 9.10498 6.0045 9.08423 6.003 9.06348C6.0015 9.04273 6 9.02198 6 9.00098V5.00098H4V7.03998ZM12 13.001C9.795 13.001 8 11.207 8 9.00098V4.00098H16V9.00098C16 11.207 14.205 13.001 12 13.001ZM19.625 7.82098C19.863 7.63098 20 7.34498 20 7.03998V5.00098H18V9.00098C18 9.02198 17.9985 9.04273 17.997 9.06348C17.9955 9.08423 17.994 9.10498 17.994 9.12598L19.625 7.82098Z"/>
</svg>
