<svg width="24" height="24" viewBox="0 0 24 24" xmlns="http://www.w3.org/2000/svg">
<path fill-rule="evenodd" clip-rule="evenodd" d="M20.0002 1.006V8.006C20.0002 8.271 19.8953 8.525 19.7073 8.713L8.70725 19.713C8.51225 19.908 8.25625 20.006 8.00025 20.006C7.74425 20.006 7.48825 19.908 7.29325 19.713L0.29325 12.713C-0.09775 12.322 -0.09775 11.69 0.29325 11.299L11.2933 0.298997C11.4803 0.110997 11.7343 0.0059967 12.0002 0.0059967H19.0002C19.5532 0.0059967 20.0002 0.452997 20.0002 1.006ZM8.00025 17.592L18.0002 7.592V2.006H12.4142L2.41425 12.006L8.00025 17.592ZM16.4144 3.59179C17.1955 4.37284 17.1955 5.63917 16.4144 6.42022C15.6334 7.20127 14.3671 7.20127 13.586 6.42022C12.805 5.63917 12.805 4.37284 13.586 3.59179C14.3671 2.81074 15.6334 2.81074 16.4144 3.59179ZM21.0002 19H24.0002V21H21.0002V24H19.0002V21H16.0002V19H19.0002V16H21.0002V19Z"/>
</svg>
