<svg width="16" height="16" viewBox="0 0 16 16" xmlns="http://www.w3.org/2000/svg">
<path d="M6.66724 1.33333C6.84418 1.3335 7.01346 1.40367 7.13794 1.52865L14.4719 8.86263C14.7319 9.12329 14.7322 9.54455 14.4719 9.80501L9.80493 14.472C9.67503 14.6018 9.50374 14.6672 9.33325 14.6673C9.16298 14.6672 8.99238 14.6015 8.86255 14.472L1.52856 7.13802C1.40359 7.01354 1.33342 6.84426 1.33325 6.66732V2.00033C1.33325 1.63166 1.63158 1.33333 2.00024 1.33333H6.66724ZM2.66724 6.39095L9.33325 13.0579L13.0579 9.33333L6.39087 2.66732H2.66724V6.39095ZM4.66626 3.33333C5.40253 3.33333 6.00007 3.93011 6.00024 4.66634C6.00024 5.40272 5.40264 6.00033 4.66626 6.00033C3.93003 6.00015 3.33325 5.40261 3.33325 4.66634C3.33343 3.93022 3.93014 3.33351 4.66626 3.33333Z" />
</svg>
