<svg width="24" height="24" viewBox="0 0 24 24" xmlns="http://www.w3.org/2000/svg">
<path fill-rule="evenodd" clip-rule="evenodd" d="M22.901 7.99902H24.003V5.99902H22.902C22.771 5.36102 22.517 4.77002 22.168 4.24502L22.953 3.46102L21.539 2.04702L20.753 2.83102C20.23 2.48402 19.639 2.22902 19.002 2.10102V0.999023H17.002V2.10102C16.365 2.23002 15.774 2.48502 15.25 2.83202L14.467 2.04902L13.053 3.46302L13.836 4.24602C13.489 4.77002 13.235 5.36202 13.104 5.99902H12.002V7.99902H13.104C13.235 8.63702 13.489 9.22802 13.836 9.75302L13.053 10.537L14.468 11.95L15.25 11.166C15.775 11.514 16.367 11.769 17.003 11.898V13H19.003V11.897C19.64 11.767 20.232 11.512 20.756 11.165L21.54 11.948L22.953 10.533L22.168 9.75102C22.516 9.22702 22.77 8.63602 22.901 7.99902ZM4.00101 6.00002C4.00101 7.65402 5.34701 9.00002 7.00101 9.00002C8.65501 9.00002 10.001 7.65402 10.001 6.00002C10.001 4.34602 8.65501 3.00002 7.00101 3.00002C5.34701 3.00002 4.00101 4.34602 4.00101 6.00002ZM6.00101 6.00002C6.00101 5.44902 6.45001 5.00002 7.00101 5.00002C7.55201 5.00002 8.00101 5.44902 8.00101 6.00002C8.00101 6.55102 7.55201 7.00002 7.00101 7.00002C6.45001 7.00002 6.00101 6.55102 6.00101 6.00002ZM5.00101 23C4.44901 23 4.00101 22.552 4.00101 22V18H3.00101C2.44901 18 2.00101 17.552 2.00101 17V14C2.00101 11.243 4.24401 9.00002 7.00101 9.00002C9.75801 9.00002 12.001 11.243 12.001 14V17C12.001 17.552 11.553 18 11.001 18H10.001V22C10.001 22.552 9.55301 23 9.00101 23H5.00101ZM8.00101 21H6.00101V17C6.00101 16.448 5.55301 16 5.00101 16H4.00101V14C4.00101 12.346 5.34701 11 7.00101 11C8.65501 11 10.001 12.346 10.001 14V16H9.00101C8.44901 16 8.00101 16.448 8.00101 17V21ZM16.001 6.99902C16.001 8.10302 16.896 8.99902 18.001 8.99902C19.105 8.99902 20.001 8.10302 20.001 6.99902C20.001 5.89502 19.105 4.99902 18.001 4.99902C16.896 4.99902 16.001 5.89502 16.001 6.99902Z"/>
</svg>
