<svg width="24" height="24" viewBox="0 0 24 24" xmlns="http://www.w3.org/2000/svg">
<path fill-rule="evenodd" clip-rule="evenodd" d="M15.001 11H17.001C17.001 9.62 15.85 8.593 14.372 8.059C15.062 7.418 15.501 6.513 15.501 5.5C15.501 3.57 13.931 2 12.001 2C10.071 2 8.50101 3.57 8.50101 5.5C8.50101 6.513 8.94001 7.418 9.63001 8.059C8.15201 8.593 7.00101 9.62 7.00101 11H9.00101C9.00101 10.402 10.414 9.643 12.001 9.643C13.588 9.643 15.001 10.402 15.001 11ZM8.37201 19.059C9.06201 18.418 9.50101 17.513 9.50101 16.5C9.50101 14.57 7.93101 13 6.00101 13C4.07101 13 2.50101 14.57 2.50101 16.5C2.50101 17.513 2.94001 18.418 3.63001 19.059C2.15201 19.593 1.00101 20.62 1.00101 22H3.00101C3.00101 21.402 4.41401 20.643 6.00101 20.643C7.58801 20.643 9.00101 21.403 9.00101 22H11.001C11.001 20.62 9.85001 19.593 8.37201 19.059ZM21.501 16.5C21.501 17.513 21.062 18.418 20.372 19.059C21.85 19.593 23.001 20.62 23.001 22H21.001C21.001 21.403 19.588 20.643 18.001 20.643C16.414 20.643 15.001 21.402 15.001 22H13.001C13.001 20.621 14.152 19.593 15.63 19.059C14.94 18.418 14.501 17.513 14.501 16.5C14.501 14.57 16.071 13 18.001 13C19.931 13 21.501 14.57 21.501 16.5ZM19.501 16.5C19.501 15.673 18.828 15 18.001 15C17.174 15 16.501 15.673 16.501 16.5C16.501 17.327 17.174 18 18.001 18C18.828 18 19.501 17.327 19.501 16.5ZM7.50101 16.5C7.50101 15.673 6.82801 15 6.00101 15C5.17401 15 4.50101 15.673 4.50101 16.5C4.50101 17.327 5.17401 18 6.00101 18C6.82801 18 7.50101 17.327 7.50101 16.5ZM13.501 5.5C13.501 4.673 12.828 4 12.001 4C11.174 4 10.501 4.673 10.501 5.5C10.501 6.327 11.174 7 12.001 7C12.828 7 13.501 6.327 13.501 5.5Z"/>
</svg>
