<svg width="24" height="24" viewBox="0 0 24 24" xmlns="http://www.w3.org/2000/svg"><g fill="none" fill-rule="evenodd"><path d="M15,12 C15,13.6569 13.6569,15 12,15 C10.3431,15 9,13.6569 9,12 C9,10.3431 10.3431,9 12,9 C13.6569,9 15,10.3431 15,12 Z" fill-rule="nonzero"/><path d="M21.8944,11.5528 C19.7362,7.23635 15.9031,5 12,5 C8.09687,5 4.26379,7.23635 2.10557,11.5528 C1.96481,11.8343 1.96481,12.1657 2.10557,12.4472 C4.26379,16.7637 8.09687,19 12,19 C15.9031,19 19.7362,16.7637 21.8944,12.4472 C22.0352,12.1657 22.0352,11.8343 21.8944,11.5528 Z M12,17 C9.03121,17 5.99806,15.3792 4.12966,12 C5.99806,8.62078 9.03121,7 12,7 C14.9688,7 18.0019,8.62078 19.8703,12 C18.0019,15.3792 14.9688,17 12,17 Z" fill-rule="nonzero"/></g></svg>
