<svg width="24" height="24" viewBox="0 0 24 24" xmlns="http://www.w3.org/2000/svg">
<path fill-rule="evenodd" clip-rule="evenodd" d="M24 11.6909C24 18.1477 18.7256 23.3819 12.2181 23.3819C10.1523 23.3819 8.21147 22.8539 6.52293 21.9272L0 24L2.12667 17.7275C1.05387 15.9659 0.436 13.8997 0.436 11.6909C0.436 5.23413 5.71093 0 12.2181 0C18.7261 0 24 5.23413 24 11.6909ZM12.2181 1.86187C6.75573 1.86187 2.31253 6.2712 2.31253 11.6909C2.31253 13.8416 3.0136 15.8333 4.19947 17.4536L2.96187 21.104L6.76853 19.8941C8.33253 20.9211 10.2061 21.52 12.2184 21.52C17.68 21.52 22.124 17.1112 22.124 11.6915C22.124 6.27173 17.6803 1.86187 12.2181 1.86187ZM17.7705 14.125C17.9725 14.2219 18.109 14.2873 18.1677 14.3835C18.2395 14.5029 18.2395 15.0765 17.9995 15.7464C17.7579 16.4152 16.5787 17.0605 16.0496 17.1083C15.9589 17.1165 15.8837 17.1345 15.8067 17.153C15.4339 17.2425 15.0171 17.3425 12.5837 16.392C9.87048 15.3316 8.08207 12.6995 7.71247 12.1556C7.68213 12.1109 7.66135 12.0804 7.6504 12.0659L7.64992 12.0652C7.50334 11.872 6.4712 10.511 6.4712 9.1024C6.4712 7.78321 7.12421 7.09135 7.42491 6.77276C7.44558 6.75086 7.46459 6.73072 7.4816 6.71227C7.7464 6.4256 8.05947 6.35387 8.252 6.35387C8.35151 6.35387 8.45109 6.36028 8.54731 6.36647C8.63727 6.37226 8.7243 6.37787 8.8056 6.37787C8.82579 6.37787 8.847 6.3765 8.86912 6.37508C9.03188 6.3646 9.24344 6.35098 9.4552 6.85573C9.53229 7.03966 9.64406 7.30949 9.76273 7.59597C10.0143 8.20336 10.2969 8.88563 10.3459 8.98293C10.4184 9.12667 10.4667 9.29387 10.3699 9.48507C10.3561 9.51257 10.3433 9.53859 10.3311 9.56347C10.2583 9.71178 10.2053 9.81979 10.0813 9.9632C10.0335 10.0186 9.98411 10.0783 9.93467 10.138C9.8349 10.2585 9.73501 10.3791 9.648 10.4651C9.50373 10.6077 9.35307 10.7627 9.52133 11.0493C9.68987 11.3365 10.2696 12.2741 11.128 13.0336C12.0514 13.8505 12.8538 14.1959 13.2599 14.3708C13.339 14.4048 13.4031 14.4324 13.4501 14.4557C13.7392 14.5992 13.9075 14.5752 14.076 14.3835C14.2448 14.1923 14.7984 13.5472 14.9907 13.2603C15.1829 12.9736 15.376 13.0216 15.6408 13.1171C15.9048 13.2123 17.3251 13.9059 17.6141 14.0491C17.6699 14.0767 17.7221 14.1018 17.7705 14.125Z" />
<mask id="mask0_103_2034" style="mask-type:luminance" maskUnits="userSpaceOnUse" x="0" y="0" width="24" height="24">
<path fill-rule="evenodd" clip-rule="evenodd" d="M24 11.6909C24 18.1477 18.7256 23.3819 12.2181 23.3819C10.1523 23.3819 8.21147 22.8539 6.52293 21.9272L0 24L2.12667 17.7275C1.05387 15.9659 0.436 13.8997 0.436 11.6909C0.436 5.23413 5.71093 0 12.2181 0C18.7261 0 24 5.23413 24 11.6909ZM12.2181 1.86187C6.75573 1.86187 2.31253 6.2712 2.31253 11.6909C2.31253 13.8416 3.0136 15.8333 4.19947 17.4536L2.96187 21.104L6.76853 19.8941C8.33253 20.9211 10.2061 21.52 12.2184 21.52C17.68 21.52 22.124 17.1112 22.124 11.6915C22.124 6.27173 17.6803 1.86187 12.2181 1.86187ZM17.7705 14.125C17.9725 14.2219 18.109 14.2873 18.1677 14.3835C18.2395 14.5029 18.2395 15.0765 17.9995 15.7464C17.7579 16.4152 16.5787 17.0605 16.0496 17.1083C15.9589 17.1165 15.8837 17.1345 15.8067 17.153C15.4339 17.2425 15.0171 17.3425 12.5837 16.392C9.87048 15.3316 8.08207 12.6995 7.71247 12.1556C7.68213 12.1109 7.66135 12.0804 7.6504 12.0659L7.64992 12.0652C7.50334 11.872 6.4712 10.511 6.4712 9.1024C6.4712 7.78321 7.12421 7.09135 7.42491 6.77276C7.44558 6.75086 7.46459 6.73072 7.4816 6.71227C7.7464 6.4256 8.05947 6.35387 8.252 6.35387C8.35151 6.35387 8.45109 6.36028 8.54731 6.36647C8.63727 6.37226 8.7243 6.37787 8.8056 6.37787C8.82579 6.37787 8.847 6.3765 8.86912 6.37508C9.03188 6.3646 9.24344 6.35098 9.4552 6.85573C9.53229 7.03966 9.64406 7.30949 9.76273 7.59597C10.0143 8.20336 10.2969 8.88563 10.3459 8.98293C10.4184 9.12667 10.4667 9.29387 10.3699 9.48507C10.3561 9.51257 10.3433 9.53859 10.3311 9.56347C10.2583 9.71178 10.2053 9.81979 10.0813 9.9632C10.0335 10.0186 9.98411 10.0783 9.93467 10.138C9.8349 10.2585 9.73501 10.3791 9.648 10.4651C9.50373 10.6077 9.35307 10.7627 9.52133 11.0493C9.68987 11.3365 10.2696 12.2741 11.128 13.0336C12.0514 13.8505 12.8538 14.1959 13.2599 14.3708C13.339 14.4048 13.4031 14.4324 13.4501 14.4557C13.7392 14.5992 13.9075 14.5752 14.076 14.3835C14.2448 14.1923 14.7984 13.5472 14.9907 13.2603C15.1829 12.9736 15.376 13.0216 15.6408 13.1171C15.9048 13.2123 17.3251 13.9059 17.6141 14.0491C17.6699 14.0767 17.7221 14.1018 17.7705 14.125Z" />
</mask>
<g mask="url(#mask0_103_2034)">
</g>
<path fill-rule="evenodd" clip-rule="evenodd" d="M24 11.6909C24 18.1477 18.7256 23.3819 12.2181 23.3819C10.1523 23.3819 8.21147 22.8539 6.52293 21.9272L0 24L2.12667 17.7275C1.05387 15.9659 0.436 13.8997 0.436 11.6909C0.436 5.23413 5.71093 0 12.2181 0C18.7261 0 24 5.23413 24 11.6909ZM12.2181 1.86187C6.75573 1.86187 2.31253 6.2712 2.31253 11.6909C2.31253 13.8416 3.0136 15.8333 4.19947 17.4536L2.96187 21.104L6.76853 19.8941C8.33253 20.9211 10.2061 21.52 12.2184 21.52C17.68 21.52 22.124 17.1112 22.124 11.6915C22.124 6.27173 17.6803 1.86187 12.2181 1.86187ZM17.7705 14.125C17.9725 14.2219 18.109 14.2873 18.1677 14.3835C18.2395 14.5029 18.2395 15.0765 17.9995 15.7464C17.7579 16.4152 16.5787 17.0605 16.0496 17.1083C15.9589 17.1165 15.8837 17.1345 15.8067 17.153C15.4339 17.2425 15.0171 17.3425 12.5837 16.392C9.87048 15.3316 8.08207 12.6995 7.71247 12.1556C7.68213 12.1109 7.66135 12.0804 7.6504 12.0659L7.64992 12.0652C7.50334 11.872 6.4712 10.511 6.4712 9.1024C6.4712 7.78321 7.12421 7.09135 7.42491 6.77276C7.44558 6.75086 7.46459 6.73072 7.4816 6.71227C7.7464 6.4256 8.05947 6.35387 8.252 6.35387C8.35151 6.35387 8.45109 6.36028 8.54731 6.36647C8.63727 6.37226 8.7243 6.37787 8.8056 6.37787C8.82579 6.37787 8.847 6.3765 8.86912 6.37508C9.03188 6.3646 9.24344 6.35098 9.4552 6.85573C9.53229 7.03966 9.64406 7.30949 9.76273 7.59597C10.0143 8.20336 10.2969 8.88563 10.3459 8.98293C10.4184 9.12667 10.4667 9.29387 10.3699 9.48507C10.3561 9.51257 10.3433 9.53859 10.3311 9.56347C10.2583 9.71178 10.2053 9.81979 10.0813 9.9632C10.0335 10.0186 9.98411 10.0783 9.93467 10.138C9.8349 10.2585 9.73501 10.3791 9.648 10.4651C9.50373 10.6077 9.35307 10.7627 9.52133 11.0493C9.68987 11.3365 10.2696 12.2741 11.128 13.0336C12.0514 13.8505 12.8538 14.1959 13.2599 14.3708C13.339 14.4048 13.4031 14.4324 13.4501 14.4557C13.7392 14.5992 13.9075 14.5752 14.076 14.3835C14.2448 14.1923 14.7984 13.5472 14.9907 13.2603C15.1829 12.9736 15.376 13.0216 15.6408 13.1171C15.9048 13.2123 17.3251 13.9059 17.6141 14.0491C17.6699 14.0767 17.7221 14.1018 17.7705 14.125Z" />
</svg>
