<svg width="24" height="24" viewBox="0 0 24 24" xmlns="http://www.w3.org/2000/svg">
<path fill-rule="evenodd" clip-rule="evenodd" d="M22.921 4.688L21.507 6.102C18.862 3.457 15.345 2 11.606 2C7.86697 2 4.35197 3.457 1.70697 6.102L0.292969 4.688C3.31397 1.664 7.33097 0 11.606 0C15.881 0 19.898 1.664 22.921 4.688ZM15.85 11.758L17.264 10.344C15.753 8.833 13.744 8 11.607 8C9.46997 8 7.46097 8.833 5.95097 10.344L7.36497 11.758C8.49797 10.625 10.004 10 11.607 10C13.209 10 14.717 10.625 15.85 11.758ZM11.607 13C9.95296 13 8.60696 14.346 8.60696 16C8.60696 17.654 9.95296 19 11.607 19C13.261 19 14.607 17.654 14.607 16C14.607 14.346 13.262 13 11.607 13ZM11.607 17C11.056 17 10.607 16.552 10.607 16C10.607 15.449 11.056 15 11.607 15C12.158 15 12.607 15.449 12.607 16C12.607 16.552 12.158 17 11.607 17ZM18.678 8.92997L20.092 7.51597C15.413 2.83597 7.80096 2.83797 3.12196 7.51397L4.53596 8.92797C8.43596 5.03097 14.779 5.03097 18.678 8.92997ZM18 20.586L22.293 16.294L23.707 17.707L18 23.414L14.293 19.707L15.707 18.294L18 20.586Z"/>
</svg>
