<svg width="24" height="24" viewBox="0 0 24 24" xmlns="http://www.w3.org/2000/svg"><path d="M20.9949915,22.0019555 L2.99499154,22.0019555 C2.82453154,22.0014309 2.65703154,21.9573309 2.50839154,21.8739309 C2.35976154,21.7904309 2.23493154,21.6703309 2.14576154,21.5250309 C2.05658154,21.3798309 2.00603154,21.2141309 1.99890154,21.0438309 C1.99176154,20.8735309 2.02828154,20.7042309 2.10499154,20.5519309 L11.1049915,2.55196094 C11.1878915,2.38555094 11.3155915,2.24556094 11.4736915,2.14771094 C11.6317915,2.04986094 11.8140915,1.99802094 11.9999915,1.99802094 C12.1858915,1.99802094 12.3681915,2.04986094 12.5262915,2.14771094 C12.6843915,2.24556094 12.8120915,2.38555094 12.8949915,2.55196094 L21.8949915,20.5519309 C21.9720915,20.7049309 22.0085915,20.8751309 22.0009915,21.0463309 C21.9933915,21.2174309 21.9419915,21.3838309 21.8515915,21.5293309 C21.7612915,21.6749309 21.6350915,21.7948309 21.4850915,21.8775309 C21.3350915,21.9603309 21.1662915,22.0031309 20.9949915,22.0019555 Z M4.61499154,20.0019309 L19.3749915,20.0019309 L11.9949915,5.24196094 L4.61499154,20.0019309 Z M10.9949915,10.0019309 L12.9949915,10.0019309 L12.9949915,16.0019309 L10.9949915,16.0019309 L10.9949915,10.0019309 Z M11.9949915,19.2519309 C11.7477915,19.2519309 11.5060915,19.1786309 11.3004915,19.0413309 C11.0949915,18.9039309 10.9347915,18.7087309 10.8401915,18.4803309 C10.7454915,18.2519309 10.7207915,18.0005309 10.7689915,17.7581309 C10.8172915,17.5156309 10.9362915,17.2929309 11.1110915,17.1180309 C11.2858915,16.9432309 11.5086915,16.8242309 11.7510915,16.7759309 C11.9935915,16.7277309 12.2449841,16.7525309 12.4733915,16.8471309 C12.7017915,16.9417309 12.8969915,17.1019309 13.0342915,17.3075309 C13.1716915,17.5130309 13.2449841,17.7547309 13.2449841,18.0019309 C13.2449841,18.3334309 13.1132915,18.6514309 12.8788915,18.8858309 C12.6444915,19.1202309 12.3264915,19.2519309 11.9949915,19.2519309 Z"/></svg>