<svg width="24" height="24" viewBox="0 0 24 24" xmlns="http://www.w3.org/2000/svg">
<path fill-rule="evenodd" clip-rule="evenodd" d="M19 4H7C5.897 4 5 4.896 5 6V22C5 23.104 5.896 24 7 24C8.104 24 9 23.104 9 22H17C17 23.104 17.896 24 19 24C20.104 24 21 23.104 21 22V6C21 4.896 20.103 4 19 4ZM4 9H2V13H4V9ZM22 9H24V13H22V9ZM9.70711 18.7071C10.0976 18.3166 10.0976 17.6834 9.70711 17.2929C9.31659 16.9024 8.68342 16.9024 8.2929 17.2929C7.90238 17.6834 7.90238 18.3166 8.2929 18.7071C8.68342 19.0976 9.31659 19.0976 9.70711 18.7071ZM17.7071 18.7071C18.0976 18.3166 18.0976 17.6834 17.7071 17.2929C17.3166 16.9024 16.6834 16.9024 16.2929 17.2929C15.9024 17.6834 15.9024 18.3166 16.2929 18.7071C16.6834 19.0976 17.3166 19.0976 17.7071 18.7071ZM19 10H7V14H19V10ZM19 20H7V16H19V20ZM7 6V8H19V6H7Z"/>
</svg>
