<svg width="24" height="25" viewBox="0 0 24 25" xmlns="http://www.w3.org/2000/svg">
<path fill-rule="evenodd" clip-rule="evenodd" d="M21.9 17C23 17 23.9 16.1 23.9 15V5C23.9 3.9 23 3 21.9 3H20.9V0L16.6 3H8.9C7.8 3 6.9 3.9 6.9 5V15C6.9 16.1 7.8 17 8.9 17H21.9ZM8.9 5H17.2L18.9 4V5H21.9V15H8.9V5ZM6.7 19.1H15H17C17 20.2 16.1 21.1 15 21.1H7.3L3 24.1V21.1H2C0.9 21.1 0 20.2 0 19.1V10.1C0 9 0.9 8.1 2 8.1H4.8V10.1H2V19.1H5V20.1L6.7 19.1ZM16.4 12.6C16.4 13.1523 15.9523 13.6 15.4 13.6C14.8477 13.6 14.4 13.1523 14.4 12.6C14.4 12.0477 14.8477 11.6 15.4 11.6C15.9523 11.6 16.4 12.0477 16.4 12.6ZM14.6 11H15.4C16.7 11 17.8 9.9 17.8 8.6C17.8 7.3 16.7 6.2 15.4 6.2C14.1 6.2 13 7.3 13 8.6H14.6C14.6 8.2 15 7.8 15.4 7.8C15.8 7.8 16.2 8.2 16.2 8.6C16.2 9 15.8 9.4 15.4 9.4H14.6V11Z"/>
</svg>
