<svg width="24" height="24" viewBox="0 0 24 24" xmlns="http://www.w3.org/2000/svg"><path d="M2.53899558,8.75286899 L2.56742567,8.67117642 C2.59249526,8.60013901 2.6183446,8.52946962 2.64496342,8.45917854 C2.65475797,8.43331571 2.66460225,8.4076443 2.67454907,8.38202405 C2.75369105,8.17815477 2.83947425,7.97720626 2.93151586,7.77976267 C2.94732777,7.74584728 2.96314724,7.71240433 2.9791461,7.6790638 C3.00734648,7.62029189 3.03623098,7.56158701 3.06567081,7.50321008 C3.08497804,7.46492356 3.1046076,7.4266178 3.12447606,7.38845626 C3.22147,7.20216785 3.32405781,7.01948066 3.43209815,6.84045437 C3.43542032,6.83494975 3.43861574,6.82966621 3.44181591,6.82438587 L3.54686818,6.65488336 C5.31960109,3.85722626 8.44291017,2 12,2 C17.5228,2 22,6.47715 22,12 C22,17.4291932 17.6732833,21.8479301 12.2799025,21.9961582 L12,22 L12,22 C6.47715,22 2,17.5228 2,12 C2,11.8885463 2.00182332,11.7775185 2.00544177,11.6669447 L2,12 C2,11.8418794 2.00366988,11.6846159 2.01092912,11.5282901 C2.0136811,11.469078 2.01692216,11.4104045 2.02066685,11.351868 C2.02393124,11.3008331 2.02758484,11.2498218 2.03161962,11.1989178 C2.04843083,10.9868051 2.07187008,10.7764901 2.10172538,10.5682463 C2.10826561,10.5226333 2.1150858,10.4772966 2.12220927,10.4320606 C2.13255242,10.3663821 2.14352132,10.3009922 2.15512152,10.2358208 C2.16240061,10.1949154 2.17001062,10.1536655 2.17787295,10.1125052 C2.19668606,10.014043 2.21683446,9.91658084 2.23838977,9.81964861 L2.24398511,9.7946391 C2.25056376,9.76541146 2.25727039,9.73623226 2.26410438,9.70710212 C2.28225954,9.62970513 2.30138458,9.5523823 2.32140332,9.47542 C2.329655,9.44370037 2.33797745,9.41234138 2.34644804,9.38104328 C2.36651085,9.30690339 2.38749611,9.23279702 2.40930891,9.15904592 C2.41824756,9.12881885 2.42744616,9.09825652 2.43678665,9.06775621 C2.46557813,8.97376268 2.49551165,8.88096479 2.52675324,8.7887704 L2.53899558,8.75286899 L2.53899558,8.75286899 Z M12,4 C9.03893527,4 6.45360967,5.60872187 5.07034967,7.99983913 L12,13 L12,4 L12,4 Z"/></svg>