<svg width="24" height="24" viewBox="0 0 24 24" xmlns="http://www.w3.org/2000/svg"><path d="M12,22 C6.47715,22 2,17.5228 2,12 C2,6.47715 6.47715,2 12,2 C17.5228,2 22,6.47715 22,12 C22,12.2494313 21.9908675,12.4967298 21.9729186,12.7415794 C21.9693521,12.7901963 21.9654861,12.8381688 21.9612827,12.8860445 C21.9585403,12.9173105 21.9555727,12.9493709 21.952454,12.9813871 C21.9459043,13.0485769 21.9387744,13.1148528 21.9310002,13.1809316 C21.9261229,13.2223859 21.9209968,13.2637264 21.9156191,13.3049879 C21.9101189,13.3471956 21.9043282,13.3895118 21.8982736,13.4317427 C21.8898113,13.4907698 21.8808222,13.5497008 21.871321,13.6084604 C21.863826,13.6547983 21.856101,13.7005275 21.8480667,13.74615 C21.8413483,13.7843134 21.8343061,13.8229724 21.8270424,13.8615532 C21.8177011,13.9111547 21.8080961,13.9601242 21.7981351,14.0089642 C21.7877317,14.0599766 21.7769165,14.1109536 21.7657145,14.1617854 C21.6647144,14.6201739 21.5321463,15.0670722 21.3704653,15.4997707 C21.3567944,15.5363602 21.3428251,15.5730814 21.3286463,15.6096983 C21.3069175,15.665814 21.284681,15.7217241 21.2619573,15.7773835 C21.2520386,15.8016765 21.2421226,15.8256931 21.2321161,15.8496624 C21.1714622,15.9949569 21.1074023,16.1386748 21.0401007,16.280556 C21.0210694,16.3206726 21.0019452,16.3603037 20.9825684,16.3997883 C20.9667256,16.4320734 20.9506078,16.4644708 20.9343201,16.496768 C20.9127505,16.5395373 20.8909307,16.5820391 20.8688168,16.624363 C20.7375269,16.8756206 20.5960337,17.1203522 20.4447638,17.3582586 C20.3696486,17.4763908 20.2921967,17.5927341 20.2124078,17.7073285 C20.1886589,17.7414368 20.1647329,17.7753481 20.1406022,17.8091031 C20.1192733,17.8389386 20.0978137,17.8686119 20.0761959,17.8981622 C20.0450529,17.9407315 20.0136617,17.9829392 19.9819475,18.024889 C19.9534808,18.0625451 19.9246047,18.1001851 19.8954682,18.1376124 C19.8663778,18.174979 19.8371704,18.2119558 19.8077087,18.24872 C19.7820577,18.2807305 19.7560724,18.312752 19.729894,18.3446089 C19.6993597,18.3817642 19.6687706,18.4184497 19.6379251,18.4549114 C19.6048318,18.4940286 19.5715781,18.5327338 19.5380351,18.57118 C19.5248146,18.5863352 19.5110665,18.6019967 19.4972704,18.6176148 C19.4587442,18.6612196 19.4205586,18.7037038 19.3820168,18.7458567 C19.3440385,18.7873915 19.3058722,18.8284376 19.2673674,18.8691602 C19.2384444,18.8997495 19.209302,18.9301853 19.1799702,18.9604364 C18.9888479,19.1575359 18.7899244,19.3465779 18.5835033,19.5272658 C18.55644,19.550958 18.5288151,19.5748771 18.5010586,19.5986468 C18.4539634,19.6389766 18.4065653,19.6788131 18.3587952,19.7182147 C18.339407,19.7342043 18.3204627,19.7497119 18.3014607,19.7651511 C18.256142,19.8019771 18.2100311,19.8387778 18.1635902,19.8751765 C18.125165,19.9052921 18.0866058,19.9350626 18.0478247,19.9645564 C17.9381868,20.0479411 17.8266231,20.1292198 17.7133476,20.2082136 C17.6711859,20.237613 17.6291111,20.2664773 17.5868061,20.2950265 C17.555621,20.3160735 17.5239407,20.337193 17.4921338,20.3581358 C17.4567626,20.3814231 17.4216198,20.4042454 17.3863255,20.4268521 C17.3243947,20.4665224 17.2617551,20.5056768 17.1986558,20.5441518 C17.1827268,20.5538657 17.1663651,20.5637791 17.1499727,20.5736468 C16.9909106,20.669385 16.8294868,20.760547 16.6653584,20.8472756 L16.6544872,20.8530116 C16.5340895,20.9164424 16.4122404,20.9774892 16.2890029,21.036089 C16.2410305,21.0588973 16.1932696,21.0811425 16.1453055,21.1030197 C16.1404562,21.1052316 16.1354147,21.1075262 16.130371,21.1098167 L15.9531614,21.1882187 C14.7406194,21.710609 13.4041017,22 12,22 Z M12,4 C7.58172,4 4,7.58172 4,12 C4,16.4183 7.58172,20 12,20 C13.1462571,20 14.236206,19.7589302 15.2219132,19.324724 L12,13 L12,4 L12,4 Z"/></svg>