<svg width="24" height="24" viewBox="0 0 24 24" xmlns="http://www.w3.org/2000/svg"><path d="M12,2 C17.514,2 22,6.486 22,12 C22,17.515 17.514,22 12,22 C6.486,22 2,17.515 2,12 C2,6.487 6.486,2 12,2 Z M12,4 C7.589,4 4,7.589 4,12 C4,16.411 7.589,20 12,20 C16.411,20 20,16.411 20,12 C20,7.589 16.411,4 12,4 Z M7.99984,10.66647 C8.73621783,10.66647 9.33317,11.2634222 9.33317,11.9998 C9.33317,12.7361778 8.73621783,13.33313 7.99984,13.33313 C7.26346217,13.33313 6.66651,12.7361778 6.66651,11.9998 C6.66651,11.2634222 7.26346217,10.66647 7.99984,10.66647 Z M11.9998,10.66647 C12.7361778,10.66647 13.33313,11.2634222 13.33313,11.9998 C13.33313,12.7361778 12.7361778,13.33313 11.9998,13.33313 C11.2634222,13.33313 10.66647,12.7361778 10.66647,11.9998 C10.66647,11.2634222 11.2634222,10.66647 11.9998,10.66647 Z M15.9998,10.66647 C16.7361778,10.66647 17.33313,11.2634222 17.33313,11.9998 C17.33313,12.7361778 16.7361778,13.33313 15.9998,13.33313 C15.2634222,13.33313 14.66647,12.7361778 14.66647,11.9998 C14.66647,11.2634222 15.2634222,10.66647 15.9998,10.66647 Z"/></svg>