<svg width="24" height="24" viewBox="0 0 24 24" xmlns="http://www.w3.org/2000/svg"><path d="M23,10 C23.2652,10 23.5196,10.1054 23.7071,10.2929 C23.8946,10.4804 24,10.7348 24,11 L24,23 C24,23.2652 23.8946,23.5196 23.7071,23.7071 C23.5196,23.8946 23.2652,24 23,24 L13,24 C12.7348,24 12.4804,23.8946 12.2929,23.7071 C12.1054,23.5196 12,23.2652 12,23 L12,11 C12,10.7348 12.1054,10.4804 12.2929,10.2929 C12.4804,10.1054 12.7348,10 13,10 L23,10 Z M22,12 L14,12 L14,22 L22,22 L22,12 Z M21,19 L21,21 L15,21 L15,19 L21,19 Z M10,0 C10.2652,0 10.5196,0.105357 10.7071,0.292893 C10.8946,0.48043 11,0.734784 11,1 L11,2 L14,2 C14.5304,2 15.0391,2.21071 15.4142,2.58579 C15.7893,2.96086 16,3.46957 16,4 L16,8 L14,8 L14,4 L11,4 L11,5 L12,5 C12.2652,5 12.5196,5.10536 12.7071,5.29289 C12.8946,5.48043 13,5.73478 13,6 L13,8 L11,8 L11,7 L5,7 L5,15 L10,15 L10,17 L4,17 C3.73478,17 3.48043,16.8946 3.29289,16.7071 C3.10536,16.5196 3,16.2652 3,16 L3,6 C3,5.73478 3.10536,5.48043 3.29289,5.29289 C3.48043,5.10536 3.73478,5 4,5 L5,5 L5,4 L2,4 L2,18 L10,18 L10,20 L2,20 C1.46957,20 0.960859,19.7893 0.585786,19.4142 C0.210714,19.0391 0,18.5304 0,18 L0,4 C0,3.46957 0.210714,2.96086 0.585786,2.58579 C0.960859,2.21071 1.46957,2 2,2 L5,2 L5,1 C5,0.734784 5.10536,0.48043 5.29289,0.292893 C5.48043,0.105357 5.73478,0 6,0 L10,0 Z M21,16 L21,18 L15,18 L15,16 L21,16 Z M21,13 L21,15 L17,15 L17,13 L21,13 Z M9,2 L7,2 L7,5 L9,5 L9,2 Z"/></svg>