<svg width="24" height="24" viewBox="0 0 24 24" xmlns="http://www.w3.org/2000/svg"><path d="M14,2 C14.2652,2 14.5196,2.10536 14.7071,2.29289 L19.7071,7.29289 C19.8946,7.48043 20,7.73478 20,8 L20,20 C20,21.1046 19.1046,22 18,22 L6,22 C4.89543,22 4,21.1046 4,20 L4,4 C4,2.89543 4.89543,2 6,2 L14,2 Z M12,4 L6,4 L6,20 L18,20 L18,10 L13,10 C12.4477,10 12,9.55228 12,9 L12,4 Z M12,12 C12.5523,12 13,12.4477 13,13 L13,13 L13,14 L14,14 C14.5523,14 15,14.4477 15,15 C15,15.5523 14.5523,16 14,16 L14,16 L13,16 L13,17 C13,17.5523 12.5523,18 12,18 C11.4477,18 11,17.5523 11,17 L11,17 L11,16 L10,16 C9.44772,16 9,15.5523 9,15 C9,14.4477 9.44772,14 10,14 L10,14 L11,14 L11,13 C11,12.4477 11.4477,12 12,12 Z M14,4.41421 L14,8 L17.5858,8 L14,4.41421 Z"/></svg>