<svg width="24" height="24" viewBox="0 0 24 24" xmlns="http://www.w3.org/2000/svg">
<path fill-rule="evenodd" clip-rule="evenodd" d="M22 7C23.104 7 24 7.896 24 9V19C24 20.104 23.104 21 22 21H20V24H10V21H8C8 22.104 7.104 23 6 23H2C0.896 23 0 22.104 0 21V6C0 4.896 0.897 4 2 4H5V1H7V4.278C7.595 4.625 8 5.263 8 6V7H12V9H18V7H22ZM2 6V21H6V6H2ZM18 22H12V18H18V22ZM20 16V19H22.002L22 9H20V11H10V9H8V19H10V16H20ZM12 3H18V5H20V1H10V5H12V3ZM12.7071 14.7071C13.0976 14.3166 13.0976 13.6834 12.7071 13.2929C12.3166 12.9024 11.6834 12.9024 11.2929 13.2929C10.9024 13.6834 10.9024 14.3166 11.2929 14.7071C11.6834 15.0976 12.3166 15.0976 12.7071 14.7071ZM15.7071 13.2929C16.0976 13.6834 16.0976 14.3166 15.7071 14.7071C15.3166 15.0976 14.6834 15.0976 14.2929 14.7071C13.9024 14.3166 13.9024 13.6834 14.2929 13.2929C14.6834 12.9024 15.3166 12.9024 15.7071 13.2929ZM18.7071 14.7071C19.0976 14.3166 19.0976 13.6834 18.7071 13.2929C18.3166 12.9024 17.6834 12.9024 17.2929 13.2929C16.9024 13.6834 16.9024 14.3166 17.2929 14.7071C17.6834 15.0976 18.3166 15.0976 18.7071 14.7071Z"/>
</svg>
