<svg width="24" height="24" viewBox="0 0 24 24" xmlns="http://www.w3.org/2000/svg">
<path fill-rule="evenodd" clip-rule="evenodd" d="M22 8H13V7C13 6.449 13.449 6 14 6H15C16.654 6 18 4.654 18 3V2H16V3C16 3.551 15.551 4 15 4H14C12.346 4 11 5.346 11 7V8H2C0.897 8 0 8.896 0 10V20C0 21.103 0.897 22 2 22H22C23.103 22 24 21.103 24 20V10C24 8.896 23.103 8 22 8ZM2 20V10H22L22.001 20H2ZM16 17H8V19H16V17ZM6.70711 11.2929C7.09763 11.6834 7.09763 12.3166 6.70711 12.7071C6.31659 13.0976 5.68342 13.0976 5.2929 12.7071C4.90238 12.3166 4.90238 11.6834 5.2929 11.2929C5.68342 10.9024 6.31659 10.9024 6.70711 11.2929ZM9.70711 12.7071C10.0976 12.3166 10.0976 11.6834 9.70711 11.2929C9.31659 10.9024 8.68342 10.9024 8.2929 11.2929C7.90238 11.6834 7.90238 12.3166 8.2929 12.7071C8.68342 13.0976 9.31659 13.0976 9.70711 12.7071ZM12.7071 11.2929C13.0976 11.6834 13.0976 12.3166 12.7071 12.7071C12.3166 13.0976 11.6834 13.0976 11.2929 12.7071C10.9024 12.3166 10.9024 11.6834 11.2929 11.2929C11.6834 10.9024 12.3166 10.9024 12.7071 11.2929ZM15.7071 12.7071C16.0976 12.3166 16.0976 11.6834 15.7071 11.2929C15.3166 10.9024 14.6834 10.9024 14.2929 11.2929C13.9024 11.6834 13.9024 12.3166 14.2929 12.7071C14.6834 13.0976 15.3166 13.0976 15.7071 12.7071ZM18.7071 11.2929C19.0976 11.6834 19.0976 12.3166 18.7071 12.7071C18.3166 13.0976 17.6834 13.0976 17.2929 12.7071C16.9024 12.3166 16.9024 11.6834 17.2929 11.2929C17.6834 10.9024 18.3166 10.9024 18.7071 11.2929ZM6.70711 15.7071C7.09763 15.3166 7.09763 14.6834 6.70711 14.2929C6.31659 13.9024 5.68342 13.9024 5.2929 14.2929C4.90238 14.6834 4.90238 15.3166 5.2929 15.7071C5.68342 16.0976 6.31659 16.0976 6.70711 15.7071ZM9.70711 14.2929C10.0976 14.6834 10.0976 15.3166 9.70711 15.7071C9.31659 16.0976 8.68342 16.0976 8.2929 15.7071C7.90238 15.3166 7.90238 14.6834 8.2929 14.2929C8.68342 13.9024 9.31659 13.9024 9.70711 14.2929ZM12.7071 15.7071C13.0976 15.3166 13.0976 14.6834 12.7071 14.2929C12.3166 13.9024 11.6834 13.9024 11.2929 14.2929C10.9024 14.6834 10.9024 15.3166 11.2929 15.7071C11.6834 16.0976 12.3166 16.0976 12.7071 15.7071ZM15.7071 14.2929C16.0976 14.6834 16.0976 15.3166 15.7071 15.7071C15.3166 16.0976 14.6834 16.0976 14.2929 15.7071C13.9024 15.3166 13.9024 14.6834 14.2929 14.2929C14.6834 13.9024 15.3166 13.9024 15.7071 14.2929ZM18.7071 15.7071C19.0976 15.3166 19.0976 14.6834 18.7071 14.2929C18.3166 13.9024 17.6834 13.9024 17.2929 14.2929C16.9024 14.6834 16.9024 15.3166 17.2929 15.7071C17.6834 16.0976 18.3166 16.0976 18.7071 15.7071Z"/>
</svg>
