<svg width="24" height="24" viewBox="0 0 24 24" xmlns="http://www.w3.org/2000/svg">
<path fill-rule="evenodd" clip-rule="evenodd" d="M4.32 7.47002V3.86902L3.773 4.41502L3 3.64202L4.48 2.16102C4.637 2.00402 4.871 1.95602 5.076 2.04202C5.28 2.12702 5.414 2.32702 5.414 2.54802V7.47002H4.32ZM22 4.00002H8V6.00002H22V4.00002ZM22 11H8V13H22V11ZM8 18H22V20H8V18ZM4.5 9.00002C3.673 9.00002 3 9.67302 3 10.5V11H4V10.5C4 10.224 4.225 10 4.5 10C4.776 10 5.001 10.224 5.001 10.5C5.001 10.989 4.038 12.254 3.147 13.146C3.004 13.289 2.961 13.503 3.039 13.691C3.116 13.879 3.298 14 3.5 14H6V13H4.638C5.261 12.266 6 11.238 6 10.5C6 9.67302 5.328 9.00002 4.5 9.00002ZM3 16.443L4.5 16.442C5.327 16.442 6 17.115 6 17.942C6 18.327 5.855 18.677 5.617 18.942C5.855 19.207 6 19.558 6 19.942C6 20.769 5.327 21.442 4.5 21.442H3.001L3 20.442H4.5C4.775 20.442 5 20.219 5 19.942C5 19.666 4.775 19.442 4.5 19.442H4V18.442H4.5C4.775 18.442 5 18.218 5 17.942C5 17.666 4.775 17.442 4.5 17.442L3.001 17.443L3 16.443Z"/>
</svg>
