<svg width="24" height="24" viewBox="0 0 24 24" xmlns="http://www.w3.org/2000/svg">
<path fill-rule="evenodd" clip-rule="evenodd" d="M3.00018 8.67568L5.57702 4H7V8.5C7 9.41211 6.35027 10 5 10C4.06212 10 3.00344 9.96467 3.00018 8.67568ZM7.93355 10.9982C7.23395 11.631 6.22302 12 5 12V16H19V12C17.777 12 16.766 11.631 16.0665 10.9982C15.525 11.6109 14.7942 12 14 12C13.2378 12 12.5341 11.6416 12 11.0712C11.4659 11.6416 10.7622 12 10 12C9.20579 12 8.475 11.6109 7.93355 10.9982ZM15 8.5V4H13V8.5C13 9.32198 13.562 10 14 10C14.438 10 15 9.32198 15 8.5ZM11 4H9V8.5C9 9.32198 9.562 10 10 10C10.438 10 11 9.32198 11 8.5V4ZM17 4V8.5C17 9.41211 17.6497 10 19 10C19.9379 10 20.9966 9.96467 20.9998 8.67568L18.423 4H17ZM21 12C21 11.8922 20.9829 11.7883 20.9514 11.691C22.2285 11.2161 23 10.1813 23 8.5V8.32382L19.9407 2.65989C19.8015 2.27504 19.4329 2 19 2H5C4.56713 2 4.1985 2.27504 4.05933 2.65989L1 8.32382V8.5C1 10.1813 1.77147 11.2161 3.04865 11.691C3.01707 11.7883 3 11.8922 3 12V17V20C3 20.1821 3.0487 20.3529 3.13379 20.5C3.0487 20.6471 3 20.8179 3 21C3 21.5523 3.44772 22 4 22H20C20.5523 22 21 21.5523 21 21C21 20.8179 20.9513 20.6471 20.8662 20.5C20.9513 20.3529 21 20.1821 21 20V17V12ZM19 20V18H5V20H19Z"/>
</svg>
