<svg width="24" height="24" viewBox="0 0 24 24" xmlns="http://www.w3.org/2000/svg"><path d="M9 20C8.44772 20 8 19.5523 8 19L8 17.4142 5.70711 19.7071C5.31658 20.0976 4.68342 20.0976 4.2929 19.7071 3.90237 19.3166 3.90237 18.6834 4.2929 18.2929L6.58579 16 5 16C4.44772 16 4 15.5523 4 15 4 14.4477 4.44772 14 5 14L9 14C9.26522 14 9.51957 14.1054 9.70711 14.2929 9.89465 14.4804 10 14.7348 10 15L10 19C10 19.5523 9.55229 20 9 20ZM15 4C15.5523 4 16 4.44772 16 5L16 6.58579 18.2929 4.2929C18.6834 3.90237 19.3166 3.90237 19.7071 4.2929 20.0976 4.68342 20.0976 5.31659 19.7071 5.70711L17.4142 8 19 8C19.5523 8 20 8.44772 20 9 20 9.55229 19.5523 10 19 10L15 10C14.7348 10 14.4804 9.89465 14.2929 9.70711 14.1054 9.51958 14 9.26522 14 9L14 5C14 4.44771 14.4477 4 15 4Z"/></svg>