<svg width="24" height="24" viewBox="0 0 24 24" xmlns="http://www.w3.org/2000/svg">
<path fill-rule="evenodd" clip-rule="evenodd" d="M13.4142 3.58676C14.1953 4.36781 14.1953 5.63414 13.4142 6.41519C12.6332 7.19624 11.3668 7.19624 10.5858 6.41519C9.80472 5.63414 9.80472 4.36781 10.5858 3.58676C11.3668 2.80571 12.6332 2.80571 13.4142 3.58676ZM13.4142 10.5868C14.1953 11.3678 14.1953 12.6342 13.4142 13.4152C12.6332 14.1963 11.3668 14.1963 10.5858 13.4152C9.80472 12.6342 9.80472 11.3678 10.5858 10.5868C11.3668 9.80572 12.6332 9.80572 13.4142 10.5868ZM13.4142 20.4152C14.1953 19.6342 14.1953 18.3678 13.4142 17.5868C12.6332 16.8057 11.3668 16.8057 10.5858 17.5868C9.80472 18.3678 9.80472 19.6342 10.5858 20.4152C11.3668 21.1963 12.6332 21.1963 13.4142 20.4152Z"/>
</svg>
