<svg width="24" height="24" viewBox="0 0 24 24" xmlns="http://www.w3.org/2000/svg"><path d="M14.3786681,15.1286625 C14.6715681,14.8357625 15.1464681,14.8357625 15.4393681,15.1286625 L15.4393681,15.1286625 L15.9696681,15.6589625 L16.4999681,15.1286625 C16.7928681,14.8357625 17.2677681,14.8357625 17.5606681,15.1286625 C17.8535681,15.4215625 17.8535681,15.8963625 17.5606681,16.1892625 L17.5606681,16.1892625 L17.0303681,16.7196625 L17.5606681,17.2499625 C17.8535681,17.5428625 17.8535681,18.0176625 17.5606681,18.3105625 C17.2677681,18.6034625 16.7928681,18.6034625 16.4999681,18.3105625 L16.4999681,18.3105625 L15.9696681,17.7802625 L15.4393681,18.3105625 C15.1464681,18.6034625 14.6715681,18.6034625 14.3786681,18.3105625 C14.0857681,18.0176625 14.0857681,17.5428625 14.3786681,17.2499625 L14.3786681,17.2499625 L14.9089681,16.7196625 L14.3786681,16.1892625 C14.0857681,15.8963625 14.0857681,15.4215625 14.3786681,15.1286625 Z M12.0589481,6.2696225 C13.1245681,5.2031425 14.8532681,5.2031425 15.9197681,6.2696225 C16.9862681,7.3361125 16.9862681,9.0647825 15.9197681,10.1304125 L15.9197681,10.1304125 L11.3634081,14.6878625 C10.5445581,15.5108625 9.43029805,15.9723625 8.26978805,15.9697734 L8.26978805,15.9697734 L6.21966746,15.9697734 L6.21966746,13.9196625 C6.21711805,12.7590625 6.67858805,11.6447625 7.50153805,10.8260925 L7.50153805,10.8260925 Z M14.6438681,7.5428225 C14.2755681,7.1745125 13.6832681,7.1582825 13.2944881,7.5052225 L13.2944881,7.5052225 L8.73795805,12.0625625 C8.24401805,12.5539325 7.96713805,13.2230625 7.96969032,13.9195625 L7.96969032,13.9195625 L7.96969032,14.2194806 L8.26969805,14.2194806 C8.96617805,14.2220625 9.63529805,13.9451625 10.1266781,13.4512625 L10.1266781,13.4512625 L14.6814681,8.8921725 C15.0292681,8.5041925 15.0121681,7.9119925 14.6438681,7.5428225 Z"/></svg>