<svg width="24" height="24" viewBox="0 0 24 24" xmlns="http://www.w3.org/2000/svg">
<path d="M20 14C19.705 14 19.428 14.067 19.176 14.182L17.561 13.029C17.838 12.407 18 11.723 18 11C18 9.982 17.691 9.037 17.167 8.247L19.488 5.926C19.652 5.969 19.822 6 20 6C21.104 6 22 5.105 22 4C22 2.896 21.104 2 20 2C18.895 2 18 2.896 18 4C18 4.178 18.031 4.348 18.074 4.512L15.753 6.833C14.963 6.309 14.018 6 13 6C11.485 6 10.143 6.691 9.225 7.759L5.996 5.965C5.978 4.878 5.092 4 4 4C2.895 4 2 4.896 2 6C2 7.105 2.895 8 4 8C4.375 8 4.721 7.891 5.021 7.711L8.252 9.507C8.104 9.981 8 10.477 8 11C8 12.018 8.309 12.963 8.833 13.753L4.512 18.074C4.348 18.031 4.178 18 4 18C2.895 18 2 18.896 2 20C2 21.105 2.895 22 4 22C5.104 22 6 21.105 6 20C6 19.822 5.969 19.652 5.926 19.488L10.247 15.167C10.771 15.515 11.363 15.77 12 15.898V18.277C11.404 18.624 11 19.261 11 20C11 21.105 11.895 22 13 22C14.104 22 15 21.105 15 20C15 19.263 14.596 18.625 14 18.277V15.898C14.916 15.712 15.731 15.264 16.391 14.651L18.019 15.814C18.013 15.876 18 15.936 18 16C18 17.105 18.895 18 20 18C21.104 18 22 17.105 22 16C22 14.896 21.104 14 20 14ZM13 14C11.346 14 10 12.654 10 11C10 9.346 11.346 8 13 8C14.654 8 16 9.346 16 11C16 12.654 14.654 14 13 14Z"/>
</svg>
