<svg width="24" height="24" viewBox="0 0 24 24" xmlns="http://www.w3.org/2000/svg"><path d="M20.5,17 C21.0523,17 21.5,17.4477 21.5,18 L21.5,18 L21.5,19 L22.5,19 C23.0523,19 23.5,19.4477 23.5,20 C23.5,20.5523 23.0523,21 22.5,21 L22.5,21 L21.5,21 L21.5,22 C21.5,22.5523 21.0523,23 20.5,23 C19.9477,23 19.5,22.5523 19.5,22 L19.5,22 L19.5,21 L18.5,21 C17.9477,21 17.5,20.5523 17.5,20 C17.5,19.4477 17.9477,19 18.5,19 L18.5,19 L19.5,19 L19.5,18 C19.5,17.4477 19.9477,17 20.5,17 Z M8.78197,1 C10.0979,1 11.1773,2.07935 11.1773,3.39523 C11.1773,4.09108 11.0084,4.86748 10.7814,5.65921 C10.6228,6.21274 10.4296,6.79323 10.237,7.37191 C10.171,7.57033 10.105,7.76854 10.0406,7.96538 C10.7325,9.2339 11.6649,10.432 12.6815,11.4164 C14.0719,10.964 15.8412,10.5406 17.1047,10.5406 C18.4206,10.5406 19.5,11.6201 19.5,12.936 C19.5,14.2518 18.4206,15.3313 17.1047,15.3313 C15.4908,15.3313 13.57,14.641 12.1912,13.5865 C10.4957,14.0053 8.73976,14.67 7.0368,15.339 C6.27776,16.7669 5.41105,18.3502 4.65985,19.2475 L4.64543,19.2647 L4.62901,19.2801 C4.61373,19.2943 4.59886,19.307 4.58526,19.3179 C4.13354,19.7691 3.52041,20 2.89531,20 C1.57943,20 0.5,18.9206 0.5,17.6047 C0.5,16.9661 0.74726,16.3666 1.17421,15.9232 C1.19239,15.9008 1.21275,15.8779 1.23503,15.8556 L1.24888,15.8417 L1.26413,15.8295 C1.80921,15.3902 2.51913,15.034 3.30734,14.6997 C3.81678,14.4837 4.3774,14.2695 4.96121,14.0465 C5.23597,13.9416 5.51588,13.8346 5.79799,13.7246 C6.65099,12.0297 7.33088,10.0401 7.93846,8.14515 C7.5547,7.37473 7.17942,6.57348 6.89489,5.79347 C6.59505,4.97149 6.38689,4.14929 6.38689,3.3953 C6.38689,2.0795 7.4662,1 8.78197,1 Z M4.14196,16.5009 C3.92641,16.5926 3.72276,16.6822 3.53435,16.7693 C3.09279,16.9735 2.75797,17.1543 2.55158,17.3071 C2.49385,17.3817 2.44869,17.4961 2.44869,17.6046 C2.44869,17.8587 2.64113,18.0512 2.89528,18.0512 C3.03729,18.0512 3.12391,18.0109 3.18761,17.9553 C3.4414,17.6447 3.77532,17.1227 4.14196,16.5009 Z M17.1049,12.4893 C16.5887,12.4893 15.7735,12.642 14.9016,12.8573 C15.6877,13.1807 16.5025,13.3825 17.1049,13.3825 C17.359,13.3825 17.5514,13.1901 17.5514,12.9359 C17.5514,12.6818 17.359,12.4893 17.1049,12.4893 Z M9.24102,10.3577 C8.97222,11.1568 8.687,11.9632 8.365,12.7589 C9.08652,12.494 9.8182,12.2417 10.5615,12.0199 C10.0911,11.4993 9.6479,10.9428 9.24102,10.3577 Z M8.7822,2.94872 C8.52805,2.94872 8.33561,3.14116 8.33561,3.3953 C8.33561,3.65271 8.42282,4.04679 8.58785,4.54914 C8.66003,4.76886 8.74478,5.0026 8.83876,5.24581 C8.90977,5.00177 8.97435,4.76848 9.02978,4.55005 C9.15798,4.04486 9.22879,3.65048 9.22879,3.3953 C9.22879,3.14116 9.03635,2.94872 8.7822,2.94872 Z"/></svg>