<svg width="24" height="24" viewBox="0 0 24 24" xmlns="http://www.w3.org/2000/svg">
<path fill-rule="evenodd" clip-rule="evenodd" d="M15 21.999H17C18.103 21.999 19 21.102 19 19.999V13.999H21C21.404 13.999 21.769 13.756 21.924 13.382C22.079 13.009 21.993 12.579 21.707 12.293L12.707 3.29299C12.316 2.90299 11.684 2.90299 11.293 3.29299L2.29301 12.293C2.00701 12.579 1.92101 13.009 2.07601 13.382C2.23101 13.756 2.59601 13.999 3.00001 13.999H5.00001V19.999C5.00001 21.103 5.89701 21.999 7.00001 21.999H9.00001C10.103 21.999 11 21.103 11 19.999V16.999H13V19.999C13 21.103 13.897 21.999 15 21.999ZM14 14.999H10C9.44701 14.999 9.00001 15.447 9.00001 15.999V19.999H7.00001V12.999C7.00001 12.448 6.55201 11.999 6.00001 11.999H5.41401L12 5.41399L18.586 11.999H18C17.448 11.999 17 12.448 17 12.999L17.001 19.999H15V15.999C15 15.448 14.552 14.999 14 14.999Z"/>
</svg>
