<svg width="24" height="24" viewBox="0 0 24 24" xmlns="http://www.w3.org/2000/svg">
<path fill-rule="evenodd" clip-rule="evenodd" d="M12 2.00098C6.486 2.00098 2 6.48698 2 12.001C2 17.515 6.486 22.001 12 22.001C17.514 22.001 22 17.515 22 12.001C22 6.48698 17.514 2.00098 12 2.00098ZM12 20.001C7.589 20.001 4 16.412 4 12.001C4 7.58998 7.589 4.00098 12 4.00098C16.411 4.00098 20 7.58998 20 12.001C20 16.412 16.411 20.001 12 20.001ZM11 11.001V7.00098H13V11.001H17V13.001H13V17.001H11V13.001H7V11.001H11Z"/>
</svg>
