<svg width="24" height="24" viewBox="0 0 24 24" xmlns="http://www.w3.org/2000/svg"><path d="M6,19 L3,19 C2.73478,19 2.48043,18.8946 2.29289,18.7071 C2.10536,18.5196 2,18.2652 2,18 L2,8 C2,7.73478 2.10536,7.48043 2.29289,7.29289 C2.48043,7.10536 2.73478,7 3,7 L6,7 L6,3 C6,2.73478 6.10536,2.48043 6.29289,2.29289 C6.48043,2.10536 6.73478,2 7,2 L17,2 C17.2652,2 17.5196,2.10536 17.7071,2.29289 C17.8946,2.48043 18,2.73478 18,3 L18,7 L21,7 C21.2652,7 21.5196,7.10536 21.7071,7.29289 C21.8946,7.48043 22,7.73478 22,8 L22,18 C22,18.2652 21.8946,18.5196 21.7071,18.7071 C21.5196,18.8946 21.2652,19 21,19 L18,19 L18,21 C18,21.2652 17.8946,21.5196 17.7071,21.7071 C17.5196,21.8946 17.2652,22 17,22 L7,22 C6.73478,22 6.48043,21.8946 6.29289,21.7071 C6.10536,21.5196 6,21.2652 6,21 L6,19 Z M6,17 L6,16 C6,15.7348 6.10536,15.4804 6.29289,15.2929 C6.48043,15.1054 6.73478,15 7,15 L17,15 C17.2652,15 17.5196,15.1054 17.7071,15.2929 C17.8946,15.4804 18,15.7348 18,16 L18,17 L20,17 L20,9 L12,9 L4,9 L4,17 L6,17 Z M8,4 L8,7 L16,7 L16,4 L8,4 Z M8,17 L8,20 L16,20 L16,17 L8,17 Z M5,10 L8,10 L8,12 L5,12 L5,10 Z"/></svg>