<svg width="24" height="24" viewBox="0 0 24 24" xmlns="http://www.w3.org/2000/svg">
<path fill-rule="evenodd" clip-rule="evenodd" d="M20 7.99999H16.885C17.336 7.76599 17.764 7.47899 18.121 7.12099C19.291 5.95199 19.291 4.04899 18.121 2.87899C16.987 1.74599 15.013 1.74599 13.879 2.87899C12.242 4.51599 12.02 7.59699 12 7.94299C11.98 7.59599 11.758 4.51499 10.121 2.87899C8.987 1.74599 7.011 1.74699 5.879 2.87899C5.313 3.44499 5 4.19899 5 4.99999C5 5.80099 5.313 6.55499 5.879 7.12099C6.236 7.47899 6.663 7.76499 7.115 7.99999H4C2.896 7.99999 2 8.89699 2 9.99999V13C2 13.552 2.447 14 3 14V20C3 21.103 3.896 22 5 22H19C20.104 22 21 21.103 21 20V14C21.553 14 22 13.552 22 13V9.99999C22 8.89699 21.104 7.99999 20 7.99999ZM8 20H5V14H8V20ZM4 12H8V9.99999H4V12ZM7.293 5.70699C7.104 5.51799 7 5.26699 7 4.99999C7 4.73299 7.104 4.48199 7.293 4.29299C7.482 4.10399 7.732 4.00099 8 4.00099C8.268 4.00099 8.518 4.10499 8.707 4.29399C9.297 4.88299 9.641 5.94099 9.825 6.82399C8.945 6.63899 7.88 6.29499 7.293 5.70699ZM10 14V20H14V14H10ZM10 12V9.99999H14V12H10ZM16 4.00099C15.732 4.00099 15.482 4.10499 15.293 4.29399C14.703 4.88399 14.358 5.94299 14.174 6.82599C15.057 6.64299 16.116 6.29799 16.707 5.70699C17.097 5.31699 17.096 4.68399 16.707 4.29299C16.518 4.10499 16.268 4.00099 16 4.00099ZM19 20H16V14H19V20ZM16 12H20V9.99999H16V12Z"/>
</svg>
