<svg width="25" height="25" viewBox="0 0 25 25" xmlns="http://www.w3.org/2000/svg">
<path fill-rule="evenodd" clip-rule="evenodd" d="M2.99902 2.99799V18.998H11.587C11.88 19.724 12.277 20.397 12.76 20.998H1.99902C1.44602 20.998 0.999023 20.551 0.999023 19.998V1.99799C0.999023 1.44599 1.44602 0.997986 1.99902 0.997986H9.99902C10.265 0.997986 10.519 1.10399 10.706 1.29099L16.706 7.29099C16.894 7.47899 16.999 7.73299 16.999 7.99799V8.26199C16.289 8.44399 15.618 8.71999 14.999 9.07799V8.99799H9.99902C9.44602 8.99799 8.99902 8.55099 8.99902 7.99799V2.99799H2.99902ZM7.99902 6.99799H3.99902V8.99799H7.99902V6.99799ZM3.99902 10.998H12.76C12.276 11.6 11.88 12.272 11.586 12.998H3.99902V10.998ZM3.99902 14.998V16.998H11.068C11.027 16.67 10.999 16.338 10.999 15.998C10.999 15.659 11.027 15.328 11.068 14.998H3.99902ZM10.999 4.41199L13.585 6.99699H10.999V4.41199ZM12.999 15.998C12.999 12.69 15.69 9.99799 18.999 9.99799C22.308 9.99799 24.999 12.69 24.999 15.998C24.999 18.213 23.79 20.147 21.999 21.187V23.998C21.999 24.403 21.755 24.767 21.382 24.923C21.007 25.078 20.577 24.992 20.292 24.706L18.999 23.413L17.706 24.706C17.42 24.992 16.991 25.077 16.616 24.923C16.243 24.767 15.999 24.403 15.999 23.998V21.187C14.208 20.147 12.999 18.213 12.999 15.998ZM18.999 19.998C16.794 19.998 14.999 18.204 14.999 15.998C14.999 13.793 16.794 11.998 18.999 11.998C21.204 11.998 22.999 13.793 22.999 15.998C22.999 18.203 21.204 19.998 18.999 19.998ZM18.999 14.998C18.999 14.446 19.446 13.998 19.999 13.998C20.552 13.998 20.999 14.445 20.999 14.998C20.999 15.998 18.999 17.998 18.999 17.998C18.999 17.998 16.999 15.998 16.999 14.998C16.999 14.446 17.446 13.998 17.999 13.998C18.552 13.998 18.999 14.446 18.999 14.998Z"/>
</svg>
