<svg width="24" height="24" viewBox="0 0 24 24" xmlns="http://www.w3.org/2000/svg">
<path fill-rule="evenodd" clip-rule="evenodd" d="M20 4H10C8.896 4 8 4.898 8 6V7H6C3.795 7 2 8.794 2 11V17C2 17.552 2.447 18 3 18H5.185C5.599 19.162 6.698 20 8 20C9.302 20 10.401 19.162 10.816 18H14.184C14.598 19.162 15.698 20 16.999 20C18.3 20 19.4 19.162 19.815 18H21C21.553 18 22 17.552 22 17V6C22 4.898 21.104 4 20 4ZM20 16H19.816C19.401 14.838 18.301 14 17 14C15.699 14 14.599 14.838 14.184 16H10.817C10.647 15.526 10.367 15.111 10.001 14.781V6H20V16ZM6 9C4.896 9 4 9.897 4 11V16H5.184C5.599 14.838 6.698 14 8 14V9H6ZM8 18C7.449 18 7 17.552 7 17C7 16.449 7.449 16 8 16C8.551 16 9 16.449 9 17C9 17.552 8.551 18 8 18ZM16 17C16 17.552 16.449 18 17 18C17.551 18 18 17.552 18 17C18 16.449 17.551 16 17 16C16.449 16 16 16.449 16 17Z"/>
</svg>
