<svg width="24" height="24" viewBox="0 0 24 24" xmlns="http://www.w3.org/2000/svg"><path d="M22.7119,2.5 L5,2.5 L5,3.70796 L2,4.0199 C2,4.0199 3.09665,4.64115 3.98013,6.72478 L1.88441,7.06623 L0,7.37324 C0,7.37324 0.734755,7.47734 1.66908,8.11449 C2.77446,8.86828 4.15916,10.3681 4.93701,13.3244 C4.95847,13.4059 4.97948,13.4886 5,13.5724 L5,21.5 L22.6582,21.5 C24,21.5 24,20.1915 24,20.1915 L24,3.86298 C24,2.79986 23.5438,2.5 22.7119,2.5 Z M4.33262,7.68054 C4.57656,8.44585 4.78366,9.35841 4.91663,10.4422 C4.38927,9.41681 3.78024,8.63666 3.16345,8.0456 C3.11018,7.99455 3.05698,7.94504 3.0039,7.89702 L4.33262,7.68054 Z M6.98235,14.7413 C6.95155,14.4358 7.22879,14.222 7.47523,14.4053 C7.94697,14.7562 8.1083,14.8272 8.60742,15.0469 L8.67663,15.0774 C9.23112,15.2913 9.78562,15.4135 10.3093,15.4135 C10.8638,15.4135 11.2951,15.3218 11.6031,15.108 C11.942,14.8941 12.096,14.6191 12.096,14.2525 C12.096,13.9776 12.0036,13.7332 11.8496,13.5499 C11.6955,13.3666 11.3875,13.2443 10.9562,13.1221 C10.6482,13.061 10.0937,12.9388 9.35434,12.7555 C8.58422,12.5722 7.99892,12.2362 7.59846,11.7779 C7.19799,11.3196 7.01316,10.7392 7.01316,10.0059 C7.01316,9.15052 7.35202,8.44785 8.02973,7.92848 C8.70744,7.37856 9.60079,7.13416 10.6482,7.13416 C11.6031,7.13416 12.4965,7.25636 13.3282,7.62297 C13.6979,7.77573 13.6671,8.17289 13.6671,8.17289 L13.6671,8.90611 C13.7287,9.39493 13.2358,9.6699 12.8661,9.33382 C12.2192,8.87556 11.7263,8.63115 10.679,8.63115 C10.1861,8.63115 9.75481,8.72281 9.44676,8.93666 C9.1079,9.15052 8.95388,9.39493 8.95388,9.7615 C8.95388,10.067 9.0463,10.2809 9.23112,10.4642 C9.41596,10.6475 9.72401,10.7697 10.1861,10.8919 C10.4741,10.9491 10.7741,11.0181 11.0935,11.0915 L11.0937,11.0916 L11.0939,11.0916 L11.094,11.0916 C11.2869,11.136 11.4868,11.182 11.6955,11.228 C12.25,11.3807 12.6505,11.5335 12.9277,11.7168 C13.205,11.9001 13.4206,12.0834 13.5746,12.2973 C13.7287,12.5111 13.8519,12.7555 13.9443,12.9999 C14.0367,13.2443 14.0675,13.5499 14.0675,13.8554 C14.0675,14.7719 13.6979,15.4746 13.0201,16.055 C12.3424,16.6355 11.3567,17.0021 10.2169,16.941 C8.86146,16.8799 7.38282,16.3911 7.38282,16.3911 C7.37017,16.3827 7.35348,16.3732 7.33409,16.3622 C7.21184,16.2925 6.98235,16.1618 6.98235,15.8717 L6.98235,14.7413 Z M20.7255,16.675 C20.2083,16.675 20.0562,16.2132 20.0562,15.9668 L20.0562,13.3803 L17.0138,13.3803 L17.0138,16.6442 L15.7664,16.6442 C15.2492,16.6442 15.158,16.1824 15.158,15.936 L15.158,7.40675 L16.2836,7.40675 C16.527,7.40675 17.0138,7.40675 17.0138,8.20733 L17.0138,11.4097 L20.0562,11.4097 L20.0562,7.40675 L21.2427,7.40675 C21.4861,7.40675 21.9729,7.40675 21.9729,8.20733 L21.9729,16.675 L20.7255,16.675 Z"/></svg>