<svg xmlns="http://www.w3.org/2000/svg" width="24" height="24" viewBox="0 0 24 24"><path d="M19.859375,13.1601562 C21.078125,13.1601562 22.1386719,13.8691406 22.1386719,15.3457031 C22.1386719,17.0507812 20.7207031,18.4980469 18.4882812,20.15625 L18.4882812,20.15625 L21.59375,20.15625 C21.6289062,19.875 21.6816406,19.5996094 21.7285156,19.3945312 C21.78125,19.3652344 21.9101562,19.3476562 22.0390625,19.3476562 C22.1914062,19.3476562 22.3496094,19.3710938 22.3964844,19.4179688 C22.4140625,19.453125 22.4375,19.828125 22.4375,20.15625 L22.4375,20.15625 L22.4375,21 L17.1757812,21 L17.1757812,20.15625 C20.609375,17.7304688 21.3125,16.3125 21.3125,15.4394531 C21.3125,14.5605469 20.6152344,14.0097656 19.6367188,14.0097656 C19.2734375,14.0097656 18.8808594,14.0859375 18.5292969,14.2148438 C18.4941406,14.8066406 18.40625,15.1875 18.3476562,15.3574219 C18.2070312,15.421875 17.7851562,15.4277344 17.6796875,15.3339844 C17.6621094,15.2988281 17.6386719,15.0292969 17.6386719,13.78125 C18.2246094,13.40625 19.1445312,13.1601562 19.859375,13.1601562 Z M5.07226562,3 C5.37988281,3 5.79003906,3.01464844 6.11230469,3.02929688 C6.2734375,3.04394531 6.40527344,3.04394531 6.5078125,3.05859375 C6.72753906,3.08789062 6.7421875,3.13183594 6.80078125,3.3515625 C6.81542969,3.46875 6.83007812,3.5859375 6.83007812,3.71777344 C6.83007812,3.96679688 6.80078125,4.23046875 6.7421875,4.34765625 C6.46386719,4.40625 6.09765625,4.47949219 5.6875,4.53808594 L8.57324219,8.65429688 L11.4296875,4.55273438 C10.9755859,4.47949219 10.5800781,4.40625 10.3017578,4.34765625 C10.2431641,4.23046875 10.2138672,3.96679688 10.2138672,3.71777344 C10.2138672,3.46875 10.2578125,3.21972656 10.3603516,3.10253906 C10.375,3.08789062 10.4335938,3.07324219 10.5361328,3.05859375 C10.7558594,3.02929688 11.0927734,3.01464844 11.4589844,3 L13.2314453,3 C13.5390625,3 13.9492188,3.01464844 14.2714844,3.02929688 C14.4326172,3.04394531 14.5644531,3.04394531 14.6669922,3.05859375 C14.8867188,3.08789062 14.9013672,3.13183594 14.9599609,3.3515625 C14.9746094,3.46875 14.9892578,3.5859375 14.9892578,3.71777344 C14.9892578,3.96679688 14.9599609,4.23046875 14.9013672,4.34765625 C14.5644531,4.42089844 14.0517578,4.50878906 13.5244141,4.58203125 L9.62792969,10.1777344 L14.1103516,16.5791016 L15.1064453,16.7109375 C15.4287109,16.7548828 15.6923828,16.8134766 15.9121094,16.8574219 C15.9707031,16.9746094 16,17.2382812 16,17.4873047 C16,17.7363281 15.9560547,17.9853516 15.8535156,18.1025391 C15.8388672,18.1171875 15.7802734,18.1318359 15.6777344,18.1464844 C15.4580078,18.1611328 15.1210938,18.1904297 14.7548828,18.1904297 C14.5644531,18.2050781 14.4033203,18.2050781 14.2421875,18.2050781 L12.9824219,18.2050781 C12.6455078,18.2050781 12.2792969,18.1904297 11.9570312,18.1757812 C11.7958984,18.1611328 11.6494141,18.1611328 11.546875,18.1464844 C11.3271484,18.1318359 11.3125,18.0732422 11.2685547,17.8388672 C11.2392578,17.7363281 11.2246094,17.6191406 11.2246094,17.4873047 C11.2246094,17.2382812 11.2539062,16.9746094 11.3125,16.8574219 C11.5029297,16.8134766 11.7666016,16.7695312 12.0888672,16.7255859 L8.5,11.5839844 L4.92578125,16.7255859 C5.07226562,16.7402344 5.20410156,16.7695312 5.3359375,16.7841797 C5.46777344,16.8134766 5.58496094,16.8427734 5.6875,16.8574219 C5.74609375,16.9746094 5.77539062,17.2382812 5.77539062,17.4873047 C5.77539062,17.7363281 5.73144531,17.9853516 5.62890625,18.1025391 C5.61425781,18.1171875 5.55566406,18.1318359 5.453125,18.1464844 C5.23339844,18.1611328 4.89648438,18.1904297 4.53027344,18.1904297 C4.33984375,18.2050781 4.17871094,18.2050781 4.01757812,18.2050781 L2.7578125,18.2050781 C2.42089844,18.2050781 2.0546875,18.1904297 1.73242188,18.1757812 C1.57128906,18.1611328 1.42480469,18.1611328 1.32226562,18.1464844 C1.10253906,18.1318359 1.08789062,18.0732422 1.04394531,17.8388672 C1.01464844,17.7363281 1,17.6191406 1,17.4873047 C1,17.2382812 1.02929688,16.9746094 1.08789062,16.8574219 C1.51269531,16.7548828 2.21582031,16.6523438 2.90429688,16.5791016 L7.4453125,10.0751953 L3.60742188,4.59667969 C3.03613281,4.5234375 2.49414062,4.42089844 2.14257812,4.34765625 C2.08398438,4.23046875 2.0546875,3.96679688 2.0546875,3.71777344 C2.0546875,3.46875 2.09863281,3.21972656 2.20117188,3.10253906 C2.21582031,3.08789062 2.27441406,3.07324219 2.37695312,3.05859375 C2.59667969,3.02929688 2.93359375,3.01464844 3.29980469,3 L5.07226562,3 Z"/></svg>