<svg xmlns="http://www.w3.org/2000/svg" width="24" height="24" viewBox="0 0 24 24"><path d="M5.07226562,6 C5.37988281,6 5.79003906,6.01464844 6.11230469,6.02929688 C6.2734375,6.04394531 6.40527344,6.04394531 6.5078125,6.05859375 C6.72753906,6.08789062 6.7421875,6.13183594 6.80078125,6.3515625 C6.81542969,6.46875 6.83007812,6.5859375 6.83007812,6.71777344 C6.83007812,6.96679688 6.80078125,7.23046875 6.7421875,7.34765625 C6.46386719,7.40625 6.09765625,7.47949219 5.6875,7.53808594 L8.57324219,11.6542969 L11.4296875,7.55273438 C10.9755859,7.47949219 10.5800781,7.40625 10.3017578,7.34765625 C10.2431641,7.23046875 10.2138672,6.96679688 10.2138672,6.71777344 C10.2138672,6.46875 10.2578125,6.21972656 10.3603516,6.10253906 C10.375,6.08789062 10.4335938,6.07324219 10.5361328,6.05859375 C10.7558594,6.02929688 11.0927734,6.01464844 11.4589844,6 L13.2314453,6 C13.5390625,6 13.9492188,6.01464844 14.2714844,6.02929688 C14.4326172,6.04394531 14.5644531,6.04394531 14.6669922,6.05859375 C14.8867188,6.08789062 14.9013672,6.13183594 14.9599609,6.3515625 C14.9746094,6.46875 14.9892578,6.5859375 14.9892578,6.71777344 C14.9892578,6.96679688 14.9599609,7.23046875 14.9013672,7.34765625 C14.5644531,7.42089844 14.0517578,7.50878906 13.5244141,7.58203125 L9.62792969,13.1777344 L14.1103516,19.5791016 L15.1064453,19.7109375 C15.4287109,19.7548828 15.6923828,19.8134766 15.9121094,19.8574219 C15.9707031,19.9746094 16,20.2382812 16,20.4873047 C16,20.7363281 15.9560547,20.9853516 15.8535156,21.1025391 C15.8388672,21.1171875 15.7802734,21.1318359 15.6777344,21.1464844 C15.4580078,21.1611328 15.1210938,21.1904297 14.7548828,21.1904297 C14.5644531,21.2050781 14.4033203,21.2050781 14.2421875,21.2050781 L12.9824219,21.2050781 C12.6455078,21.2050781 12.2792969,21.1904297 11.9570312,21.1757812 C11.7958984,21.1611328 11.6494141,21.1611328 11.546875,21.1464844 C11.3271484,21.1318359 11.3125,21.0732422 11.2685547,20.8388672 C11.2392578,20.7363281 11.2246094,20.6191406 11.2246094,20.4873047 C11.2246094,20.2382812 11.2539062,19.9746094 11.3125,19.8574219 C11.5029297,19.8134766 11.7666016,19.7695312 12.0888672,19.7255859 L8.5,14.5839844 L4.92578125,19.7255859 C5.07226562,19.7402344 5.20410156,19.7695312 5.3359375,19.7841797 C5.46777344,19.8134766 5.58496094,19.8427734 5.6875,19.8574219 C5.74609375,19.9746094 5.77539062,20.2382812 5.77539062,20.4873047 C5.77539062,20.7363281 5.73144531,20.9853516 5.62890625,21.1025391 C5.61425781,21.1171875 5.55566406,21.1318359 5.453125,21.1464844 C5.23339844,21.1611328 4.89648438,21.1904297 4.53027344,21.1904297 C4.33984375,21.2050781 4.17871094,21.2050781 4.01757812,21.2050781 L2.7578125,21.2050781 C2.42089844,21.2050781 2.0546875,21.1904297 1.73242188,21.1757812 C1.57128906,21.1611328 1.42480469,21.1611328 1.32226562,21.1464844 C1.10253906,21.1318359 1.08789062,21.0732422 1.04394531,20.8388672 C1.01464844,20.7363281 1,20.6191406 1,20.4873047 C1,20.2382812 1.02929688,19.9746094 1.08789062,19.8574219 C1.51269531,19.7548828 2.21582031,19.6523438 2.90429688,19.5791016 L7.4453125,13.0751953 L3.60742188,7.59667969 C3.03613281,7.5234375 2.49414062,7.42089844 2.14257812,7.34765625 C2.08398438,7.23046875 2.0546875,6.96679688 2.0546875,6.71777344 C2.0546875,6.46875 2.09863281,6.21972656 2.20117188,6.10253906 C2.21582031,6.08789062 2.27441406,6.07324219 2.37695312,6.05859375 C2.59667969,6.02929688 2.93359375,6.01464844 3.29980469,6 L5.07226562,6 Z M19.6835938,3 C20.9023438,3 21.9628906,3.70898438 21.9628906,5.18554688 C21.9628906,6.890625 20.5449219,8.33789062 18.3125,9.99609375 L18.3125,9.99609375 L21.4179688,9.99609375 C21.453125,9.71484375 21.5058594,9.43945312 21.5527344,9.234375 C21.6054688,9.20507812 21.734375,9.1875 21.8632812,9.1875 C22.015625,9.1875 22.1738281,9.2109375 22.2207031,9.2578125 C22.2382812,9.29296875 22.2617188,9.66796875 22.2617188,9.99609375 L22.2617188,9.99609375 L22.2617188,10.8398438 L17,10.8398438 L17,9.99609375 C20.4335938,7.5703125 21.1367188,6.15234375 21.1367188,5.27929688 C21.1367188,4.40039062 20.4394531,3.84960938 19.4609375,3.84960938 C19.0976562,3.84960938 18.7050781,3.92578125 18.3535156,4.0546875 C18.3183594,4.64648438 18.2304688,5.02734375 18.171875,5.19726562 C18.03125,5.26171875 17.609375,5.26757812 17.5039062,5.17382812 C17.4863281,5.13867188 17.4628906,4.86914062 17.4628906,3.62109375 C18.0488281,3.24609375 18.96875,3 19.6835938,3 Z"/></svg>