<svg width="24" height="24" viewBox="0 0 24 24" xmlns="http://www.w3.org/2000/svg"><path d="M21,16 L21,19 L24,19 L24,21 L21,21 L21,24 L19,24 L19,21 L16,21 L16,19 L19,19 L19,16 L21,16 Z M17,0 C18.5976809,0 19.9036609,1.24891996 19.9949073,2.82372721 L20,3 L20,14.0037364 L13.9973954,14.003 L13.9981318,20.0056046 L5.99626358,20.0056046 L5.99539537,19.999 L3,20 C1.40231912,20 0.0963391206,18.75108 0.00509269341,17.1762728 L0,17 L-0.000604633979,14.003 L-0.00560463398,14.0037364 L-0.00560463398,3 C-0.00560463398,1.40231912 1.24331533,0.0963391206 2.81812258,0.00509269341 L2.99439537,0 L17,0 Z M11.9973954,14.003 L8.00139537,14.003 L8.00139537,18.004 L11.9973954,18.005 L11.9973954,14.003 Z M17.9993954,8.001 L13.9973954,8.001 L13.9973954,12.003 L17.9993954,12.003 L17.9993954,8.001 Z M11.9973954,8.001 L7.99539537,8.001 L7.99539537,11.998 L8.00186821,11.9981318 L8.00139537,12.003 L11.9973954,12.003 L11.9973954,8.001 Z M11.9973954,2 L7.99539537,1.999 L7.99539537,6 L11.9973954,6.001 L11.9973954,2 Z M17,2 L13.9973954,2 L13.9973954,6.001 L17.9993954,6.001 L18,3 C18,2.52661307 17.6710663,2.13005271 17.2292908,2.02641071 L17.1166211,2.00672773 L17,2 Z" fill-rule="evenodd"/></svg>
