<svg width="24" height="24" viewBox="0 0 24 24" xmlns="http://www.w3.org/2000/svg">
<path fill-rule="evenodd" clip-rule="evenodd" d="M19.22 13H20C21.103 13 22 13.896 22 15V19C22 19.737 21.595 20.375 21 20.723V21C21 22.104 20.104 23 19 23C17.896 23 17 22.104 17 21H7C7 22.104 6.104 23 5 23C3.896 23 3 22.104 3 21V20.723C2.405 20.375 2 19.737 2 19V15C2 13.896 2.897 13 4 13H4.78L5.698 8.411C5.977 7.014 7.214 6 8.64 6H9L10 4H14L15 6H15.36C16.786 6 18.023 7.014 18.302 8.412L19.22 13ZM8.64 8C8.165 8 7.752 8.338 7.659 8.803L6.82 13H17.181L16.341 8.804C16.248 8.338 15.836 8 15.361 8H8.64ZM4 19V15H20L20.001 19H4ZM7.70711 17.7071C8.09763 17.3166 8.09763 16.6834 7.70711 16.2929C7.31659 15.9024 6.68342 15.9024 6.2929 16.2929C5.90238 16.6834 5.90238 17.3166 6.2929 17.7071C6.68342 18.0976 7.31659 18.0976 7.70711 17.7071ZM17.7071 16.2929C18.0976 16.6834 18.0976 17.3166 17.7071 17.7071C17.3166 18.0976 16.6834 18.0976 16.2929 17.7071C15.9024 17.3166 15.9024 16.6834 16.2929 16.2929C16.6834 15.9024 17.3166 15.9024 17.7071 16.2929ZM14 16H10V18H14V16Z"/>
</svg>
