<svg width="24" height="24" viewBox="0 0 24 24" xmlns="http://www.w3.org/2000/svg">
<path fill-rule="evenodd" clip-rule="evenodd" d="M18.895 1.4471C19.142 0.953103 18.942 0.352103 18.448 0.106103C17.953 -0.141897 17.353 0.0601031 17.106 0.553103L15.882 3.0001H18.118L18.895 1.4471ZM2 4.0001H22C23.103 4.0001 24 4.8961 24 6.0001V18.0001C24 19.1031 23.103 20.0001 22 20.0001H19.414L21.707 22.2931C22.098 22.6841 22.098 23.3171 21.707 23.7071C21.512 23.9021 21.256 24.0001 21 24.0001C20.744 24.0001 20.488 23.9021 20.293 23.7071L16.586 20.0001H7.414L3.707 23.7071C3.512 23.9021 3.256 24.0001 3 24.0001C2.744 24.0001 2.488 23.9021 2.293 23.7071C1.902 23.3161 1.902 22.6841 2.293 22.2931L4.586 20.0001H2C0.897 20.0001 0 19.1031 0 18.0001V6.0001C0 4.8961 0.897 4.0001 2 4.0001ZM2 6.0001V18.0001H22.001L22 6.0001H2ZM19.275 8.0401C14.451 6.6621 9.549 6.6611 4.726 8.0401C4.296 8.1611 4 8.5541 4 9.0001V15.0001C4 15.4461 4.296 15.8391 4.726 15.9621C7.137 16.6501 9.585 17.0001 12 17.0001C14.416 17.0001 16.863 16.6501 19.275 15.9621C19.704 15.8391 20 15.4461 20 15.0001V9.0001C20 8.5541 19.704 8.1611 19.275 8.0401ZM6 14.2341C9.995 15.2511 14.007 15.2511 18 14.2341V9.7661C14.007 8.7491 9.995 8.7491 6 9.7661V14.2341ZM15.118 3.0001H12.882L12.105 1.4471C11.858 0.953103 12.058 0.353103 12.552 0.106103C13.047 -0.141897 13.647 0.0601031 13.894 0.553103L15.118 3.0001Z"/>
</svg>
