<svg width="24" height="24" viewBox="0 0 24 24" xmlns="http://www.w3.org/2000/svg">
<path fill-rule="evenodd" clip-rule="evenodd" d="M12 0C13.6342 0 15.1477 0.806703 16.0744 2.1164C18.5232 1.51578 21 3.39173 21 6C21 7.23762 20.437 8.34467 19.5532 9.07862L17.994 23.111C17.938 23.617 17.51 24 17 24H8C7.49 24 7.063 23.617 7.006 23.111L5.44685 9.07862C4.56302 8.34467 4 7.23762 4 6C4 3.79143 5.79143 2 8 2C8.95713 0.753854 10.4267 0 12 0ZM8.1856 9.99531C8.16631 9.99629 8.14702 9.99711 8.12772 9.99778L8.895 22H16.105L16.8723 9.99792C16.0635 9.97161 15.2906 9.69621 14.6503 9.2243C14.426 9.36464 14.1905 9.48727 13.946 9.59093C13.6847 10.9316 12.47 12 11 12C9.68167 12 8.59258 11.2046 8.1856 9.99531ZM6 6C6 4.896 6.896 4 8 4C8.123 4 8.241 4.018 8.358 4.038C8.772 4.11 9.191 3.91 9.398 3.542C9.932 2.59 10.93 2 12 2C13.165 2 14.234 2.69 14.723 3.76C14.836 4.008 15.047 4.199 15.305 4.29C15.563 4.378 15.847 4.358 16.09 4.233C17.48 3.517 19 4.593 19 6C19 7.103 18.104 8 17 8C16.42 8 15.866 7.737 15.48 7.277C15.303 7.069 15.049 6.941 14.776 6.923C14.509 6.905 14.235 7.002 14.035 7.188C13.67 7.526 13.223 7.77 12.74 7.894C12.273 8.012 11.959 8.445 11.988 8.925C12.068 9.436 11.62 10 11 10C10.475 10 10.014 9.654 10.014 8.918C10.051 8.575 9.909 8.237 9.638 8.024C9.459 7.883 9.24 7.81 9.02 7.81C8.907 7.81 8.791 7.83 8.682 7.869C8.438 7.958 8.215 8 8 8C6.896 8 6 7.103 6 6Z"/>
</svg>
