<svg width="24" height="24" viewBox="0 0 24 24" xmlns="http://www.w3.org/2000/svg">
<path fill-rule="evenodd" clip-rule="evenodd" d="M11 13.001V6.41601L8.707 8.70801L7.293 7.29401L12 2.58701L16.707 7.29401L15.293 8.70801L13 6.41601V13.001H11ZM22 16.001C22 14.898 21.104 14.001 20 14.001H4C2.896 14.001 2 14.897 2 16.001V20.001C2 21.103 2.896 22.001 4 22.001H20C21.104 22.001 22 21.103 22 20.001V16.001ZM19.997 20.001H4V16.001H20L19.997 20.001ZM15.7071 17.2939C16.0976 17.6844 16.0976 18.3176 15.7071 18.7081C15.3166 19.0986 14.6834 19.0986 14.2929 18.7081C13.9024 18.3176 13.9024 17.6844 14.2929 17.2939C14.6834 16.9034 15.3166 16.9034 15.7071 17.2939ZM18.7071 18.7081C19.0976 18.3176 19.0976 17.6844 18.7071 17.2939C18.3166 16.9034 17.6834 16.9034 17.2929 17.2939C16.9024 17.6844 16.9024 18.3176 17.2929 18.7081C17.6834 19.0986 18.3166 19.0986 18.7071 18.7081Z"/>
</svg>
