<svg width="24" height="24" viewBox="0 0 24 24" xmlns="http://www.w3.org/2000/svg">
<path fill-rule="evenodd" clip-rule="evenodd" d="M11.471 19.849C11.633 19.95 11.816 20.001 12 20.001C12.184 20.001 12.367 19.95 12.529 19.849C12.876 19.633 21 14.492 21 9.00098C21 6.24398 18.757 4.00098 16 4.00098C14.406 4.00098 12.93 4.83798 12 6.08098C11.07 4.83798 9.594 4.00098 8 4.00098C5.243 4.00098 3 6.24398 3 9.00098C3 14.492 11.124 19.633 11.471 19.849ZM5 9.00098C5 7.34698 6.346 6.00098 8 6.00098C9.689 6.00098 11 7.61298 11 9.00098C11 9.55298 11.447 10.001 12 10.001C12.553 10.001 13 9.55298 13 9.00098C13 7.61298 14.311 6.00098 16 6.00098C17.654 6.00098 19 7.34698 19 9.00098C19 12.365 14.357 16.208 12 17.807C9.643 16.208 5 12.364 5 9.00098Z"/>
</svg>
