<svg width="24" height="24" viewBox="0 0 24 24" xmlns="http://www.w3.org/2000/svg"><path d="M18,1.99999 C19.103,1.99999 20,2.89599 20,3.99999 L20,3.99999 L20,20.00001 C20,21.10401 19.103,22.00001 18,22.00001 L18,22.00001 L6,22.00001 C4.897,22.00001 4,21.10401 4,20.00001 L4,20.00001 L4,3.99999 C4,2.89599 4.897,1.99999 6,1.99999 L6,1.99999 Z M18.001,19.00001 L6,19.00001 L6,20.00001 L18.001,20.00001 L18.001,19.00001 Z M18,6.99999 L6,6.99999 L6,17.00001 L18.001,17.00001 L18,6.99999 Z M9,11.99801 C9.55228,11.99801 10,12.44571 10,12.99801 C10,13.55021 9.55228,13.99801 9,13.99801 C8.44772,13.99801 8,13.55021 8,12.99801 C8,12.44571 8.44772,11.99801 9,11.99801 Z M9,8.99797 C9.55228,8.99797 10,9.44569 10,9.99797 C10,10.55021 9.55228,10.99801 9,10.99801 C8.44772,10.99801 8,10.55021 8,9.99797 C8,9.44569 8.44772,8.99797 9,8.99797 Z M12,8.99797 C12.5523,8.99797 13,9.44569 13,9.99797 C13,10.55021 12.5523,10.99801 12,10.99801 C11.4477,10.99801 11,10.55021 11,9.99797 C11,9.44569 11.4477,8.99797 12,8.99797 Z M15,8.99797 C15.5523,8.99797 16,9.44569 16,9.99797 C16,10.55021 15.5523,10.99801 15,10.99801 C14.4477,10.99801 14,10.55021 14,9.99797 C14,9.44569 14.4477,8.99797 15,8.99797 Z M18,3.99999 L6,3.99999 L6,4.99999 L18,4.99999 L18,3.99999 Z" /></svg>
