<?xml version="1.0" encoding="UTF-8"?>
<svg xmlns="http://www.w3.org/2000/svg" width="333" height="316" fill="none">
  <path fill-rule="evenodd" clip-rule="evenodd" d="M167 310c-85.0514 0-153.9999-68.948-153.9999-154C13.0001 70.9486 81.9486 2 167 2c85.051 0 154 68.9486 154 154 0 85.052-68.949 154-154 154Z" fill="#E8EBEE" fill-opacity=".5" style="mix-blend-mode:multiply"></path>
  <path clip-rule="evenodd" d="M167 310c-85.0514 0-153.9999-68.948-153.9999-154C13.0001 70.9486 81.9486 2 167 2c85.051 0 154 68.9486 154 154 0 85.052-68.949 154-154 154Z" stroke="#E8EBEE" stroke-width="2.05333"></path>
  <mask id="a" style="mask-type:alpha" maskUnits="userSpaceOnUse" x="11" y="0" width="312" height="312">
    <path fill-rule="evenodd" clip-rule="evenodd" d="M167 310c-85.0514 0-153.9999-68.948-153.9999-154C13.0001 70.9486 81.9486 2 167 2c85.051 0 154 68.9486 154 154 0 85.052-68.949 154-154 154Z" fill="#fff"></path>
    <path fill-rule="evenodd" clip-rule="evenodd" d="M167 310c-85.0514 0-153.9999-68.948-153.9999-154C13.0001 70.9486 81.9486 2 167 2c85.051 0 154 68.9486 154 154 0 85.052-68.949 154-154 154Z" stroke="#fff" stroke-width="2.05333"></path>
  </mask>
  <g mask="url(#a)">
    <path fill-rule="evenodd" clip-rule="evenodd" d="M34.8799 53.5571C34.111 34.0253 18.0223 18.4268-1.71234 18.4268c-20.22516 0-36.62096 16.3837-36.62096 36.594 0 18.9057 14.3473 34.4629 32.7554 36.3926-4.06085 6.935-6.3883 15.0066-6.3883 23.6216 0 25.869 20.98658 46.84 46.8748 46.84 17.7425 0 33.1827-9.85 41.1426-24.376 3.0332.627 6.1753.956 9.3944.956 3.5469 0 7.0004-.4 10.3177-1.157 3.5107 16.55 18.2167 28.969 35.8247 28.969 20.225 0 36.621-16.384 36.621-36.594 0-20.211-16.396-36.5944-36.621-36.5944h-.006c.004-.2435.006-.4874.006-.7318 0-25.4651-20.659-46.1086-46.1424-46.1086-13.4271 0-25.5147 5.7309-33.9468 14.8784-4.0285-4.6314-9.9671-7.5595-16.5902-7.5595h-.0287ZM377.681 19.8905c8.763 0 16.243 5.4928 19.179 13.2211 20.148 5.247 35.02 23.5527 35.02 45.3294 0 25.869-20.987 46.84-46.875 46.84-14.928 0-28.226-6.973-36.811-17.837-5.709 4.74-13.046 7.591-21.05 7.591-3.998 0-7.829-.711-11.375-2.014-8.464 10.174-21.225 16.652-35.5 16.652-11.516 0-22.047-4.216-30.132-11.188.068.793.103 1.595.103 2.405 0 15.36-12.461 27.812-27.832 27.812s-27.832-12.452-27.832-27.812c0-15.36 12.461-27.8114 27.832-27.8114 4.937 0 9.573 1.2844 13.593 3.537-1.22-4.1382-1.874-8.5184-1.874-13.0514 0-25.465 20.658-46.1085 46.142-46.1085 13.239 0 25.175 5.5711 33.59 14.4951 4.064-1.7907 8.558-2.785 13.285-2.785 6.507 0 12.573 1.884 17.682 5.136 3.19-5.2905 7.397-9.8995 12.35-13.557-.002-.1203-.003-.2408-.003-.3616 0-11.3178 9.182-20.4927 20.508-20.4927Z" fill="#fff"></path>
    <ellipse cx="352.623" cy="188.829" rx="364.409" ry="153.17" transform="rotate(-7 352.623 188.829)" fill="#CBD2D9"></ellipse>
    <ellipse cx="352.623" cy="188.829" rx="364.409" ry="153.17" transform="rotate(-7 352.623 188.829)" fill="#666" fill-opacity=".2"></ellipse>
    <ellipse cx="207.208" cy="172.925" rx="372.068" ry="102.842" transform="rotate(3 207.208 172.925)" fill="#E8EBEE"></ellipse>
    <ellipse cx="207.208" cy="172.925" rx="372.068" ry="102.842" transform="rotate(3 207.208 172.925)" fill="#CBD2D9" fill-opacity=".4"></ellipse>
    <path fill-rule="evenodd" clip-rule="evenodd" d="M188.374 245.427c26.815-15.481 23.799-70.904-6.735-123.79-16.515-28.6047-37.698-50.6088-57.91-62.3345 2.511-.0109 5.031-.0143 7.559-.0102 20.218 11.7231 41.409 33.7318 57.929 62.3457 30.534 52.886 33.549 108.308 6.735 123.789-5.786 3.341-12.488 4.549-19.748 3.858 4.371-.45 8.459-1.715 12.17-3.858Z" fill="#fff"></path>
    <ellipse cx="206.768" cy="202.507" rx="372.069" ry="111.235" transform="rotate(-1 206.768 202.507)" fill="#fff"></ellipse>
    <ellipse cx="206.768" cy="202.507" rx="372.069" ry="111.235" transform="rotate(-1 206.768 202.507)" fill="#CBD2D9" fill-opacity=".5"></ellipse>
    <ellipse cx="206.768" cy="202.507" rx="372.069" ry="111.235" transform="rotate(-1 206.768 202.507)" fill="#CBD2D9"></ellipse>
    <path fill-rule="evenodd" clip-rule="evenodd" d="M223.927 255.736c25.669-17.314 18.795-72.391-15.354-123.019-10.858-16.098-23.167-29.807-35.73-40.4636 4.331-.1859 8.684-.3501 13.057-.492 12.766 10.7246 25.287 24.6086 36.313 40.9556 34.149 50.628 41.023 105.705 15.354 123.019-7.022 4.736-15.752 6.156-25.429 4.682 4.297-.758 8.259-2.301 11.789-4.682Z" fill="#fff"></path>
    <ellipse cx="192.176" cy="269.698" rx="372.063" ry="143.864" transform="rotate(8 192.176 269.698)" fill="#fff"></ellipse>
    <ellipse cx="192.176" cy="269.698" rx="372.063" ry="143.864" transform="rotate(8 192.176 269.698)" fill="#CBD2D9"></ellipse>
    <ellipse cx="192.176" cy="269.698" rx="372.063" ry="143.864" transform="rotate(8 192.176 269.698)" fill="#666" fill-opacity=".2"></ellipse>
    <path fill-rule="evenodd" clip-rule="evenodd" d="M241.212 131.76c-9.552-1.638-19.227-3.148-29.011-4.523-5.575-.784-11.127-1.515-16.654-2.195-24.886 5.23-49.91 17.658-71.511 37.108-55.1953 49.698-67.1357 126.418-26.6699 171.36 40.4659 44.942 118.0139 41.086 173.2089-8.612 5.516-4.966 10.6-10.202 15.242-15.649-10.298-15.436-19.955-33.676-28.097-53.827-19.882-49.212-25.347-96.503-16.508-123.662Z" fill="#fff"></path>
    <path fill="#666" d="M215.563 62.124h2.37517v13.6544H215.563z"></path>
    <path fill-rule="evenodd" clip-rule="evenodd" d="m216.75 55 4.751 16.0291H212L216.75 55Z" fill="#333332"></path>
    <path fill-rule="evenodd" clip-rule="evenodd" d="m216.75 55 4.751 16.0291h-4.751V55Z" fill="#666"></path>
    <path fill="#666" d="M196.722 64.2302h3.14826v17.6912H196.722z"></path>
    <path fill-rule="evenodd" clip-rule="evenodd" d="m198.297 55 6.296 20.7679H192L198.297 55Z" fill="#333332"></path>
    <path fill-rule="evenodd" clip-rule="evenodd" d="m198.297 55 6.296 20.7679h-6.296V55Z" fill="#666"></path>
    <path fill="#666" d="M205.722 70.2302h3.14826v17.6912H205.722z"></path>
    <path fill-rule="evenodd" clip-rule="evenodd" d="m207.297 61 6.296 20.7679H201L207.297 61Z" fill="#333332"></path>
    <path fill-rule="evenodd" clip-rule="evenodd" d="m207.297 61 6.296 20.7679h-6.296V61Z" fill="#666"></path>
    <path fill="#666" d="M108 56h5v28h-5z"></path>
    <path fill-rule="evenodd" clip-rule="evenodd" d="m110.5 41 9.5 33h-19l9.5-33Z" fill="#333332"></path>
    <path fill-rule="evenodd" clip-rule="evenodd" d="m111 41 9 33h-9V41ZM273.789 94.7273h7.86V128.47h-7.86V94.7273Z" fill="#666"></path>
    <rect x="262" y="59" width="31.4386" height="47.6364" rx="15.7193" fill="#666"></rect>
    <path d="M262 74.7193C262 66.0378 269.038 59 277.719 59v47.636c-8.681 0-15.719-7.0374-15.719-15.7189V74.7193Z" fill="#333332"></path>
    <path fill="#666" d="M261.433 111.837h4.9556v19.679h-4.9556z"></path>
    <rect x="254" y="91" width="19.8224" height="27.7822" rx="9.9112" fill="#666"></rect>
    <path d="M254 100.911c0-5.4736 4.437-9.911 9.911-9.911v27.782c-5.474 0-9.911-4.437-9.911-9.911v-7.96Z" fill="#333332"></path>
    <path fill-rule="evenodd" clip-rule="evenodd" d="M34.7546 59.7766h8.4798v48.2044h-8.4798V59.7766Z" fill="#666"></path>
    <path fill-rule="evenodd" clip-rule="evenodd" d="M17.6896 38.6555c0-11.9127 9.6572-21.5698 21.5699-21.5698 11.9127 0 21.5698 9.6571 21.5698 21.5698v29.4546c0 11.9127-9.6571 21.5699-21.5698 21.5699-11.9127 0-21.5699-9.6572-21.5699-21.5699V38.6555Z" fill="#666"></path>
    <path fill-rule="evenodd" clip-rule="evenodd" d="M17.6896 39.2915c0-12.2639 9.9419-22.2058 22.2059-22.2058V89.68c-12.264 0-22.2059-9.9419-22.2059-22.2059V39.2915Z" fill="#333332"></path>
    <path fill-rule="evenodd" clip-rule="evenodd" d="M59.5123 89.6543h7.1499v30.9217h-7.1499V89.6543Z" fill="#666"></path>
    <path fill-rule="evenodd" clip-rule="evenodd" d="M47 61.1935C47 52.8024 53.8024 46 62.1935 46c8.3912 0 15.1936 6.8024 15.1936 15.1935v24.1808c0 8.3912-6.8024 15.1937-15.1936 15.1937C53.8024 100.568 47 93.7654 47 85.3743V61.1935Z" fill="#666"></path>
    <path fill-rule="evenodd" clip-rule="evenodd" d="M47 62.0873C47 53.2025 54.2025 46 63.0873 46v54.568C54.2025 100.568 47 93.3653 47 84.4806V62.0873Z" fill="#333332"></path>
  </g>
  <path fill-rule="evenodd" clip-rule="evenodd" d="M165.809 125.149c-3.145-.099-6.321-.149-9.525-.149-46.311 0-86.9033 10.497-109.5445 26.244v7.434c5.41-4.297 12.432-8.362 20.9465-12.013 23.1756-9.938 54.789-15.671 88.598-15.671 3.196 0 6.373.051 9.525.152v-5.997ZM43.7628 165.843v4.894c11.8432-18.519 57.6482-33.15 112.5212-33.15 2.198 0 4.381.023 6.549.069v-2.998c-2.168-.045-4.352-.068-6.549-.068-52.442 0-96.9258 13.1-112.5212 31.253ZM167 306.006H39V312h128v-5.994ZM39 270.045h128v5.993H39v-5.993Zm128-6.593H39v2.997h128v-2.997Z" fill="#666"></path>
  <path fill-rule="evenodd" clip-rule="evenodd" d="M167 120h-5.902v196H167V120Zm-18.888 1.195h-2.951v187.634h2.951V121.195Zm-18.888 1.195h2.952v186.439h-2.952V122.39Zm-12.985 1.793h-2.951v184.646h2.951V124.183Zm-19.478 2.988h2.9512v181.658H96.761V127.171Zm-12.9854 4.183h-2.9512v178.073h2.9512V131.354Zm-18.8878 5.975h2.9512v172.098h-2.9512V137.329Zm-12.9854 8.964H46v163.134h5.9024V146.293Z" fill="#333332"></path>
  <g filter="url(#b)">
    <path fill="#FFE615" d="M2 141h44v175H2z"></path>
  </g>
  <path fill-rule="evenodd" clip-rule="evenodd" d="M169.191 125.149c3.145-.099 6.321-.149 9.525-.149 46.311 0 86.903 10.497 109.544 26.244v7.434c-5.409-4.297-12.432-8.362-20.946-12.013-23.176-9.938-54.789-15.671-88.598-15.671-3.196 0-6.373.051-9.525.152v-5.997Zm122.046 40.694v4.894c-11.843-18.519-57.648-33.15-112.521-33.15-2.198 0-4.381.023-6.549.069v-2.998c2.168-.045 4.352-.068 6.549-.068 52.442 0 96.926 13.1 112.521 31.253ZM168 306.006h128V312H168v-5.994Zm128-35.961H168v5.993h128v-5.993Zm-128-6.593h128v2.997H168v-2.997Z" fill="#666"></path>
  <path fill-rule="evenodd" clip-rule="evenodd" d="M168 120h5.902v196H168V120Zm18.888 1.195h2.951v187.634h-2.951V121.195Zm18.888 1.195h-2.952v186.439h2.952V122.39Zm12.985 1.793h2.951v184.646h-2.951V124.183Zm19.478 2.988h-2.951v181.658h2.951V127.171Zm12.985 4.183h2.952v178.073h-2.952V131.354Zm18.888 5.975h-2.951v172.098h2.951V137.329Zm12.986 8.964H289v163.134h-5.902V146.293Z" fill="#333332"></path>
  <g filter="url(#c)">
    <path fill="#FFE615" d="M333 141h-44v175h44z"></path>
  </g>
  <g filter="url(#d)">
    <path fill="#333332" d="M327 152h-31v31h31z"></path>
  </g>
  <circle r="11" transform="matrix(-1 0 0 1 313 166)" fill="#CBD2D9"></circle>
  <mask id="e" style="mask-type:alpha" maskUnits="userSpaceOnUse" x="302" y="155" width="22" height="22">
    <circle r="11" transform="matrix(-1 0 0 1 313 166)" fill="#fff"></circle>
  </mask>
  <g mask="url(#e)" fill-rule="evenodd" clip-rule="evenodd">
    <path d="m320.019 161.56-.03.011c-.023-.159-.062-.315-.117-.467-.813-2.234-4.893-2.799-9.112-1.264-4.22 1.536-6.981 4.592-6.168 6.826.055.152.125.296.21.432l-.03.011c-.065-.144-.125-.292-.18-.443-1.355-3.723.967-7.986 5.186-9.522 4.22-1.536 8.739.237 10.094 3.96.055.151.104.303.147.456Z" fill="#fff"></path>
    <path d="M303.05 171.466c-.073-.201-.139-.404-.196-.607 1.208 2.213 6.364 2.434 11.841.44 5.477-1.993 9.285-5.477 8.787-7.948.088.192.168.389.241.591 1.807 4.964-1.356 10.673-7.065 12.75-5.709 2.078-11.801-.262-13.608-5.226Z" fill="#929EA7"></path>
  </g>
  <mask id="f" maskUnits="userSpaceOnUse" x="151" y="211" width="33" height="47" fill="#000">
    <path fill="#fff" d="M151 211h33v47h-33z"></path>
    <path fill-rule="evenodd" clip-rule="evenodd" d="M158.27 223.298c0-5.135 4.163-9.298 9.299-9.298 5.135 0 9.298 4.163 9.298 9.298v8.699h-3.581v-8.762c0-3.157-2.56-5.717-5.717-5.717-3.157 0-5.717 2.56-5.717 5.717v8.762h-3.582v-8.699ZM154 235.944c0-1.507 1.222-2.729 2.73-2.729h21.54c1.508 0 2.73 1.222 2.73 2.729v16.326c0 1.508-1.222 2.73-2.73 2.73h-21.54c-1.508 0-2.73-1.222-2.73-2.73v-16.326Zm14.817 7.903c.857-.459 1.438-1.352 1.438-2.378 0-1.495-1.233-2.707-2.755-2.707-1.522 0-2.755 1.212-2.755 2.707 0 .973.523 1.826 1.308 2.303l-.619 6.086h3.995l-.612-6.011Z"></path>
  </mask>
  <path fill-rule="evenodd" clip-rule="evenodd" d="M158.27 223.298c0-5.135 4.163-9.298 9.299-9.298 5.135 0 9.298 4.163 9.298 9.298v8.699h-3.581v-8.762c0-3.157-2.56-5.717-5.717-5.717-3.157 0-5.717 2.56-5.717 5.717v8.762h-3.582v-8.699ZM154 235.944c0-1.507 1.222-2.729 2.73-2.729h21.54c1.508 0 2.73 1.222 2.73 2.729v16.326c0 1.508-1.222 2.73-2.73 2.73h-21.54c-1.508 0-2.73-1.222-2.73-2.73v-16.326Zm14.817 7.903c.857-.459 1.438-1.352 1.438-2.378 0-1.495-1.233-2.707-2.755-2.707-1.522 0-2.755 1.212-2.755 2.707 0 .973.523 1.826 1.308 2.303l-.619 6.086h3.995l-.612-6.011Z" fill="#333332"></path>
  <path d="M176.867 231.997v3h3v-3h-3Zm-3.581 0h-3v3h3v-3Zm-11.434 0v3h3v-3h-3Zm-3.582 0h-3v3h3v-3Zm10.547 11.85-1.416-2.645-1.773.948.204 2 2.985-.303Zm-2.764-.075 2.985.304.192-1.885-1.62-.983-1.557 2.564Zm-.619 6.086-2.985-.304-.336 3.304h3.321v-3Zm3.995 0v3h3.32l-.336-3.304-2.984.304ZM167.569 211c-6.792 0-12.299 5.506-12.299 12.298h6c0-3.478 2.82-6.298 6.299-6.298v-6Zm12.298 12.298c0-6.792-5.506-12.298-12.298-12.298v6c3.478 0 6.298 2.82 6.298 6.298h6Zm0 8.699v-8.699h-6v8.699h6Zm-6.581 3h3.581v-6h-3.581v6Zm-3-11.762v8.762h6v-8.762h-6Zm-2.717-2.717c1.5 0 2.717 1.217 2.717 2.717h6c0-4.814-3.903-8.717-8.717-8.717v6Zm-2.717 2.717c0-1.5 1.216-2.717 2.717-2.717v-6c-4.814 0-8.717 3.903-8.717 8.717h6Zm0 8.762v-8.762h-6v8.762h6Zm-6.582 3h3.582v-6h-3.582v6Zm-3-11.699v8.699h6v-8.699h-6Zm1.46 6.917c-3.165 0-5.73 2.565-5.73 5.729h6c0 .149-.121.271-.27.271v-6Zm21.54 0h-21.54v6h21.54v-6Zm5.73 5.729c0-3.164-2.565-5.729-5.73-5.729v6c-.149 0-.27-.122-.27-.271h6Zm0 16.326v-16.326h-6v16.326h6Zm-5.73 5.73c3.165 0 5.73-2.565 5.73-5.73h-6c0-.149.121-.27.27-.27v6Zm-21.54 0h21.54v-6h-21.54v6Zm-5.73-5.73c0 3.165 2.565 5.73 5.73 5.73v-6c.149 0 .27.121.27.27h-6Zm0-16.326v16.326h6v-16.326h-6Zm16.255 5.525c0-.062.02-.126.05-.175.027-.044.061-.074.096-.092l2.831 5.289c1.776-.95 3.023-2.827 3.023-5.022h-6Zm.245.293c-.084 0-.245-.081-.245-.293h6c0-3.202-2.627-5.707-5.755-5.707v6Zm.245-.293c0 .212-.161.293-.245.293v-6c-3.128 0-5.755 2.505-5.755 5.707h6Zm-.135-.261c.032.019.064.049.09.093.028.049.045.109.045.168h-6c0 2.081 1.122 3.878 2.751 4.867l3.114-5.128Zm.808 8.954.62-6.086-5.969-.608-.62 6.086 5.969.608Zm1.011-3.304h-3.995v6h3.995v-6Zm-3.597-2.708.612 6.012 5.969-.608-.612-6.011-5.969.607Z" fill="#fff" mask="url(#f)"></path>
  <path fill-rule="evenodd" clip-rule="evenodd" d="M158.27 223.298c0-5.135 4.163-9.298 9.299-9.298 5.135 0 9.298 4.163 9.298 9.298v8.699h-3.581v-8.762c0-3.157-2.56-5.717-5.717-5.717-3.157 0-5.717 2.56-5.717 5.717v8.762h-3.582v-8.699ZM154 235.944c0-1.507 1.222-2.729 2.73-2.729h21.54c1.508 0 2.73 1.222 2.73 2.729v16.326c0 1.508-1.222 2.73-2.73 2.73h-21.54c-1.508 0-2.73-1.222-2.73-2.73v-16.326Zm14.817 7.903c.857-.459 1.438-1.352 1.438-2.378 0-1.495-1.233-2.707-2.755-2.707-1.522 0-2.755 1.212-2.755 2.707 0 .973.523 1.826 1.308 2.303l-.619 6.086h3.995l-.612-6.011Z" fill="#666"></path>
  <defs>
    <filter id="b" x="0" y="139" width="46" height="177" filterUnits="userSpaceOnUse" color-interpolation-filters="sRGB">
      <feFlood flood-opacity="0" result="BackgroundImageFix"></feFlood>
      <feColorMatrix in="SourceAlpha" values="0 0 0 0 0 0 0 0 0 0 0 0 0 0 0 0 0 0 127 0" result="hardAlpha"></feColorMatrix>
      <feOffset dx="-2" dy="-2"></feOffset>
      <feColorMatrix values="0 0 0 0 0 0 0 0 0 0 0 0 0 0 0 0 0 0 0.3 0"></feColorMatrix>
      <feBlend in2="BackgroundImageFix" result="effect1_dropShadow_0_847"></feBlend>
      <feBlend in="SourceGraphic" in2="effect1_dropShadow_0_847" result="shape"></feBlend>
    </filter>
    <filter id="c" x="287" y="139" width="46" height="177" filterUnits="userSpaceOnUse" color-interpolation-filters="sRGB">
      <feFlood flood-opacity="0" result="BackgroundImageFix"></feFlood>
      <feColorMatrix in="SourceAlpha" values="0 0 0 0 0 0 0 0 0 0 0 0 0 0 0 0 0 0 127 0" result="hardAlpha"></feColorMatrix>
      <feOffset dx="-2" dy="-2"></feOffset>
      <feColorMatrix values="0 0 0 0 0 0 0 0 0 0 0 0 0 0 0 0 0 0 0.3 0"></feColorMatrix>
      <feBlend in2="BackgroundImageFix" result="effect1_dropShadow_0_847"></feBlend>
      <feBlend in="SourceGraphic" in2="effect1_dropShadow_0_847" result="shape"></feBlend>
    </filter>
    <filter id="d" x="296" y="152" width="31" height="31" filterUnits="userSpaceOnUse" color-interpolation-filters="sRGB">
      <feFlood flood-opacity="0" result="BackgroundImageFix"></feFlood>
      <feBlend in="SourceGraphic" in2="BackgroundImageFix" result="shape"></feBlend>
      <feColorMatrix in="SourceAlpha" values="0 0 0 0 0 0 0 0 0 0 0 0 0 0 0 0 0 0 127 0" result="hardAlpha"></feColorMatrix>
      <feOffset dx="-2" dy="-2"></feOffset>
      <feComposite in2="hardAlpha" operator="arithmetic" k2="-1" k3="1"></feComposite>
      <feColorMatrix values="0 0 0 0 1 0 0 0 0 1 0 0 0 0 1 0 0 0 0.5 0"></feColorMatrix>
      <feBlend in2="shape" result="effect1_innerShadow_0_847"></feBlend>
    </filter>
  </defs>
</svg>
