<svg width="324" height="308" xmlns="http://www.w3.org/2000/svg" xmlns:xlink="http://www.w3.org/1999/xlink">
  <defs>
    <path d="M308 154c0 85.0522-68.9486 154-154 154S0 239.0522 0 154C0 68.9486 68.9486 0 154 0s154 68.9486 154 154" id="a"/>
    <path id="c" d="M102.2267 31.2857H374V57H102.2267z"/>
  </defs>
  <g fill="none" fill-rule="evenodd">
    <mask id="b" fill="#fff">
      <use xlink:href="#a"/>
    </mask>
    <use fill-opacity=".5" fill="#E8EBEE" xlink:href="#a"/>
    <path fill="#B7BDC3" mask="url(#b)" d="M-58 246h435v110H-58z"/>
    <path d="M22.684 84C21.6043 81.7269 21 79.184 21 76.5 21 66.835 28.835 59 38.5 59c2.0192 0 3.9586.342 5.7633.9712C47.6463 49.5411 57.4425 42 69 42c13.5992 0 24.76 10.4408 25.9035 23.7437C96.3478 65.2613 97.8934 65 99.5 65c8.0081 0 14.5 6.4919 14.5 14.5 0 1.5709-.2498 3.0834-.7118 4.5H22.684zM154.007 92a17.8322 17.8322 0 0 1-.007-.5c0-9.5723 7.6855-17.3496 17.2225-17.4978C172.1312 69.993 175.7161 67 180 67c1.5955 0 3.094.4152 4.3934 1.1433C189.1474 61.9744 196.6095 58 205 58c12.3513 0 22.691 8.6125 25.3414 20.1596A14.6169 14.6169 0 0 1 232.5 78c7.8408 0 14.228 6.2234 14.4915 14H154.007z" fill="#FFF" mask="url(#b)"/>
    <path d="M-147.6505 281h389.301c2.9619 0 5.3495.1 5.3495.2231v1.5538c0 .1232-2.3876.2231-5.3495.2231h-389.301c-2.9498 0-5.3495-.1-5.3495-.2231v-1.5538c0-.1232 2.3997-.2231 5.3495-.2231" fill-opacity=".5" fill="#CCD3DB" style="mix-blend-mode:multiply" mask="url(#b)"/>
    <path d="M114.6954 281h50.6092c.385 0 .6954.1.6954.2231v1.5538c0 .1232-.3104.2231-.6954.2231h-50.6092c-.3834 0-.6954-.1-.6954-.2231v-1.5538c0-.1232.312-.2231.6954-.2231" fill-opacity=".5" fill="#CCD3DB" style="mix-blend-mode:multiply" mask="url(#b)"/>
    <g mask="url(#b)">
      <path d="M142 272.3122c0 1.621-.4997 2.9278-1.1156 2.9278h-7.7688c-.6159 0-1.1156-1.3068-1.1156-2.9278V41.9278c0-1.6144.4997-2.9278 1.1156-2.9278h7.7688c.6159 0 1.1156 1.3134 1.1156 2.9278v230.3844z" fill="#989B9F"/>
      <path d="M141.481 268.1401v4.815c0 .0367-.498.0662-1.1114.0662h-7.7392c-.6135 0-1.1113-.0295-1.1113-.0661v-4.815c0-.0365.4978-.0662 1.1113-.0662h7.7392c.6135 0 1.1113.0297 1.1113.0661" fill-opacity=".5" fill="#CCD3DB" style="mix-blend-mode:multiply"/>
      <path d="M151.3421 283H121.658v-2.5382c4.5165-.4673 8.0395-4.3096 8.0395-8.9802 0-.3154-.016-.627-.0474-.934h13.7a9.1944 9.1944 0 0 0-.0474.934c0 4.6706 3.523 8.5129 8.0395 8.9802V283z" fill="#CCD3DB"/>
      <path d="M120.6623 270.5477h31.6754a4 4 0 0 1 3.7174 2.523L160 283h-47l3.945-9.9293a4 4 0 0 1 3.7173-2.523z" fill="#666"/>
      <path d="M113.6286 280.5095h45.7428c.348 0 .6286.1245.6286.2779v1.9348c0 .1533-.2805.2778-.6286.2778h-45.7428c-.3466 0-.6286-.1245-.6286-.2778v-1.9348c0-.1534.282-.2779.6286-.2779" fill-opacity=".5" fill="#CCD3DB" style="mix-blend-mode:multiply"/>
      <path d="M129.079 270.5477h14.842c.11 0 .11 8.7166 0 8.7166h-14.842c-.073 0-.073-2.9055 0-8.7166z" fill="#000" style="mix-blend-mode:multiply"/>
      <path d="M142 89.3745c0 .3463-.4997.6255-1.1156.6255h-7.7688c-.6159 0-1.1156-.2792-1.1156-.6255v-60.749c0-.3449.4997-.6255 1.1156-.6255h7.7688c.6159 0 1.1156.2806 1.1156.6255v60.749zM142 148.6166c0 .2123-.4997.3834-1.1156.3834h-7.7688c-.6159 0-1.1156-.1711-1.1156-.3834v-37.2332c0-.2114.4997-.3834 1.1156-.3834h7.7688c.6159 0 1.1156.172 1.1156.3834v37.2332zM141.8991 212c.0559 0 .1009 1.4992.1009 3.3468v23.3064c0 1.8476-.045 3.3468-.1009 3.3468h-9.7982c-.0556 0-.1009-1.4992-.1009-3.3468v-23.3064c0-1.8476.0453-3.3468.1009-3.3468h9.7982zM141.8991 174c.0559 0 .1009 1.4992.1009 3.3468v23.3064c0 1.8476-.045 3.3468-.1009 3.3468h-9.7982c-.0556 0-.1009-1.4992-.1009-3.3468v-23.3064c0-1.8476.0453-3.3468.1009-3.3468h9.7982z" fill-opacity=".5" fill="#CCD3DB" style="mix-blend-mode:multiply"/>
      <path d="M142 140.657c0 .1899-.4997.343-1.1156.343h-7.7688c-.6159 0-1.1156-.1531-1.1156-.343v-33.314c0-.1891.4997-.343 1.1156-.343h7.7688c.6159 0 1.1156.1539 1.1156.343v33.314z" fill-opacity=".5" fill="#CCD3DB" style="mix-blend-mode:multiply"/>
      <g>
        <g transform="translate(100 19)">
          <circle stroke="#FFE615" stroke-width="9" stroke-linejoin="square" fill="#FFF" cx="36" cy="36" r="31.5"/>
          <circle stroke="#666" cx="36" cy="36" r="36.5"/>
        </g>
      </g>
      <g transform="translate(-135 145)">
        <path fill="#989B9F" d="M102.2267 31.2857H374V57H102.2267z"/>
        <path fill="#FFF" d="M124.6667 30H149.6l-24.9333 26H99.7333z"/>
        <path fill="#666" d="M149.6 30h24.9333L149.6 56h-24.9333z"/>
        <path fill="#FFF" d="M174.5333 30h24.9334l-24.9334 26H149.6z"/>
        <path fill="#666" d="M199.4667 30H224.4l-24.9333 26h-24.9334z"/>
        <path fill="#FFF" d="M224.4 30h24.9333L224.4 56h-24.9333z"/>
        <path fill="#666" d="M249.3333 30h24.9334l-24.9334 26H224.4z"/>
        <path fill="#FFF" d="M274.2667 30H299.2l-24.9333 26h-24.9334z"/>
        <path fill="#666" d="M299.2 30h24.9333L299.2 56h-24.9333z"/>
        <path fill="#FFF" d="M324.1333 30h24.9334l-24.9334 26H299.2z"/>
        <path fill="#666" d="M349.0667 30H374l-24.9333 26h-24.9334z"/>
        <path fill="#FFF" d="M374 30v26h-24.9333z"/>
        <mask id="d" fill="#fff">
          <use xlink:href="#c"/>
        </mask>
        <path d="M256.0346 4.5016h129.0161c1.6569 0 3 1.3432 3 3v33.3749c0 1.6568-1.3431 3-3 3H256.0346a3 3 0 0 1-1.2202-.2594l-37.48-16.6874c-1.5136-.674-2.1943-2.4473-1.5204-3.9609a3 3 0 0 1 1.5204-1.5204l37.48-16.6874a3 3 0 0 1 1.2202-.2594z" fill="#989B9F" mask="url(#d)" transform="scale(-1 1) rotate(-3 0 11572.1221)"/>
      </g>
      <g>
        <path fill="#989B9F" d="M-32.7733 214.2857H239V240H-32.7733z"/>
        <path fill="#FFF" d="M-10.3333 213H14.6l-24.9333 26h-24.9334z"/>
        <path fill="#666" d="M14.6 213h24.9333L14.6 239h-24.9333z"/>
        <path fill="#FFF" d="M39.5333 213h24.9334l-24.9334 26H14.6z"/>
        <path fill="#666" d="M64.4667 213H89.4l-24.9333 26H39.5333z"/>
        <path fill="#FFF" d="M89.4 213h24.9333L89.4 239H64.4667z"/>
        <path fill="#666" d="M114.3333 213h24.9334l-24.9334 26H89.4z"/>
        <path fill="#FFF" d="M139.2667 213H164.2l-24.9333 26h-24.9334z"/>
        <path fill="#666" d="M164.2 213h24.9333L164.2 239h-24.9333z"/>
        <path fill="#FFF" d="M189.1333 213h24.9334l-24.9334 26H164.2z"/>
        <path fill="#666" d="M214.0667 213H239l-24.9333 26h-24.9334z"/>
        <path fill="#FFF" d="M239 213v26h-24.9333z"/>
      </g>
      <g>
        <path d="M56.387 102.4423l128.4794-6.7333c1.6546-.0867 3.0662 1.1843 3.1529 2.8389l1.727 32.9548c.0868 1.6545-1.1842 3.0661-2.8388 3.1529l-128.4793 6.7333a3 3 0 0 1-1.225-.1925l-38.1249-14.5246c-1.5483-.5898-2.3253-2.3232-1.7354-3.8715a3 3 0 0 1 1.4482-1.6084l36.3977-18.4301a3 3 0 0 1 1.1983-.3195z" fill="#FFE615"/>
        <path d="M59.2769 105.4152l122.6073-6.4256c1.6546-.0867 3.0662 1.1843 3.153 2.8389l1.4004 26.7233c.0868 1.6546-1.1842 3.0662-2.8388 3.1529l-122.6074 6.4256a3 3 0 0 1-1.0848-.143l-35.4806-11.539c-1.5757-.5123-2.4376-2.205-1.9251-3.7806a3 3 0 0 1 1.632-1.8125l34.08-15.1845a3 3 0 0 1 1.064-.2555zm1.8485 3.0274a3 3 0 0 0-1.251.3468l-23.3375 12.4048a2 2 0 0 0-.9158 1.017c-.4136 1.0242.0813 2.1898 1.1055 2.6035l24.5063 9.8973a3 3 0 0 0 1.2805.2142l117.7681-6.172c1.6546-.0867 2.9256-1.4983 2.8389-3.1528l-1.074-20.492c-.0867-1.6545-1.4983-2.9255-3.1528-2.8388l-117.7682 6.172z" fill="#000"/>
        <path d="M69.3012 126.7625l-2.3995.1257-2.816-8.1751-1.946 8.4247-2.3996.1258-4.2677-12.122 2.2977-.1205 2.9577 8.3984 1.9988-8.6582 2.2977-.1204 2.8929 8.4018 2.0636-8.6615 2.2977-.1205-2.9773 12.5018zm12.1919-3.3056l.1095 2.0888c-.8307.4588-1.8786.6706-2.7032.7138-1.3341.0699-2.588-.2796-3.5389-1.051-.9508-.7714-1.5908-1.9927-1.6776-3.649-.0844-1.6103.3883-2.8715 1.1593-3.7608.762-.8796 1.8234-1.3689 2.9073-1.4257.3058-.016.8543-.0078 1.4296.1558s1.2153.4991 1.7118 1.1098c.4965.6106.87 1.5322.9394 2.8573l.0752 1.4354-5.8367.306c.2165.7636.6424 1.2673 1.1786 1.5713.5269.3046 1.1549.41 1.7756.3775.8153-.0427 1.6648-.3179 2.3853-.7524l.0848.0232zm-1.6594-3.124c-.083-.6969-.3592-1.1807-.71-1.4945-.3505-.3045-.7839-.4202-1.2008-.3984-.4447.0233-.891.1943-1.2447.5358-.3624.3512-.6236.8631-.7264 1.5606l3.8819-.2035zm12.0037-3.5263l-.0371.1772c-.4672.126-1.0315.3493-1.5798.701.1773.369.2722.7608.2939 1.1749.0477.911-.279 1.7677-.8767 2.4173-.607.65-1.4853 1.0836-2.5322 1.1384-.3984.0209-.7714-.0057-1.1102-.0894-.1289.2005-.1656.387-.1579.5342.0208.3957.4322.6232 1.1085.5878l1.1118-.0583c1.3248-.0694 2.3145.2017 2.9807.6835.6663.4817 1.0101 1.1927 1.0526 2.0024.0545 1.0398-.5361 2.0027-1.4371 2.7142-.9005.7208-2.1208 1.1907-3.316 1.2534-1.1024.0578-2.0096-.236-2.65-.7562-.64-.5108-1.0228-1.2566-1.0671-2.1031-.0406-.773.3281-1.715 1.0215-2.4895-.2672-.1336-.4747-.3719-.6194-.6503-.1447-.2785-.2347-.5783-.2487-.8451-.027-.5153.183-1.1168.6076-1.702-.557-.5244-.873-1.412-.9159-2.231-.0477-.911.2721-1.7213.8722-2.3248.6001-.6035 1.4717-.9906 2.5186-1.0454.7134-.0374 1.3515.086 1.8853.344.3917-.325.842-.5977 1.2594-.7857.4175-.188.8208-.2921 1.1451-.3091l.691 1.6616zm-4.9184.9866c-.491.0258-.852.2292-1.0886.5a1.3153 1.3153 0 0 0-.3405.9498c.0174.3312.165.6649.4379.909.2636.2445.6526.3994 1.1622.3727.4817-.0252.8524-.22 1.0798-.4903a1.3403 1.3403 0 0 0 .3136-.9299c-.0174-.3312-.1561-.6746-.4203-.9283-.2729-.244-.6531-.4087-1.1441-.383zm-.5945 7.625c-.3406.4146-.5315.849-.5069 1.3184.0405.7729.6717 1.2934 1.8483 1.2318.6578-.0345 1.2128-.2574 1.605-.5732.3927-.3066.6138-.6965.593-1.0922-.0255-.4876-.3081-.7404-.7513-.8648-.4524-.124-1.0648-.1103-1.769-.0734l-1.019.0534zm6.7327-4.8371c-.0748-1.4263.3511-2.6943 1.1474-3.631.7963-.9368 1.9538-1.5418 3.3527-1.6151 1.4082-.0738 2.604.4079 3.4661 1.2577.862.8499 1.3894 2.0494 1.4623 3.4389.0737 1.4078-.3424 2.6845-1.13 3.6116-.787.9362-1.9537 1.5418-3.3619 1.6156-1.4082.0738-2.604-.408-3.4656-1.2486-.8708-.8401-1.3992-2.058-1.471-3.4291zm2.2099-.199c.042.8006.2931 1.5164.738 2.0283.4449.5118 1.1112.8183 1.9728.7731.8153-.0427 1.4109-.3784 1.792-.9059.3811-.5274.5385-1.2461.4956-2.065-.0424-.8098-.2755-1.5358-.7112-2.0481-.4448-.5119-1.0824-.8014-1.9348-.7567-.8245.0432-1.4386.3799-1.829.9078-.39.5371-.5659 1.2568-.5234 2.0666zm10.564-5.2962l.2297.6615c.7493-.5929 1.632-.9436 2.4936-.9888.9265-.0485 1.8157.2555 2.412.9993.8143-.7716 1.859-1.2231 2.8689-1.276.806-.0423 1.5792.1756 2.164.6985.5848.523.9817 1.3603 1.0435 2.5381l.3322 6.34-2.1679.1136-.3019-5.7602c-.0362-.6902-.2465-1.159-.5589-1.447-.3216-.2877-.736-.3952-1.1807-.3719-.5467.0287-1.0929.2418-1.5865.5722.05.2465.0909.4935.1058.7788l.3352 6.3951-2.168.1137-.3018-5.7603c-.0362-.6901-.2373-1.1594-.5404-1.448-.3027-.2794-.699-.397-1.1344-.3742-.5281.0277-1.0822.269-1.5836.6274l.3732 7.122-2.168.1137-.5005-9.5514 1.8344-.0961zm15.1444-4.5768l.6983 13.3241-2.168.1136-.6886-13.14 1.8804-.2831.278-.0146zm10.2038 10.3439l.1095 2.0888c-.8307.4587-1.8786.6705-2.7032.7137-1.3341.07-2.588-.2796-3.5389-1.051-.9508-.7713-1.5908-1.9926-1.6776-3.649-.0844-1.6102.3883-2.8714 1.1593-3.7607.7621-.8796 1.8234-1.3689 2.9074-1.4257.3057-.016.8542-.0079 1.4295.1558.5753.1636 1.2153.4991 1.7118 1.1097.4965.6107.87 1.5323.9394 2.8573l.0752 1.4355-5.8367.3059c.2165.7637.6424 1.2673 1.1786 1.5714.527.3045 1.1549.41 1.7756.3775.8153-.0427 1.6648-.318 2.3853-.7524l.0848.0232zm-1.6594-3.124c-.083-.697-.3592-1.1807-.71-1.4945-.3505-.3046-.7839-.4203-1.2008-.3984-.4447.0233-.891.1943-1.2446.5358-.3625.3512-.6237.8631-.7265 1.5605l3.8819-.2034zm12.0037-3.5264l-.0371.1773c-.4672.126-1.0315.3493-1.5797.701.1772.369.272.7608.2938 1.1748.0477.911-.279 1.7678-.8767 2.4173-.607.65-1.4853 1.0836-2.5322 1.1385-.3984.0209-.7714-.0057-1.1102-.0895-.1289.2005-.1656.387-.1578.5342.0207.3957.432.6233 1.1084.5878l1.1118-.0582c1.3248-.0695 2.3145.2016 2.9807.6834.6663.4818 1.0101 1.1927 1.0526 2.0025.0545 1.0398-.536 2.0026-1.4371 2.7142-.9005.7208-2.1208 1.1907-3.3159 1.2533-1.1025.0578-2.0097-.236-2.6501-.756-.64-.511-1.0228-1.2567-1.0671-2.1033-.0405-.773.3281-1.715 1.0215-2.4894-.2672-.1337-.4747-.372-.6194-.6504-.1447-.2784-.2347-.5782-.2487-.845-.027-.5154.183-1.1169.6076-1.702-.557-.5244-.873-1.4121-.9159-2.231-.0477-.911.2721-1.7213.8722-2.3248.6001-.6035 1.4717-.9906 2.5186-1.0455.7134-.0374 1.3516.086 1.8853.3441.3918-.325.842-.5977 1.2595-.7857.4174-.188.8208-.2922 1.145-.3091l.691 1.6615zm-4.9184.9867c-.491.0257-.852.2292-1.0886.5a1.3153 1.3153 0 0 0-.3404.9497c.0173.3313.1649.665.4378.909.2636.2445.6526.3995 1.1622.3728.4817-.0253.8524-.22 1.0798-.4903a1.3403 1.3403 0 0 0 .3136-.93c-.0174-.3312-.1561-.6745-.4203-.9283-.2729-.244-.6531-.4086-1.1441-.3829zm-.5945 7.625c-.3405.4146-.5314.849-.5069 1.3183.0406.773.6717 1.2935 1.8483 1.2318.6578-.0344 1.2128-.2573 1.605-.5731.3927-.3066.6138-.6965.593-1.0922-.0255-.4877-.3081-.7405-.7513-.8649-.4524-.1239-1.0648-.1102-1.769-.0733l-1.019.0534zm15.2686-9.123l-.0372.1773c-.4671.126-1.0314.3493-1.5797.701.1773.369.2721.7608.2938 1.1749.0478.911-.279 1.7677-.8766 2.4173-.607.65-1.4854 1.0835-2.5323 1.1384-.3984.0209-.7714-.0057-1.1102-.0894-.1288.2005-.1655.387-.1578.5342.0207.3956.4321.6232 1.1085.5878l1.1117-.0583c1.3249-.0694 2.3145.2016 2.9808.6834.6663.4818 1.01 1.1927 1.0525 2.0025.0545 1.0398-.536 2.0027-1.437 2.7142-.9006.7208-2.1208 1.1907-3.316 1.2534-1.1024.0577-2.0097-.2361-2.65-.7562-.64-.5108-1.0228-1.2566-1.0672-2.1032-.0405-.7729.3282-1.715 1.0215-2.4894-.2671-.1336-.4747-.3719-.6193-.6504-.1447-.2784-.2347-.5782-.2487-.845-.027-.5153.183-1.1169.6076-1.702-.557-.5244-.873-1.412-.916-2.231-.0477-.911.2722-1.7213.8723-2.3248.6-.6035 1.4716-.9906 2.5185-1.0455.7134-.0373 1.3516.086 1.8854.3441.3917-.325.842-.5977 1.2594-.7857.4175-.188.8208-.2921 1.145-.3091l.691 1.6615zm-4.9185.9867c-.491.0258-.852.2292-1.0886.5a1.3153 1.3153 0 0 0-.3404.9497c.0174.3313.165.665.4378.909.2637.2446.6527.3995 1.1622.3728.4818-.0253.8525-.22 1.0799-.4903a1.3403 1.3403 0 0 0 .3135-.9299c-.0173-.3312-.156-.6746-.4202-.9283-.273-.244-.6532-.4087-1.1442-.383zm-.5944 7.625c-.3406.4146-.5315.849-.5069 1.3183.0405.773.6716 1.2935 1.8483 1.2319.6577-.0345 1.2128-.2574 1.605-.5732.3927-.3066.6138-.6965.593-1.0922-.0255-.4877-.3082-.7404-.7513-.8648-.4525-.124-1.0649-.1103-1.769-.0734l-1.0191.0534zm6.4229-12.1656c-.0188-.3589.1042-.6698.3238-.912.2195-.2422.5273-.3967.8886-.4156.3614-.019.6928.102.9365.32.2344.2183.3986.5142.4174.8731a1.2544 1.2544 0 0 1-.3238.912c-.2196.2422-.5366.3972-.898.4161-.3613.019-.6835-.1026-.9272-.3205-.2431-.2087-.3985-.5142-.4173-.8731zm2.5034 2.3878l.5005 9.5513-2.1679.1137-.5005-9.5514 2.1679-.1136zm3.8633-.2025l.2522.7342c.8585-.6356 1.9432-1.0338 3.0179-1.0901.9172-.048 1.8103.1542 2.4785.6728.6682.5186 1.129 1.3341 1.1922 2.5396l.3322 6.34-2.1679.1136-.299-5.7051c-.0371-.7085-.3226-1.1918-.7373-1.4838-.4148-.292-.959-.3927-1.5426-.362-.7412.0388-1.4893.2994-2.063.6986l.371 7.076-2.168.1137-.5006-9.5514 1.8344-.0961zm17.2282.0844l-.0371.1772c-.4672.126-1.0315.3494-1.5797.701.1772.369.272.7608.2938 1.175.0477.9109-.279 1.7677-.8767 2.4172-.607.65-1.4853 1.0836-2.5322 1.1385-.3984.0208-.7714-.0058-1.1102-.0895-.1289.2005-.1656.387-.1578.5342.0207.3957.432.6233 1.1084.5878l1.1118-.0583c1.3248-.0694 2.3145.2017 2.9807.6835.6663.4818 1.0101 1.1927 1.0526 2.0024.0545 1.0398-.536 2.0027-1.4371 2.7143-.9005.7207-2.1208 1.1907-3.3159 1.2533-1.1025.0578-2.0097-.236-2.6501-.7561-.64-.5109-1.0228-1.2566-1.0671-2.1032-.0405-.773.3281-1.715 1.0215-2.4895-.2672-.1336-.4747-.3718-.6194-.6503-.1447-.2785-.2347-.5782-.2487-.845-.027-.5154.183-1.117.6076-1.702-.557-.5244-.873-1.4121-.9159-2.231-.0477-.911.2721-1.7213.8722-2.3248.6001-.6036 1.4717-.9906 2.5186-1.0455.7134-.0374 1.3516.086 1.8853.344.3918-.325.842-.5977 1.2595-.7856.4175-.188.8208-.2922 1.145-.3092l.691 1.6616zm-4.9184.9867c-.491.0257-.852.2292-1.0886.5a1.3153 1.3153 0 0 0-.3404.9497c.0173.3313.1649.665.4378.909.2636.2445.6526.3994 1.1622.3727.4817-.0252.8524-.22 1.0798-.4902a1.3403 1.3403 0 0 0 .3136-.93c-.0174-.3312-.1561-.6745-.4203-.9283-.2729-.244-.6531-.4087-1.1441-.383zm-.5945 7.625c-.3405.4146-.5314.849-.5069 1.3183.0406.773.6717 1.2935 1.8483 1.2318.6578-.0345 1.2128-.2573 1.605-.5731.3927-.3067.6138-.6965.593-1.0922-.0255-.4877-.3081-.7405-.7513-.8649-.4524-.124-1.0648-.1103-1.769-.0734l-1.019.0534z" fill="#000"/>
      </g>
      <g>
        <path d="M214.4909 149.4449l-128.8393-6.7522c-1.6546-.0867-3.0662 1.1843-3.153 2.8389l-1.7466 33.3291c-.0868 1.6546 1.1843 3.0662 2.8388 3.1529l128.8394 6.7522a3 3 0 0 0 1.2321-.1952l38.302-14.703c1.5467-.5937 2.3193-2.329 1.7255-3.8758a3 3 0 0 0-1.4387-1.598l-36.5552-18.626a3 3 0 0 0-1.205-.3229z" fill="#FFE615"/>
        <path d="M211.5922 152.4473l-122.9514-6.4436c-1.6546-.0867-3.0662 1.1843-3.1529 2.8389l-1.417 27.0377c-.0867 1.6546 1.1843 3.0662 2.8389 3.153l122.9514 6.4435a3 3 0 0 0 1.0913-.145l35.6591-11.6873c1.5745-.516 2.4325-2.2106 1.9165-3.785a3 3 0 0 0-1.6236-1.8033l-34.2421-15.3505a3 3 0 0 0-1.0702-.2584zm-1.855 3.057a3 3 0 0 1 1.258.3506l23.4372 12.5365a2 2 0 0 1 .9091 1.0098c.4164 1.023-.0755 2.19-1.0987 2.6063l-24.6192 10.018a3 3 0 0 1-1.2877.217l-118.0986-6.1892c-1.6546-.0867-2.9256-1.4983-2.8389-3.1529l1.0873-20.7464c.0867-1.6546 1.4983-2.9256 3.1529-2.8389l118.0985 6.1893z" fill="#000"/>
        <path d="M106.4678 169.1275l-2.4062-.126-1.9484-8.505-2.8267 8.2547-2.4062-.1261-2.981-12.6206 2.304.1207 2.0663 8.744 2.904-8.4835 2.3039.1207 2.0012 8.7405 2.969-8.48 2.304.1208-4.284 12.2398zm12.5059-2.0368l-.1105 2.1089c-.8766.3732-1.944.4757-2.7708.4323-1.3378-.07-2.5515-.5529-3.4186-1.4274-.867-.8746-1.3769-2.1682-1.2892-3.8404.0852-1.6258.6892-2.8425 1.5516-3.6543.8525-.803 1.9623-1.1827 3.0493-1.1258.3066.0161.8527.082 1.4092.3068s1.1595.629 1.5904 1.2944c.4309.6653.7064 1.63.6363 2.9677l-.076 1.4493-5.8528-.3067c.1356.7896.5074 1.34 1.01 1.7018.4935.3612 1.1086.5332 1.731.5658.8176.0428 1.6938-.1441 2.458-.5047l.082.0323zm-1.3263-3.3114c-.0095-.7084-.234-1.2233-.551-1.5752-.3173-.3427-.7374-.5045-1.1554-.5264-.446-.0233-.909.1014-1.2976.4071-.3984.3145-.7127.801-.8886 1.4905l3.8926.204zm12.3416-2.2783l-.0557.174c-.4792.0775-1.0654.2424-1.6492.5378.138.3892.1914.7926.1695 1.2106-.0482.9197-.4641 1.7457-1.1285 2.335-.6736.5888-1.5952.9318-2.645.8768-.3995-.021-.7686-.0869-1.0977-.2066-.1496.1878-.2058.3712-.2136.5198-.021.3995.3654.6713 1.0436.7068l1.1148.0584c1.3285.0696 2.287.446 2.9007.9998.6137.5538.8818 1.3038.839 2.1213-.055 1.0498-.7452 1.9545-1.7186 2.5742-.9738.629-2.2401.9726-3.4385.9098-1.1056-.058-1.9794-.4484-2.5634-1.038-.5844-.5802-.8877-1.3693-.843-2.224.041-.7804.5077-1.6875 1.2806-2.3923-.2523-.1622-.4343-.4233-.5492-.7181-.115-.2948-.1733-.6053-.1592-.8747.0273-.5202.3-1.1022.785-1.645-.5004-.5852-.722-1.5097-.6788-2.3365.0482-.9198.4524-1.6997 1.1143-2.2426.662-.5429 1.5718-.8399 2.6216-.7849.7154.0375 1.3388.2286 1.844.5438.4248-.2851.9025-.5116 1.3386-.6564.436-.1449.8492-.207 1.1744-.19l.5143 1.741zm-5.0087.4735c-.4924-.0258-.8738.1405-1.1382.3875a1.3325 1.3325 0 0 0-.4394.9178c-.0175.3345.0945.685.341.9588.2372.2732.6089.4697 1.1198.4965.4831.0253.8733-.1312 1.1284-.3787a1.3583 1.3583 0 0 0 .4106-.9007c.0175-.3345-.0848-.6938-.3215-.9764-.2465-.2738-.6084-.479-1.1007-.5048zm-1.3948 7.5937c-.3832.3804-.6193.7966-.6441 1.2704-.041.7804.5337 1.3694 1.7136 1.4313.6596.0345 1.2365-.1309 1.6608-.4067.4239-.2666.6854-.6348.7063-1.0343.0258-.4924-.2295-.776-.6583-.9475-.4381-.172-1.0503-.2227-1.7564-.2597l-1.0219-.0535zm7.2228-4.149c.0755-1.4399.6336-2.6683 1.5262-3.5251.8927-.8568 2.1105-1.3426 3.5133-1.2691 1.4121.074 2.554.6834 3.3243 1.6274.7703.944 1.17 2.204 1.0965 3.6068-.0745 1.4214-.6238 2.6595-1.5066 3.5075-.8834.8574-2.1105 1.3427-3.5226 1.2687-1.4121-.074-2.554-.6835-3.3248-1.6182-.78-.9352-1.1788-2.2137-1.1063-3.598zm2.2248.0328c-.0424.8083.1328 1.5534.5226 2.1141.3898.5608 1.0221.9386 1.8861.9839.8176.0428 1.4468-.2316 1.8823-.7212.4356-.4895.6682-1.1946.7115-2.0214.0428-.8176-.1133-1.571-.4938-2.1313-.3899-.5607-.9953-.9185-1.85-.9633-.8268-.0433-1.4746.2302-1.9194.7192-.4453.4983-.6965 1.2025-.7393 2.02zm11.0918-4.207l.1596.6885c.8096-.5165 1.7268-.7759 2.5908-.7306.929.0487 1.7837.4475 2.3003 1.257.8931-.689 1.9824-1.0326 2.995-.9795.8083.0424 1.5564.3424 2.0846.929.5282.5867.836 1.4692.7737 2.6583l-.3355 6.401-2.1739-.114.3048-5.8157c.0365-.6967-.124-1.1895-.4052-1.5117-.2905-.3226-.6924-.4741-1.1384-.4975-.5481-.0287-1.1152.1279-1.6423.4077.024.2527.0388.505.0237.793l-.3384 6.4567-2.1739-.114.3048-5.8156c.0365-.6967-.1147-1.189-.3866-1.5107-.2724-.3124-.6553-.4722-1.092-.4951-.5295-.0278-1.1074.1562-1.6452.4634l-.3768 7.1906-2.1739-.114.5054-9.6431 1.8394.0964zm15.5841-3.0026l-.705 13.4521-2.1739-.114.6953-13.2663 1.905-.0864.2786.0146zm9.0878 11.4594l-.1106 2.1089c-.8766.3732-1.944.4757-2.7707.4323-1.3378-.07-2.5515-.5529-3.4186-1.4274-.8671-.8746-1.3769-2.1682-1.2892-3.8404.0852-1.6258.6892-2.8424 1.5516-3.6543.8525-.803 1.9623-1.1827 3.0493-1.1258.3066.0161.8527.082 1.4092.3068s1.1595.629 1.5904 1.2944c.4309.6653.7064 1.63.6363 2.9678l-.076 1.4492-5.8528-.3067c.1356.7896.5074 1.34 1.01 1.7018.4935.3612 1.1086.5332 1.731.5658.8176.0429 1.6938-.1441 2.458-.5046l.082.0322zm-1.3263-3.3113c-.0095-.7085-.234-1.2233-.551-1.5753-.3173-.3427-.7374-.5044-1.1554-.5264-.446-.0233-.909.1015-1.2976.4071-.3984.3145-.7127.8011-.8886 1.4906l3.8926.204zm12.3415-2.2784l-.0557.1741c-.4791.0774-1.0653.2423-1.649.5377.138.3892.1913.7926.1694 1.2106-.0482.9198-.4641 1.7457-1.1285 2.335-.6736.5889-1.5952.9318-2.645.8768-.3995-.021-.7686-.0869-1.0977-.2066-.1496.1878-.2058.3712-.2136.5198-.021.3995.3654.6713 1.0436.7068l1.1148.0584c1.3285.0697 2.287.446 2.9007.9998.6137.5538.8818 1.3038.839 2.1214-.055 1.0497-.7452 1.9544-1.7186 2.5742-.9738.629-2.2401.9725-3.4386.9097-1.1055-.058-1.9793-.4484-2.5633-1.038-.5844-.5802-.8877-1.3693-.843-2.224.041-.7804.5077-1.6875 1.2806-2.3922-.2523-.1623-.4343-.4234-.5493-.7182-.115-.2948-.1732-.6053-.159-.8747.0272-.5202.3-1.1021.7848-1.645-.5003-.5851-.722-1.5097-.6787-2.3365.0482-.9197.4524-1.6997 1.1143-2.2426.662-.5429 1.5718-.8399 2.6216-.7849.7154.0375 1.3388.2286 1.844.5438.4248-.2851.9024-.5116 1.3386-.6564.436-.1449.8492-.207 1.1744-.19l.5142 1.741zm-5.0086.4735c-.4924-.0258-.8738.1405-1.1382.3875a1.3325 1.3325 0 0 0-.4394.9178c-.0175.3345.0945.685.341.9588.2372.2733.6089.4697 1.1198.4965.4831.0253.8733-.1312 1.1284-.3787a1.3583 1.3583 0 0 0 .4105-.9007c.0176-.3345-.0847-.6938-.3214-.9764-.2465-.2737-.6084-.479-1.1007-.5048zm-1.3948 7.5937c-.3832.3805-.6193.7966-.6441 1.2704-.041.7804.5337 1.3694 1.7136 1.4313.6596.0345 1.2365-.1309 1.6608-.4067.4239-.2666.6854-.6348.7063-1.0343.0258-.4924-.2295-.776-.6583-.9474-.4381-.172-1.0503-.2228-1.7564-.2598l-1.0219-.0535zm16.186-7.5545l-.0557.174c-.4792.0774-1.0654.2424-1.6491.5378.138.3892.1913.7926.1694 1.2106-.0482.9197-.4641 1.7457-1.1284 2.335-.6737.5888-1.5953.9318-2.645.8768-.3995-.021-.7687-.0869-1.0978-.2066-.1496.1878-.2058.3712-.2136.5198-.0209.3995.3654.6713 1.0436.7068l1.1148.0584c1.3285.0696 2.287.446 2.9007.9998.6138.5538.8819 1.3038.839 2.1213-.055 1.0498-.7452 1.9545-1.7185 2.5742-.9739.629-2.2402.9726-3.4386.9098-1.1056-.058-1.9794-.4484-2.5633-1.038-.5845-.5802-.8878-1.3693-.843-2.224.041-.7804.5077-1.6875 1.2805-2.3923-.2523-.1622-.4343-.4233-.5492-.7181-.115-.2948-.1732-.6053-.1591-.8747.0272-.5202.3-1.1022.7849-1.645-.5004-.5852-.722-1.5097-.6787-2.3365.0482-.9198.4523-1.6997 1.1143-2.2426.6619-.5429 1.5718-.8399 2.6215-.7849.7154.0375 1.3388.2286 1.844.5438.4248-.2851.9025-.5116 1.3386-.6565.4361-.1448.8492-.207 1.1744-.19l.5143 1.7411zm-5.0087.4735c-.4924-.0259-.8737.1405-1.1382.3875a1.3325 1.3325 0 0 0-.4394.9178c-.0175.3345.0946.685.341.9588.2372.2732.6089.4697 1.1199.4965.483.0253.8732-.1312 1.1284-.3787a1.3583 1.3583 0 0 0 .4105-.9007c.0175-.3345-.0848-.6938-.3215-.9764-.2465-.2738-.6083-.479-1.1007-.5048zm-1.3948 7.5937c-.3832.3804-.6193.7966-.6441 1.2704-.041.7804.5337 1.3694 1.7136 1.4313.6596.0345 1.2365-.1309 1.6609-.4067.4238-.2666.6853-.6348.7063-1.0343.0258-.4924-.2295-.776-.6584-.9475-.4381-.172-1.0503-.2227-1.7563-.2597l-1.022-.0535zm7.6847-11.54c.019-.3623.1744-.6616.4189-.8817.2444-.22.5676-.3428.9299-.3239.3623.019.6801.1754.9002.4198.2108.244.3434.5584.3244.9207a1.2707 1.2707 0 0 1-.4188.8816c-.2445.2201-.577.3424-.9392.3234-.3623-.019-.671-.1749-.891-.4193-.2206-.2351-.3434-.5583-.3244-.9206zm2.2454 2.6609l-.5054 9.6431-2.1739-.1139.5054-9.6432 2.1739.114zm3.874.203l.1742.7637c.923-.5478 2.0466-.8336 3.1242-.7772.9198.0482 1.7892.3453 2.401.9363.6118.591.9855 1.4583.9218 2.6754l-.3355 6.4009-2.1739-.114.3019-5.7599c.0375-.7153-.1964-1.2306-.5793-1.5674-.383-.3368-.915-.4951-1.5002-.5258-.7432-.039-1.5167.1441-2.1307.4846l-.3744 7.144-2.174-.1138.5054-9.6432 1.8395.0964zm17.1718 1.8967l-.0557.174c-.4791.0774-1.0653.2423-1.649.5378.1379.3892.1913.7925.1694 1.2106-.0482.9197-.4641 1.7457-1.1285 2.335-.6736.5888-1.5952.9318-2.645.8768-.3995-.021-.7687-.0869-1.0978-.2066-.1495.1878-.2057.3712-.2135.5198-.021.3995.3654.6712 1.0436.7068l1.1148.0584c1.3285.0696 2.2869.446 2.9007.9998.6137.5538.8818 1.3038.839 2.1213-.055 1.0498-.7452 1.9545-1.7186 2.5742-.9738.629-2.2401.9726-3.4386.9098-1.1055-.058-1.9793-.4485-2.5633-1.038-.5844-.5802-.8877-1.3693-.843-2.224.041-.7804.5077-1.6875 1.2806-2.3923-.2524-.1622-.4343-.4233-.5493-.7181-.115-.2948-.1732-.6053-.159-.8747.0272-.5203.2999-1.1022.7848-1.645-.5003-.5852-.722-1.5097-.6787-2.3366.0482-.9197.4524-1.6996 1.1143-2.2425.662-.5429 1.5718-.8399 2.6216-.7849.7153.0375 1.3388.2285 1.844.5438.4248-.2851.9024-.5116 1.3385-.6565.4362-.1448.8493-.207 1.1745-.19l.5142 1.7411zm-5.0087.4734c-.4923-.0258-.8737.1406-1.1382.3875a1.3325 1.3325 0 0 0-.4393.9179c-.0175.3344.0945.685.341.9588.2372.2732.6088.4697 1.1198.4965.483.0253.8732-.1313 1.1284-.3787a1.3583 1.3583 0 0 0 .4105-.9008c.0176-.3344-.0847-.6938-.3214-.9763-.2465-.2738-.6084-.479-1.1008-.5049zm-1.3947 7.5937c-.3833.3805-.6193.7967-.6442 1.2705-.0409.7803.5338 1.3694 1.7136 1.4312.6596.0346 1.2366-.1308 1.661-.4066.4238-.2666.6853-.6349.7062-1.0343.0258-.4924-.2295-.776-.6583-.9475-.4382-.172-1.0503-.2227-1.7564-.2597l-1.022-.0536z" fill="#000"/>
      </g>
    </g>
    <path d="M285.3689 136.8081l-7.6329 145.6432c-.058 1.108-.6051 1.975-1.2216 1.9428l-7.777-.4076c-.6166-.0323-1.07-.9518-1.012-2.0598l7.6329-145.6432c.0578-1.1035.6051-1.975 1.2216-1.9428l7.777.4076c.6166.0323 1.0698.9563 1.012 2.0598" fill="#989B9F"/>
    <path d="M285.3056 134.2604v4.8614c0 .037-.501.0668-1.1183.0668h-7.7877c-.6174 0-1.1183-.0298-1.1183-.0668v-4.8614c0-.0369.501-.0668 1.1183-.0668h7.7877c.6173 0 1.1183.03 1.1183.0668M277.813 275.8539v4.8614c0 .037-.501.0668-1.1183.0668h-7.7877c-.6173 0-1.1183-.0298-1.1183-.0668v-4.8614c0-.0369.501-.0668 1.1183-.0668h7.7877c.6174 0 1.1183.03 1.1183.0668" fill-opacity=".5" fill="#CCD3DB" style="mix-blend-mode:multiply"/>
    <path d="M262.0645 277.0316h21.4727c1.6569 0 3 1.3431 3 3v10.7834h-27.4727v-10.7834c0-1.6569 1.3432-3 3-3z" fill="#666"/>
    <path d="M268.3083 280.7907h8.9851c1.6569 0 3 1.3431 3 3v7.0243h-14.985v-7.0243c0-1.6569 1.343-3 3-3z" fill="#000"/>
    <path d="M286.5843 288.3466v2.4307c0 .0185-1.3776.0334-3.0753.0334h-21.4162c-1.6977 0-3.0754-.0149-3.0754-.0334v-2.4307c0-.0184 1.3777-.0334 3.0754-.0334h21.4162c1.6977 0 3.0753.015 3.0753.0334" fill-opacity=".5" fill="#CCD3DB" style="mix-blend-mode:multiply"/>
    <path d="M259.933 288.309h63.1986c.4808 0 .8684.1251.8684.2795v1.947c0 .1542-.3876.2795-.8684.2795h-63.1987c-.4788 0-.8684-.1253-.8684-.2796v-1.947c0-.1543.3896-.2795.8684-.2795" fill-opacity=".5" fill="#CCD3DB" style="mix-blend-mode:multiply"/>
    <g>
      <g transform="rotate(4 -815.6326 3632.7135)">
        <circle stroke="#FFE615" stroke-width="7" stroke-linejoin="square" fill="#FFF" cx="33.5" cy="33.5" r="30"/>
        <circle stroke="#666" cx="33.5" cy="33.5" r="34"/>
      </g>
      <path d="M275.0132 119.633l1.3822-19.7665c.1926-2.7547 2.5819-4.8317 5.3366-4.639l11.15.7796" stroke="#000" stroke-width="6"/>
      <path fill="#000" d="M301.4985 96.6097l-11.8318 9.1228 1.3848-19.8035z"/>
      <path fill="#FFE615" d="M265.985 76.1595l39.886 45.8836-5.6184 4.884-39.886-45.8836z"/>
    </g>
  </g>
</svg>
