<svg width="358" height="308" xmlns="http://www.w3.org/2000/svg" xmlns:xlink="http://www.w3.org/1999/xlink">
  <defs>
    <path d="M154 308C68.9486 308 0 239.0522 0 154 0 68.9486 68.9486 0 154 0s154 68.9486 154 154c0 85.0522-68.9486 154-154 154z" id="a"/>
    <path d="M154 308C68.9486 308 0 239.0522 0 154 0 68.9486 68.9486 0 154 0s154 68.9486 154 154c0 85.0522-68.9486 154-154 154z" id="c"/>
    <rect id="e" width="24" height="178" rx="4"/>
    <rect id="g" width="24" height="178" rx="4"/>
  </defs>
  <g fill="none" fill-rule="evenodd">
    <mask id="b" fill="#fff">
      <use xlink:href="#a"/>
    </mask>
    <use fill-opacity=".5" fill="#E8EBEE" xlink:href="#a"/>
    <path fill="#B7BDC3" mask="url(#b)" d="M-58 246h435v110H-58z"/>
    <path d="M180.3799 268c1.4507 0 2.6201.1 2.6201.2231v1.5538c0 .1232-1.1694.2231-2.6201.2231H54.62c-1.4447 0-2.6201-.1-2.6201-.2231v-1.5538C52 268.1 53.1754 268 54.6201 268H180.38z" fill-opacity=".5" fill="#CCD3DB" style="mix-blend-mode:multiply"/>
    <path d="M72.465 268c.2962 0 .535.1.535.2231v1.5538c0 .1232-.2388.2231-.535.2231h-17.93c-.295 0-.535-.1-.535-.2231v-1.5538c0-.1232.24-.2231.535-.2231h17.93zM347.3799 268c1.4507 0 2.6201.1 2.6201.2231v1.5538c0 .1232-1.1694.2231-2.6201.2231H200.62c-1.4447 0-2.6201-.1-2.6201-.2231v-1.5538c0-.1232 1.1754-.2231 2.6201-.2231H347.38z" fill-opacity=".5" fill="#CCD3DB" style="mix-blend-mode:multiply"/>
    <path d="M357.465 268c.2962 0 .535.1.535.2231v1.5538c0 .1232-.2388.2231-.535.2231h-128.93c-.295 0-.535-.1-.535-.2231v-1.5538c0-.1232.24-.2231.535-.2231h128.93z" fill-opacity=".5" fill="#CCD3DB" style="mix-blend-mode:multiply"/>
    <path d="M181.1917 165.24c.917 1.077 2.283 1.76 3.8083 1.76 1.5254 0 2.8912-.683 3.8083-1.76 7.935-37.2775 41.048-65.24 80.6917-65.24H314c4.4183 0 8 3.5817 8 8v149c0 4.4183-3.5817 8-8 8h-44.5c-40.0981 0-73.515-28.607-80.9546-66.5257C187.6398 197.5637 186.3857 197 185 197s-2.6398.5637-3.5454 1.4743C174.0151 236.393 140.5981 265 100.5 265H56c-4.4183 0-8-3.5817-8-8V108c0-4.4183 3.5817-8 8-8h44.5c39.6436 0 72.7566 27.9625 80.6917 65.24z" fill="#727373"/>
    <path d="M181.1917 164.24c.917 1.077 2.283 1.76 3.8083 1.76 1.5254 0 2.8912-.683 3.8083-1.76C196.7433 126.9625 229.8563 99 269.5 99H314c4.4183 0 8 3.5817 8 8v149c0 4.4183-3.5817 8-8 8h-44.5c-40.0981 0-73.515-28.607-80.9546-66.5257C187.6398 196.5637 186.3857 196 185 196s-2.6398.5637-3.5454 1.4743C174.0151 235.393 140.5981 264 100.5 264H56c-4.4183 0-8-3.5817-8-8V107c0-4.4183 3.5817-8 8-8h44.5c39.6436 0 72.7566 27.9625 80.6917 65.24z" fill="#DAE0E5"/>
    <path d="M171.9932 167.8457C173.5369 172.2802 176.253 175.231 181 178c6 3.5 0 7 0 7s-6.7042 5.5822-9.2134 11.473c-6.126 37.3042-34.718 65.527-69.0644 65.527H64.8148C61.0511 262 58 258.5051 58 254.194V108.806c0-4.3111 3.0511-7.806 6.8148-7.806h37.9074c34.75 0 63.6094 28.8902 69.271 66.8457zM198.6208 198.7683C197.222 192.1236 188.6667 185 188.6667 185s-6-3.5 0-7c5.8492-3.412 8.615-7.1 9.9033-13.4998C205.3817 128.2055 233.5563 101 267.2778 101h37.9074c3.7637 0 6.8148 3.4949 6.8148 7.806v145.388c0 4.3111-3.0511 7.806-6.8148 7.806h-37.9074c-33.6384 0-61.757-27.0712-68.657-63.2317z" fill="#E8ECEF"/>
    <path d="M168 189c0 1.999.3119 6.8755-1.2134 11.473C155 236 130.1875 257 100.7222 257H69.8148C66.0511 257 63 253.5051 63 249.194v-52.388c0-4.3111 3.0511-7.806 6.8148-7.806s16.357 5 44.9074 5C143.2726 194 168 181 168 189zM205.88 199.473C213 236 241.254 257 266.9445 257h32.9075c3.7637 0 6.8148-3.4949 6.8148-7.806v-43.388c0-4.3111-3.0511-5.806-6.8148-5.806-3.7638 0-8.1575 7-42.9075 7-34.7499 0-53.5736-13.4178-51.0643-7.527z" fill="#FFE615"/>
    <path d="M181.3165 184.7948l.214-1.5057s.8514-2.6074-5-2.6074c-4.5305 0-12.0285-3.966-14.215-7.1342C149 154.2531 126.662 148 98.8252 148H63.4591C60.444 148 58 150.7996 58 154.2531v-45.447C58 104.4949 61.0511 101 64.8148 101h37.9074c34.75 0 63.6094 28.8902 69.271 66.8457C173.5369 172.2802 176.253 175.231 181 178c5.1405 2.9986 1.4728 5.9972.3165 6.7948z" fill-opacity=".59" fill="#FFF"/>
    <path d="M103.0456 124H70.5045c-3.3302 0-6.0299-3.1693-6.0299-7.0788v-2.8424c0-3.9095 2.6997-7.0788 6.0299-7.0788h32.5411c30.7474 0 59.2827 25.1986 64.2922 59.6179C168.7037 170.639 147.1973 124 103.0456 124z" fill="#FFF"/>
    <path d="M104.0456 241.8637H67.5045c-3.3302 0-6.0299 3.1693-6.0299 7.0788v2.8424c0 3.9095 2.6997 7.0788 6.0299 7.0788h36.5411c30.7474 0 59.2827-25.1985 64.2922-59.6178 1.3659-4.0213-20.1405 42.6178-64.2922 42.6178z" fill-opacity=".2" fill="#666"/>
    <g>
      <path d="M188.6835 184.7948l-.214-1.5057s-.8514-2.6074 5-2.6074c4.5305 0 12.0285-3.966 14.215-7.1342C221 154.2531 243.338 148 271.1748 148h35.3661c3.015 0 5.4591 2.7996 5.4591 6.2531v-45.447c0-4.3112-3.0511-7.8061-6.8148-7.8061h-37.9074c-34.75 0-63.6094 28.8902-69.271 66.8457C196.4631 172.2802 193.747 175.231 189 178c-5.1405 2.9986-1.4728 5.9972-.3165 6.7948z" fill-opacity=".59" fill="#FFF"/>
      <path d="M266.9544 124h32.5411c3.3302 0 6.0299-3.1693 6.0299-7.0788v-2.8424c0-3.9095-2.6997-7.0788-6.0299-7.0788h-32.5411c-30.7474 0-59.2827 25.1986-64.2922 59.6179C201.2963 170.639 222.8027 124 266.9544 124z" fill="#FFF"/>
      <path d="M265.9544 241.8637h36.5411c3.3302 0 6.0299 3.1693 6.0299 7.0788v2.8424c0 3.9095-2.6997 7.0788-6.0299 7.0788h-36.5411c-30.7474 0-59.2827-25.1985-64.2922-59.6178-1.3659-4.0213 20.1405 42.6178 64.2922 42.6178z" fill-opacity=".2" fill="#666"/>
    </g>
    <mask id="d" fill="#fff">
      <use xlink:href="#c"/>
    </mask>
    <g mask="url(#d)">
      <g transform="translate(31 92)">
        <mask id="f" fill="#fff">
          <use xlink:href="#e"/>
        </mask>
        <use fill="#666" xlink:href="#e"/>
        <path d="M.321 159h23.358c.1777 0 .321.9495.321 2.1196v14.7608c0 1.17-.1433 2.1196-.321 2.1196H.321c-.177 0-.321-.9495-.321-2.1196v-14.7608C0 159.9496.144 159 .321 159" fill="#CCD3DB" style="mix-blend-mode:multiply" mask="url(#f)"/>
      </g>
    </g>
    <g transform="translate(315 92)">
      <mask id="h" fill="#fff">
        <use xlink:href="#g"/>
      </mask>
      <use fill="#666" xlink:href="#g"/>
      <path d="M.321 159h23.358c.1777 0 .321.9495.321 2.1196v14.7608c0 1.17-.1433 2.1196-.321 2.1196H.321c-.177 0-.321-.9495-.321-2.1196v-14.7608C0 159.9496.144 159 .321 159" fill="#CCD3DB" style="mix-blend-mode:multiply" mask="url(#h)"/>
    </g>
  </g>
</svg>
