<svg width="417" height="308" xmlns="http://www.w3.org/2000/svg" xmlns:xlink="http://www.w3.org/1999/xlink">
  <defs>
    <path d="M308 154c0 85.0522-68.9486 154-154 154S0 239.0522 0 154C0 68.9486 68.9486 0 154 0s154 68.9486 154 154" id="a"/>
    <path d="M173.8044 30.9913l3.891 10.4208-83.2743 87.3103-91.6153-1.3794c-.5522-.0083-.9932-.4627-.9849-1.015a1 1 0 0 1 .1605-.5283l57.2893-88.5059 114.5337-6.3025z" id="c"/>
    <path d="M94.8045 128L61.0727 37.6807" id="d"/>
    <path d="M45.249 116.7225c-13.3228-27.0337-15.3238-35.3421-24.491-60.997C17.2292 45.3723 12.3099 31.1305 8 19" id="e"/>
  </defs>
  <g fill="none" fill-rule="evenodd">
    <mask id="b" fill="#fff">
      <use xlink:href="#a"/>
    </mask>
    <use fill-opacity=".5" fill="#E8EBEE" xlink:href="#a"/>
    <path fill="#B7BDC3" mask="url(#b)" d="M-58 238h435v110H-58z"/>
    <path d="M192.684 64c-1.0798-2.2731-1.684-4.816-1.684-7.5 0-9.665 7.835-17.5 17.5-17.5 2.0192 0 3.9586.342 5.7633.9712C217.6463 29.5411 227.4425 22 239 22c13.5992 0 24.76 10.4408 25.9035 23.7437C266.3478 45.2613 267.8934 45 269.5 45c8.0081 0 14.5 6.4919 14.5 14.5 0 1.5709-.2498 3.0834-.7118 4.5H192.684zM56.007 69a17.8284 17.8284 0 0 1-.007-.5c0-9.5723 7.6855-17.3496 17.2225-17.4978C74.1312 46.993 77.7161 44 82 44c1.5955 0 3.094.4152 4.3934 1.1433C91.1474 38.9744 98.6095 35 107 35c12.3513 0 22.691 8.6125 25.3414 20.1596A14.6169 14.6169 0 0 1 134.5 55c7.8408 0 14.228 6.2234 14.4915 14H56.007z" fill="#FFF" mask="url(#b)"/>
    <g mask="url(#b)">
      <g transform="translate(-25 129)">
        <circle stroke="#666" stroke-width="5" cx="66.5" cy="66.5" r="64" transform="translate(3 3)"/>
        <circle stroke="#000" stroke-width="6" cx="69.5" cy="69.5" r="69.5"/>
        <circle fill="#7F8081" cx="69.5" cy="69.5" r="10.5"/>
      </g>
    </g>
    <path d="M125.6535 269c.7455 0 1.3465.1 1.3465.2231v1.5538c0 .1232-.601.2231-1.3465.2231h-71.307c-.7425 0-1.3465-.1-1.3465-.2231v-1.5538c0-.1232.604-.2231 1.3465-.2231h71.307zM323.6535 266c.7455 0 1.3465.1 1.3465.2231v1.5538c0 .1232-.601.2231-1.3465.2231h-71.307c-.7425 0-1.3465-.1-1.3465-.2231v-1.5538c0-.1232.604-.2231 1.3465-.2231h71.307z" fill-opacity=".5" fill="#CCD3DB" style="mix-blend-mode:multiply"/>
    <path fill="#666" d="M364 262l2 6h-4zM397 262l2 6h-4zM376.9231 267.6749l-6.2961.599.8998-3.8975zM411.5117 267.5662l5.431.5168-.7762-3.362zM380.3147 267.3076l4.4048.419L384.09 265zM346.3147 267.3076l4.4048.419L350.09 265z"/>
    <path d="M209.2036 266h87.5928c.6664 0 1.2036.1 1.2036.2231v1.5538c0 .1232-.5372.2231-1.2036.2231h-87.5928c-.6637 0-1.2036-.1-1.2036-.2231v-1.5538c0-.1232.54-.2231 1.2036-.2231M55.4012 269h29.1976c.2221 0 .4012.1.4012.2231v1.5538c0 .1232-.179.2231-.4012.2231H55.4012c-.2212 0-.4012-.1-.4012-.2231v-1.5538c0-.1232.18-.2231.4012-.2231" fill-opacity=".5" fill="#CCD3DB" style="mix-blend-mode:multiply"/>
    <g transform="matrix(-1 0 0 1 322 134)">
      <circle cx="66.5" cy="66.5" r="64" transform="translate(3 1)" stroke="#666" stroke-width="5"/>
      <path d="M69.5 133c36.1747 0 65.5-29.3253 65.5-65.5S105.6747 2 69.5 2 4 31.3253 4 67.5 33.3253 133 69.5 133zM0 69.5C0 31.1162 31.1162 0 69.5 0S139 31.1162 139 69.5c0 24.5493-12.7283 46.1257-31.9454 58.49-4.4336 2.8525-2.0546.8525.9454-.99.6667-.7021 2-1.0388 4-1.01 3 .0432 5 3.01 5 5.01s-1.8954 3-3 3H14c-1.1046 0-5-1-5-6s5-8.4286 13-5c8 2.99 12.261 6.4762 10.0127 5.0332C12.7579 115.676 0 94.078 0 69.5z" fill="#000" fill-rule="nonzero"/>
      <circle fill="#7F8081" cx="70.5" cy="68.5" r="10.5"/>
    </g>
    <path d="M158.3795 201.5696l-18.7703-33.1765" stroke="#000" stroke-width="5" stroke-linecap="square"/>
    <path d="M147.9148 169.7371c1.3806.012 2.5096-1.0974 2.5217-2.478.012-1.3807-1.0974-2.5097-2.478-2.5218l-18.9994-.1658c-1.3806-.012-2.5096 1.0974-2.5217 2.4781-.012 1.3807 1.0974 2.5097 2.4781 2.5217l18.9993.1658z" fill="#666" fill-rule="nonzero"/>
    <path d="M210.0314 219.885l.9393-33.8147 42.7425 2.99c6.7612.4786 11.984 6.1333 11.9248 12.9111-.0601 6.8853-5.297 12.6199-12.1549 13.3036l-43.4517 4.61z" stroke="#000" stroke-width="2"/>
    <g transform="scale(-1 1) rotate(-.5 8567.3124 29343.1621)">
      <path d="M61.0727 37.6807L47 0" stroke="#7F8081" stroke-width="6"/>
      <path d="M210.249 124.7225c-13.3228-27.0337-15.3238-35.3421-24.491-60.997C182.2292 53.3723 177.3099 39.1305 173 27" stroke="#666" stroke-width="8"/>
      <use stroke="#666" stroke-width="8" xlink:href="#c"/>
      <use stroke="#FBE324" stroke-width="6" xlink:href="#c"/>
      <use stroke="#666" stroke-width="8" xlink:href="#d"/>
      <use stroke="#FBE324" stroke-width="6" xlink:href="#d"/>
      <path d="M173.8044 30.9913l3.891 10.4208-83.2743 87.3103-91.6153-1.3794c-.5522-.0083-.9932-.4627-.9849-1.015a1 1 0 0 1 .1605-.5283l57.2893-88.5059 114.5337-6.3025zM94.8045 128L61.0727 37.6807" stroke="#FBE324" stroke-width="6"/>
      <circle fill="#000" cx="2.5" cy="126.5" r="2.5"/>
      <rect fill="#000" transform="rotate(-16 59.0088 32.9826)" x="53.0088" y="30.9826" width="12" height="4" rx="2"/>
    </g>
    <path d="M209.8932 185.9587l-1.3607 33.7982-47.3429 4.7203a20.5362 20.5362 0 0 1-2.2167.1006c-11.3414-.099-20.4553-9.3733-20.3563-20.7147.004-.4451.0216-.89.053-1.334.8406-11.8763 11.1497-20.8225 23.026-19.9818l48.1976 3.4114z" stroke="#000" stroke-width="2"/>
    <g transform="scale(-1 1) rotate(-.5 21143.3039 22641.8939)">
      <circle stroke="#7F8081" stroke-width="4" cx="36.5" cy="18.5" r="16.5"/>
      <circle fill="#666" cx="36.5" cy="18.5" r="6.5"/>
      <path d="M37.2421 18.2601l-20 35.641" stroke="#000" stroke-width="5" stroke-linecap="round"/>
      <path d="M24.5 53c1.3807 0 2.5 1.1193 2.5 2.5S25.8807 58 24.5 58h-19C4.1193 58 3 56.8807 3 55.5S4.1193 53 5.5 53h19z" fill="#666" fill-rule="nonzero"/>
    </g>
    <g transform="scale(-1 1) rotate(-.5 9401.539 10431.6749)">
      <path d="M8.8137 21.7838C7.1633 17.1384 4.5587 9.8772 1 0h22.4524C33.754 0 39.8413 2.353 41.7143 7.0588c2.8095 7.0588 2.8095 14.725-9.8333 14.725" stroke="#7F8081" stroke-width="4" stroke-linecap="round"/>
      <path d="M23.4524 0C33.754 0 39.8413 2.353 41.7143 7.0588c2.8095 7.0588 2.8095 14.725-9.8333 14.725" stroke="#000" stroke-width="5" stroke-linecap="round"/>
      <use stroke="#666" stroke-width="8" xlink:href="#e"/>
      <use stroke="#FBE324" stroke-width="6" xlink:href="#e"/>
      <circle fill="#000" cx="45.5" cy="116.5" r="2.5"/>
      <rect fill="#000" transform="rotate(-16 7.0088 16.9826)" x="1.0088" y="14.9826" width="12" height="4" rx="2"/>
      <rect fill="#000" transform="rotate(-16 15.0088 40.9826)" x="9.0088" y="38.9826" width="12" height="4" rx="2"/>
    </g>
    <path d="M223.7727 66.8206c-5.726.4506-16.8518 5.493-28.3036 6.3942-11.4517.9013-20.0406 1.5772-19.8233 4.338.2173 2.7606 7.7006 6.3384 17.7208 5.5498 10.0203-.7887 8.9148 3.465 18.935 2.6764 10.0204-.7886 19.3889-9.8593 19.1716-12.62-.2173-2.7607-1.9747-6.789-7.7005-6.3384z" fill="#000"/>
    <g fill="#666">
      <path d="M314.6565 176.4793l4.0285-4.8756 2.1197 3.3922z"/>
    </g>
  </g>
</svg>
