<svg xmlns="http://www.w3.org/2000/svg" width="44" height="44" viewBox="0 0 44 44">
  <path fill-rule="evenodd" d="M22.0171804,1.71193971 C33.4860335,1.71193971 42.8195357,11.0110103 42.7850937,22.5143053 C42.7850937,31.7100571 36.8268137,39.4937225 28.5609697,42.249003 C27.5277396,42.4556485 27.1488888,41.8012688 27.1488888,41.2502132 C27.1488888,40.5613931 27.1833273,38.3227268 27.1833273,35.533007 C27.1833273,33.5698692 26.528948,32.3299944 25.7712464,31.6756152 C30.4207817,31.1590001 35.2769651,29.4025104 35.2769651,21.4121949 C35.2769651,19.1390867 34.4848216,17.2792746 33.1416246,15.8327518 C33.3482692,15.3161368 34.0715323,13.1807928 32.9349765,10.3221926 C32.9349765,10.3221926 31.1784868,9.77113563 27.2177726,12.4575331 C25.5646052,12.0098019 23.7736701,11.7687154 22.0171804,11.7687154 C20.2606872,11.7687154 18.4697555,12.0098019 16.8165881,12.4575331 C12.8558705,9.77113563 11.0993808,10.3221926 11.0993808,10.3221926 C9.96282496,13.1807928 10.6860881,15.3161368 10.8927327,15.8327518 C9.58397417,17.2792746 8.75739218,19.1390901 8.75739218,21.4121949 C8.75739218,29.4025104 13.6135721,31.1934421 18.228669,31.6756152 C17.6431701,32.1922302 17.0921131,33.122138 16.9199104,34.465335 C15.7144742,35.0163919 12.7181063,35.9118578 10.8582942,32.7432872 C10.8582942,32.7432872 9.75618033,30.7457074 7.65527827,30.6079432 C7.65527827,30.6079432 5.62326005,30.6079432 7.51751403,31.8822598 C7.51751403,31.8822598 8.89515642,32.5022006 9.82506417,34.9130696 C9.82506417,34.9130696 11.030497,38.6326972 16.8165881,37.3928225 C16.8165881,39.114872 16.8510266,40.7680388 16.8510266,41.2502132 C16.8510266,41.8012688 16.4721758,42.4556485 15.4389457,42.249003 C7.17310515,39.4937225 1.21481124,31.7100571 1.21481124,22.5143088 C1.21481124,11.0110103 10.5138819,1.71193971 22.0171804,1.71193971 Z M14.7070875,35.3608008 C14.9620898,35.3608008 15.1806657,35.5712786 15.1806657,35.8343772 C15.1806657,36.0974758 14.9620934,36.3079536 14.7070875,36.3079536 C14.4520853,36.3079536 14.2335129,36.0974758 14.2335129,35.8343772 C14.2335129,35.5712786 14.4520853,35.3608008 14.7070875,35.3608008 Z M16.7902246,35.5180917 C16.8277295,35.775702 16.6402088,36.0333174 16.3776858,36.0848415 C16.1151554,36.1363605 15.8901335,35.9817933 15.8526286,35.724183 C15.8151275,35.4665676 16.0026444,35.2089521 16.2651712,35.1574332 C16.5276979,35.1059039 16.7527234,35.2604763 16.7902246,35.5180917 Z M13.1422574,35.1324867 C13.4042757,35.2347029 13.5539951,35.4902334 13.5165672,35.7457689 C13.4791354,36.0013044 13.2171209,36.1035156 12.9551063,36.0013044 C12.693088,35.8990882 12.5433687,35.5924445 12.5807966,35.3880222 C12.6182284,35.1324867 12.8802429,35.0302755 13.1422574,35.1324867 Z M11.9164165,34.4010515 C12.1239825,34.5737564 12.1654974,34.8760007 12.0409569,35.0487099 C11.9164165,35.2214191 11.6258166,35.1782408 11.3767357,34.9623532 C11.1691655,34.7464699 11.0861399,34.4442299 11.2521952,34.3146948 C11.3767357,34.1419856 11.6673314,34.185164 11.9164165,34.4010515 Z M11.0015198,33.2863831 C11.200916,33.5077449 11.200916,33.7733756 11.0015198,33.906191 C10.8021187,34.0390107 10.5030145,33.906191 10.3534649,33.6848335 C10.1540638,33.4634717 10.1540638,33.1535677 10.3534649,33.0650212 C10.5528661,32.9322059 10.8519652,33.0650212 11.0015198,33.2863831 Z M9.19721593,31.301828 C9.43562243,31.4466441 9.55482866,31.7362691 9.49522555,31.9534788 L9.48881124,31.9659397 L9.53854908,31.9327573 C9.70258281,31.8469167 9.93793765,31.9459671 10.1304998,32.1242543 C10.3471323,32.374972 10.4012917,32.6758292 10.2388188,32.7761182 C10.0763458,32.9265468 9.7513944,32.8262578 9.58892142,32.6256846 C9.41930122,32.4686387 9.34928789,32.2501118 9.40487921,32.0904496 C9.28473414,32.1936683 9.075652,32.2054703 8.89921226,32.0982949 C8.66080576,31.9534788 8.48200237,31.6638538 8.60120264,31.4466369 C8.66080576,31.2294127 8.95881538,31.1570119 9.19721593,31.301828 Z"/>
</svg>
