<svg xmlns="http://www.w3.org/2000/svg" width="44" height="44" viewBox="0 0 44 44">
  <path d="M19.95,34.3 L24.05,34.3 L24.05,30.2 L19.95,30.2 L19.95,34.3 Z M22,1.5 C10.684,1.5 1.5,10.684 1.5,22 C1.5,33.316 10.684,42.5 22,42.5 C33.316,42.5 42.5,33.316 42.5,22 C42.5,10.684 33.316,1.5 22,1.5 Z M22,38.4 C12.9595,38.4 5.6,31.0405 5.6,22 C5.6,12.9595 12.9595,5.6 22,5.6 C31.0405,5.6 38.4,12.9595 38.4,22 C38.4,31.0405 31.0405,38.4 22,38.4 Z M22,9.7 C17.4695,9.7 13.8,13.3695 13.8,17.9 L17.9,17.9 C17.9,15.645 19.745,13.8 22,13.8 C24.255,13.8 26.1,15.645 26.1,17.9 C26.1,22 19.95,21.4875 19.95,28.15 L24.05,28.15 C24.05,23.5375 30.2,23.025 30.2,17.9 C30.2,13.3695 26.5305,9.7 22,9.7 Z"/>
</svg>
