<svg xmlns="http://www.w3.org/2000/svg" fill="currentColor" viewBox="0 0 24 24">
  <g class="underlined">
    <path fill-rule="evenodd" d="M18.756 20.882V22.7H5.186v-1.82h13.57zM7.442 2c.712.005 1.459.055 1.546.104.091.105.156.457.156.797 0 .274-.039.561-.117.679-.392.091-.914.196-1.45.274v8.304c0 5.131 2.26 5.458 4.348 5.458h.094c2.274-.012 4.346-.473 4.346-5.458V3.854a17.188 17.188 0 01-1.45-.274c-.078-.118-.117-.405-.117-.68 0-.339.065-.691.156-.796.092-.052.914-.104 1.659-.104h1.626c.713.005 1.46.055 1.546.104.092.105.157.457.157.797 0 .274-.04.561-.117.679-.392.091-.914.196-1.45.274v8.957c0 5.875-3.486 6.659-6.437 6.659-2.911 0-6.371-.758-6.371-6.66V3.855a17.19 17.19 0 01-1.45-.274C4.04 3.462 4 3.175 4 2.9c0-.339.065-.691.157-.796C4.248 2.052 5.07 2 5.815 2h1.627z" class="Vector" clip-rule="evenodd"/>
  </g>
</svg>
