<svg width="148" height="42" viewBox="0 0 148 42" xmlns="http://www.w3.org/2000/svg"><g fill="none" fill-rule="evenodd"><text font-family="FlandersArtSans-Medium, Flanders Art Sans" font-size="19" font-weight="400" fill="#333">
            <tspan x="46" y="26">Vlaanderen</tspan>
        </text><path d="M25.073833,20.9536829 C23.9969594,20.1360566 23.4884358,20.9536829 22.8104042,20.9536829 C22.1323727,20.9536829 21.6936464,19.9565777 21.2549202,20.205854 C20.4073808,20.6346092 21.5939359,22.2000643 22.1124306,22.4692827 C22.4940051,22.685938 22.8867458,22.8823084 23.2890147,23.0575748 C23.8928812,23.3358968 24.2814541,23.9381848 24.2861199,24.6030878 C24.3174021,24.8513827 24.3174021,25.1026218 24.2861199,25.3509167 C23.9770173,26.6670955 21.6537622,27.8636217 20.2976992,26.956256 C19.5707221,26.5194672 19.0633265,25.7946164 18.9017519,24.9620457 C18.5427941,23.2370537 17.2864416,21.9707301 16.9075416,20.2756513 C16.6582653,19.2785462 16.4787864,18.1617884 16.209568,17.13477 C15.9403496,16.1077517 15.6611601,14.9710518 15.4318259,13.9739466 C15.1797892,12.9327863 14.8668241,11.9073263 14.4945471,10.9028627 C13.2082814,7.60244452 12.6399314,7.84174976 12.6399314,7.84174976 C12.6399314,7.84174976 13.0985998,8.75908652 14.7837076,16.8156964 C15.0645227,18.5468195 15.4406711,20.2611239 15.9104364,21.950788 C16.0699732,22.3695722 16.3491627,23.2669669 16.5286416,23.6658089 C17.0670784,24.8224509 18.522852,26.5773561 18.5727072,28.1627533 C18.6225625,29.0800901 18.7322441,29.83789 18.7521862,30.5258926 C18.7868237,30.9978278 18.8669642,31.4653142 18.9914914,31.9218398 C19.3404782,32.918945 22.1224017,36 25.073833,36 L25.073833,33.5969765 C23.0162414,33.5519367 21.0139105,32.9225339 19.300594,31.7822451 C19.3390403,31.2039427 19.4564589,30.6336237 19.6495808,30.0871663 C19.9818889,29.0212857 20.9212271,28.2588104 22.0326622,28.1527822 C23.0366846,28.1715296 24.0373368,28.2749303 25.0239777,28.4618849 L25.0239777,20.9536829 L25.073833,20.9536829 Z M12.3208578,12.3386941 C12.2111762,14.1035703 9.45916591,16.5265359 8.60165545,18.0720489 C8.11482237,18.9633347 7.74930452,19.9156932 7.51481081,20.9038276 C7.21754097,22.4821577 7.43421721,24.1142191 8.13301602,25.5603088 C9.04038173,27.7339981 8.0133634,28.5516243 8.72130808,28.0929559 C9.59876063,27.3750402 9.46913696,25.7098746 9.3993396,24.6728852 C9.30965862,23.7377515 9.30965862,22.7961822 9.3993396,21.8610486 C9.79570445,19.9330427 10.6165939,18.1175486 11.8023631,16.546478 C12.6150118,15.2989551 12.8063494,13.7461774 12.3208578,12.3386941 M12.8792367,17.32422 C12.8792367,17.32422 13.1683972,18.7201673 11.8821315,22.3097459 C8.63156861,31.7323898 14.873447,32.6198134 16.60841,34.8333869 C16.60841,34.8333869 17.2964126,33.8362818 14.474605,30.8449662 C13.4774998,29.7282084 12.4803946,27.2553876 13.327934,23.7156642 C14.4945471,18.6005146 12.8293814,17.3441621 12.8293814,17.3441621 M6.72709772,11.1820521 C6.57385753,10.6987837 6.50307094,10.1931652 6.51770563,9.68639434 C6.71712667,7.47282084 8.74125018,6.57542618 9.23980277,6.24638147 C9.70162616,5.9458127 10.0600993,5.51077249 10.2668211,5 C10.8084285,6.35087419 10.2991602,7.89551461 9.06032384,8.65937601 C8.0548316,9.25674214 7.24431003,10.1330753 6.72709772,11.1820521 M11.8223052,9.03827597 C11.9319868,9.26761016 12.8194104,10.4840785 9.34948434,13.2959151 C5.87955832,16.1077517 6.99631612,18.1219041 6.99631612,18.1219041 C6.99631612,18.1219041 3.34691116,16.1276938 7.55469502,12.6079125 C11.7624789,9.08813123 10.8949974,8.42007076 10.8949974,8.42007076 C11.2995362,8.43262179 11.6606064,8.67721776 11.8223052,9.04824702 M16.2693943,10.1251206 C16.8576863,10.204889 17.2664995,12.0395626 18.6125914,12.4384046 C19.6096966,12.7275651 20.6865702,12.5680283 20.9258755,13.1762625 C20.7512656,13.3199675 20.689933,13.5602633 20.7743127,13.7700722 C20.8586924,13.9798812 21.0693187,14.1108022 21.2948044,14.0935992 C21.6836754,12.9768414 21.8731254,8.86876809 16.2793653,10.1251206 L16.2693943,10.1251206 Z M18.1240099,10.9826311 C18.1240099,10.8530074 18.2436625,10.9826311 18.3932283,10.8629784 C18.5496414,10.6600615 18.7510243,10.4962245 18.9815204,10.384368 C19.1823848,10.3188735 19.3988612,10.3188735 19.5997256,10.384368 C19.7193782,10.384368 19.5997256,10.7134127 19.5997256,10.78321 C19.5997256,10.8530074 18.8618677,10.6934706 18.8618677,11.1022837 C18.8618677,11.7703442 19.7692335,11.1022837 20.2378729,11.1022837 C20.4672071,12.7375362 17.765052,12.2888389 18.1638941,10.9427469 L18.1638941,10.9427469 L18.1240099,10.9826311 Z" fill="#333332" fill-rule="nonzero"/><line x1="25.643" y1="-.389" x2="40.021" y2="41.5" stroke="#CBD2DA"/></g></svg>